SplineFontDB: 3.2
FontName: terriac
FullName: terriac Regular
FamilyName: terriac
Weight: Regular
Copyright: Copyright (c) 2025, TerribleAtCreating
Version: 002.000
ItalicAngle: 0
UnderlinePosition: -75
UnderlineWidth: 50
Ascent: 819
Descent: 205
InvalidEm: 0
LayerCount: 2
Layer: 0 0 "Back" 1
Layer: 1 0 "Fore" 0
XUID: [1021 308 -610143922 32752]
StyleMap: 0x0040
FSType: 0
OS2Version: 0
OS2_WeightWidthSlopeOnly: 0
OS2_UseTypoMetrics: 1
CreationTime: 1738091749
ModificationTime: 1738169911
PfmFamily: 81
TTFWeight: 400
TTFWidth: 5
LineGap: 94
VLineGap: 0
OS2TypoAscent: 0
OS2TypoAOffset: 1
OS2TypoDescent: 0
OS2TypoDOffset: 1
OS2TypoLinegap: 94
OS2WinAscent: 0
OS2WinAOffset: 1
OS2WinDescent: 0
OS2WinDOffset: 1
HheadAscent: 0
HheadAOffset: 1
HheadDescent: 0
HheadDOffset: 1
OS2Vendor: 'PfEd'
MarkAttachClasses: 1
DEI: 91125

StartChar: a
Encoding: 97 97 0
Width: 541
Flags: HW
LayerCount: 2
Fore
SplineSet
105 28 m 0
 63 49 36 92 27 150 c 2
 20 194 l 1
 33 248 l 2
 55 339 123 423 199 455 c 2
 237 471 l 1
 301 471 l 1
 365 471 l 1
 399 450 l 2
 417 439 435 422 439 413 c 0
 440 411 440 407 440 401 c 0
 440 380 435 335 428 288 c 0
 417 219 412 171 412 140 c 0
 412 117 415 103 420 94 c 2
 429 80 l 1
 460 86 l 1
 490 93 l 1
 504 76 l 1
 518 60 l 1
 507 43 l 2
 501 34 482 21 464 16 c 2
 431 7 l 1
 406 19 l 2
 392 25 372 44 362 61 c 2
 343 92 l 1
 325 72 l 2
 291 34 233 13 178 13 c 0
 152 13 126 18 105 28 c 0
250 105 m 0
 291 134 327 201 351 297 c 2
 372 381 l 1
 361 393 l 1
 349 404 l 1
 293 403 l 1
 237 402 l 1
 197 375 l 2
 148 342 107 275 98 212 c 2
 91 164 l 1
 105 132 l 1
 118 100 l 1
 148 87 l 2
 161 82 172 79 184 79 c 0
 204 79 225 87 250 105 c 0
EndSplineSet
Validated: 1
EndChar

StartChar: b
Encoding: 98 98 1
Width: 560
Flags: HW
LayerCount: 2
Fore
SplineSet
107 9 m 0
 90 14 66 29 53 43 c 2
 29 68 l 1
 28 450 l 1
 26 832 l 1
 46 836 l 1
 66 840 l 1
 79 821 l 1
 93 803 l 1
 93 626 l 2
 93 529 95 448 99 448 c 0
 103 448 114 456 124 465 c 0
 155 493 225 510 293 510 c 0
 324 510 355 507 382 499 c 0
 432 485 486 438 512 383 c 2
 533 339 l 1
 533 291 l 2
 533 227 513 182 457 122 c 2
 410 72 l 1
 350 45 l 2
 284 16 223 1 170 1 c 0
 147 1 126 4 107 9 c 0
285 93 m 0
 309 101 349 123 374 142 c 2
 420 177 l 1
 446 228 l 1
 471 279 l 1
 461 317 l 2
 448 365 417 404 376 425 c 2
 343 441 l 1
 286 441 l 1
 228 440 l 1
 190 422 l 1
 152 404 l 1
 126 365 l 1
 100 325 l 1
 95 229 l 2
 94 203 93 182 93 164 c 0
 93 104 101 82 121 76 c 0
 128 74 140 73 153 73 c 0
 192 73 250 81 285 93 c 0
EndSplineSet
Validated: 1
EndChar

StartChar: c
Encoding: 99 99 2
Width: 515
Flags: HW
LayerCount: 2
Fore
SplineSet
149 27 m 0
 102 38 58 68 39 100 c 2
 22 128 l 1
 22 200 l 1
 22 271 l 1
 37 314 l 2
 45 338 66 377 84 401 c 2
 116 446 l 1
 167 473 l 1
 218 501 l 1
 298 507 l 1
 378 512 l 1
 424 490 l 1
 470 467 l 1
 483 438 l 2
 488 427 490 416 490 407 c 0
 490 403 489 399 488 397 c 0
 483 390 476 386 466 386 c 0
 450 386 430 396 414 413 c 2
 389 440 l 1
 311 435 l 1
 232 431 l 1
 198 413 l 1
 164 395 l 1
 135 349 l 2
 119 323 99 277 93 246 c 2
 82 190 l 1
 96 152 l 1
 110 115 l 1
 145 103 l 2
 165 96 211 90 249 90 c 2
 317 89 l 1
 379 108 l 2
 406 116 425 121 438 121 c 0
 455 121 462 113 462 98 c 0
 462 95 461 92 461 88 c 2
 457 64 l 1
 391 41 l 1
 324 18 l 1
 252 19 l 2
 213 19 166 23 149 27 c 0
EndSplineSet
Validated: 1
EndChar

StartChar: d
Encoding: 100 100 3
Width: 684
Flags: HW
LayerCount: 2
Fore
SplineSet
128 30 m 1
 86 49 l 1
 57 88 l 1
 27 126 l 1
 24 199 l 1
 20 271 l 1
 42 329 l 1
 63 387 l 1
 106 436 l 1
 149 484 l 1
 201 508 l 1
 252 532 l 1
 311 532 l 2
 344 532 387 525 407 517 c 2
 443 502 l 1
 446 515 l 2
 448 522 453 551 457 579 c 0
 466 650 493 757 510 791 c 2
 524 819 l 1
 545 819 l 2
 562 819 570 813 570 792 c 0
 570 772 563 738 549 682 c 2
 522 575 l 1
 518 469 l 2
 515 391 511 249 511 178 c 0
 511 162 512 150 512 143 c 0
 512 134 519 118 527 107 c 2
 542 88 l 1
 584 102 l 1
 627 116 l 1
 644 98 l 1
 662 81 l 1
 628 51 l 1
 595 20 l 1
 555 20 l 1
 515 20 l 1
 483 57 l 1
 451 94 l 1
 420 67 l 2
 403 52 372 33 352 25 c 2
 316 10 l 1
 243 10 l 1
 170 11 l 1
 128 30 l 1
353 105 m 0
 374 117 400 142 411 160 c 2
 431 192 l 1
 431 261 l 1
 431 331 l 1
 401 396 l 1
 370 461 l 1
 317 461 l 1
 264 461 l 1
 220 440 l 1
 176 418 l 1
 146 377 l 2
 129 354 108 308 98 272 c 2
 81 207 l 1
 93 172 l 2
 113 111 174 75 243 75 c 0
 279 75 317 85 353 105 c 0
EndSplineSet
Validated: 1
EndChar

StartChar: e
Encoding: 101 101 4
Width: 599
Flags: HW
LayerCount: 2
Fore
SplineSet
251 19 m 0
 137 35 74 72 41 146 c 2
 22 188 l 1
 22 255 l 1
 22 323 l 1
 38 368 l 2
 71 460 180 532 318 553 c 2
 387 563 l 1
 431 551 l 2
 455 544 487 528 501 514 c 2
 526 488 l 1
 520 452 l 2
 508 375 418 288 325 263 c 2
 283 252 l 1
 198 259 l 2
 151 263 106 269 97 272 c 2
 81 278 l 1
 88 233 l 2
 101 150 145 111 247 89 c 2
 304 77 l 1
 367 88 l 2
 402 94 457 111 488 125 c 0
 517 138 537 145 551 145 c 0
 568 145 575 135 575 115 c 2
 575 91 l 1
 526 66 l 2
 456 31 389 14 318 14 c 0
 296 14 274 16 251 19 c 0
372 362 m 2
 396 379 424 407 435 426 c 2
 455 460 l 1
 444 471 l 2
 438 477 413 484 388 487 c 2
 342 492 l 1
 282 475 l 2
 201 452 138 413 119 376 c 2
 103 346 l 1
 116 341 l 2
 142 333 173 328 222 328 c 0
 232 328 242 329 254 329 c 2
 328 331 l 1
 372 362 l 2
EndSplineSet
Validated: 1
EndChar

StartChar: f
Encoding: 102 102 5
Width: 827
Flags: HW
LayerCount: 2
Fore
SplineSet
281 29 m 0
 274 33 255 67 237 105 c 2
 205 173 l 1
 196 238 l 2
 191 274 186 328 186 359 c 2
 186 416 l 1
 113 416 l 1
 40 415 l 1
 29 432 l 1
 18 449 l 1
 31 465 l 1
 45 482 l 1
 121 482 l 1
 197 482 l 1
 202 499 l 2
 205 509 219 548 233 586 c 2
 259 654 l 1
 308 700 l 2
 399 785 494 819 641 819 c 2
 734 819 l 1
 759 806 l 1
 785 793 l 1
 785 773 l 1
 785 753 l 1
 672 752 l 1
 560 751 l 1
 514 738 l 2
 409 708 343 657 304 573 c 0
 290 542 278 511 278 503 c 2
 278 490 l 1
 534 497 l 1
 790 505 l 1
 796 487 l 1
 803 470 l 1
 788 454 l 1
 773 439 l 1
 528 429 l 2
 393 424 277 417 270 415 c 2
 257 411 l 1
 257 341 l 2
 257 260 278 175 313 105 c 2
 338 56 l 1
 328 38 l 2
 322 27 314 21 304 21 c 0
 297 21 289 24 281 29 c 0
EndSplineSet
Validated: 1
EndChar

StartChar: g
Encoding: 103 103 6
Width: 674
Flags: HW
LayerCount: 2
Fore
SplineSet
201 -357 m 0
 159 -342 135 -319 135 -296 c 0
 135 -279 144 -270 162 -270 c 0
 173 -270 188 -274 206 -281 c 0
 231 -291 256 -295 281 -295 c 0
 407 -295 530 -178 565 -6 c 2
 577 56 l 1
 571 128 l 2
 564 207 544 306 535 306 c 0
 532 306 511 278 488 244 c 0
 409 125 278 32 177 23 c 2
 129 19 l 1
 96 40 l 2
 78 52 53 76 42 94 c 2
 22 127 l 1
 22 171 l 2
 22 195 32 239 44 271 c 2
 65 329 l 1
 114 375 l 2
 175 433 235 468 308 487 c 2
 365 502 l 1
 406 495 l 2
 429 491 467 478 492 464 c 0
 517 450 545 440 556 440 c 2
 575 440 l 1
 584 417 l 2
 601 373 625 260 637 172 c 2
 648 83 l 1
 637 12 l 2
 610 -162 541 -267 409 -334 c 2
 355 -362 l 1
 294 -365 l 2
 288 -365 281 -366 275 -366 c 0
 246 -366 215 -362 201 -357 c 0
242 111 m 0
 301 138 391 223 442 301 c 2
 485 368 l 1
 479 384 l 2
 471 404 411 429 373 429 c 0
 332 429 235 387 185 347 c 2
 142 313 l 1
 118 261 l 2
 105 233 94 193 94 174 c 2
 94 139 l 1
 116 115 l 1
 138 92 l 1
 170 92 l 2
 187 92 219 101 242 111 c 0
EndSplineSet
Validated: 1
EndChar

StartChar: h
Encoding: 104 104 7
Width: 652
Flags: HW
LayerCount: 2
Fore
SplineSet
46 27 m 2
 32 44 l 1
 28 437 l 1
 25 830 l 1
 37 845 l 2
 45 854 51 859 58 859 c 0
 65 859 72 854 82 844 c 2
 98 828 l 1
 98 571 l 1
 98 315 l 1
 145 358 l 2
 171 382 218 413 250 428 c 2
 308 456 l 1
 390 456 l 1
 472 456 l 1
 522 421 l 1
 572 386 l 1
 597 330 l 1
 623 274 l 1
 618 180 l 1
 613 86 l 1
 599 56 l 2
 591 39 576 24 567 22 c 2
 550 19 l 1
 540 38 l 1
 531 56 l 1
 545 128 l 1
 559 200 l 1
 553 243 l 2
 545 297 513 346 468 372 c 2
 434 392 l 1
 392 391 l 2
 302 389 177 318 128 239 c 2
 104 200 l 1
 103 118 l 2
 103 73 99 30 95 23 c 0
 90 15 83 11 75 11 c 0
 66 11 55 16 46 27 c 2
EndSplineSet
Validated: 1
EndChar

StartChar: i
Encoding: 105 105 8
Width: 350
Flags: HW
LayerCount: 2
Fore
SplineSet
75 559 m 0
 69 566 65 579 65 593 c 0
 65 596 66 599 66 602 c 2
 69 631 l 1
 94 643 l 1
 119 655 l 1
 137 646 l 2
 147 641 158 627 162 615 c 2
 168 594 l 1
 145 569 l 2
 130 553 115 545 102 545 c 0
 92 545 83 550 75 559 c 0
72 12 m 0
 62 18 46 37 38 53 c 2
 23 82 l 1
 23 162 l 2
 23 276 56 390 97 415 c 2
 115 426 l 1
 131 410 l 1
 147 394 l 1
 127 342 l 2
 116 314 101 262 95 227 c 2
 83 163 l 1
 90 122 l 2
 95 89 108 73 130 73 c 0
 152 73 184 90 227 124 c 0
 256 147 287 165 298 165 c 0
 315 165 326 151 326 134 c 0
 326 130 326 125 324 121 c 0
 318 105 234 40 191 17 c 0
 172 7 146 2 122 2 c 0
 102 2 84 5 72 12 c 0
EndSplineSet
Validated: 1
EndChar

StartChar: j
Encoding: 106 106 9
Width: 463
Flags: HW
LayerCount: 2
Fore
SplineSet
268 650 m 1
 252 675 l 1
 265 698 l 2
 281 727 293 737 321 737 c 0
 346 737 376 708 376 683 c 0
 376 658 339 625 310 625 c 2
 285 625 l 1
 268 650 l 1
93 -245 m 2
 62 -224 18 -153 18 -122 c 0
 18 -102 38 -82 60 -82 c 2
 78 -82 l 1
 90 -120 l 2
 97 -141 109 -166 118 -176 c 2
 134 -194 l 1
 171 -194 l 1
 207 -194 l 1
 241 -174 l 2
 283 -148 332 -73 353 0 c 2
 369 56 l 1
 363 153 l 1
 357 251 l 1
 335 323 l 2
 323 362 313 406 312 420 c 2
 310 446 l 1
 332 449 l 1
 355 452 l 1
 372 426 l 2
 381 412 398 364 410 320 c 2
 431 241 l 1
 432 118 l 1
 432 -5 l 1
 408 -61 l 2
 379 -131 326 -202 278 -235 c 2
 241 -260 l 1
 183 -263 l 1
 126 -267 l 1
 93 -245 l 2
EndSplineSet
Validated: 1
EndChar

StartChar: k
Encoding: 107 107 10
Width: 516
Flags: HW
LayerCount: 2
Fore
SplineSet
389 15 m 0
 361 30 284 63 218 90 c 2
 98 139 l 1
 98 89 l 2
 98 62 94 33 91 24 c 2
 85 7 l 1
 62 7 l 1
 38 7 l 1
 32 24 l 2
 28 35 26 105 26 196 c 0
 26 323 30 490 36 593 c 0
 47 761 56 803 83 813 c 2
 99 819 l 1
 114 805 l 1
 128 790 l 1
 118 739 l 2
 109 693 99 442 99 324 c 0
 99 287 100 263 102 263 c 0
 106 263 173 296 251 335 c 2
 392 407 l 1
 409 401 l 1
 425 394 l 1
 425 370 l 1
 425 345 l 1
 287 276 l 2
 211 238 149 205 149 201 c 0
 149 197 191 177 243 156 c 0
 374 104 484 48 491 30 c 0
 492 27 492 25 492 22 c 0
 492 5 476 -13 458 -13 c 0
 457 -13 l 0
 448 -13 417 0 389 15 c 0
EndSplineSet
Validated: 1
EndChar

StartChar: l
Encoding: 108 108 11
Width: 436
Flags: HW
LayerCount: 2
Fore
SplineSet
148 -10 m 0
 114 -2 73 45 56 95 c 0
 47 121 35 195 30 259 c 2
 21 376 l 1
 30 482 l 2
 46 670 78 805 107 816 c 0
 112 818 117 819 122 819 c 0
 139 819 153 807 153 788 c 0
 153 776 146 744 138 717 c 0
 117 648 92 457 92 367 c 0
 92 220 120 88 157 62 c 0
 163 58 171 56 180 56 c 0
 218 56 279 88 334 140 c 2
 367 170 l 1
 383 164 l 2
 392 161 402 150 406 140 c 2
 413 123 l 1
 355 69 l 1
 298 16 l 1
 249 0 l 2
 219 -10 202 -15 184 -15 c 0
 173 -15 162 -13 148 -10 c 0
EndSplineSet
Validated: 1
EndChar

StartChar: m
Encoding: 109 109 12
Width: 781
Flags: HW
LayerCount: 2
Fore
SplineSet
33 46 m 1
 22 67 l 1
 33 259 l 2
 46 477 51 517 76 532 c 2
 94 543 l 1
 106 530 l 1
 118 518 l 1
 116 459 l 1
 114 400 l 1
 137 422 l 2
 170 453 247 487 287 487 c 0
 329 487 359 472 388 438 c 2
 410 412 l 1
 449 443 l 2
 471 460 505 479 526 486 c 2
 564 498 l 1
 600 492 l 1
 636 485 l 1
 677 450 l 1
 717 415 l 1
 735 369 l 1
 752 323 l 1
 748 244 l 1
 743 164 l 1
 720 111 l 1
 696 57 l 1
 677 51 l 2
 670 49 664 48 659 48 c 0
 646 48 638 56 638 72 c 0
 638 89 645 114 659 149 c 2
 681 205 l 1
 682 267 l 1
 683 328 l 1
 663 361 l 2
 652 379 628 402 609 411 c 2
 574 427 l 1
 549 421 l 2
 535 418 505 398 483 378 c 2
 443 341 l 1
 433 304 l 2
 428 283 419 232 413 189 c 0
 401 102 387 61 363 52 c 2
 347 46 l 1
 332 61 l 1
 317 76 l 1
 333 146 l 1
 349 216 l 1
 347 298 l 1
 345 381 l 1
 331 398 l 1
 317 415 l 1
 287 415 l 2
 230 415 160 359 119 282 c 2
 100 246 l 1
 94 139 l 1
 89 31 l 1
 67 28 l 1
 45 25 l 1
 33 46 l 1
EndSplineSet
Validated: 1
EndChar

StartChar: n
Encoding: 110 110 13
Width: 479
Flags: HW
LayerCount: 2
Fore
SplineSet
39 32 m 2
 26 48 l 1
 28 199 l 2
 29 282 33 383 37 425 c 2
 45 501 l 1
 62 512 l 1
 79 522 l 1
 96 508 l 1
 113 494 l 1
 106 417 l 1
 99 340 l 1
 145 382 l 2
 199 431 250 456 298 456 c 0
 322 456 344 450 367 438 c 2
 403 419 l 1
 426 379 l 1
 449 339 l 1
 449 276 l 1
 449 213 l 1
 427 143 l 2
 402 63 393 47 366 47 c 0
 349 47 340 56 340 78 c 0
 340 95 345 119 356 153 c 0
 369 193 380 247 380 273 c 2
 381 321 l 1
 364 348 l 2
 348 372 327 385 302 385 c 0
 272 385 236 367 198 332 c 2
 152 290 l 1
 120 225 l 1
 88 160 l 1
 94 104 l 2
 96 87 97 71 97 58 c 0
 97 47 96 37 95 33 c 0
 91 22 81 17 70 17 c 0
 59 17 47 22 39 32 c 2
EndSplineSet
Validated: 1
EndChar

StartChar: o
Encoding: 111 111 14
Width: 578
Flags: HW
LayerCount: 2
Fore
SplineSet
164 20 m 0
 149 25 120 39 100 51 c 2
 63 74 l 1
 42 115 l 1
 21 157 l 1
 25 225 l 1
 29 292 l 1
 52 338 l 2
 65 364 94 405 116 429 c 2
 156 472 l 1
 210 497 l 1
 264 522 l 1
 306 522 l 2
 360 522 433 500 473 472 c 2
 504 450 l 1
 526 402 l 1
 548 353 l 1
 548 295 l 1
 548 236 l 1
 525 190 l 2
 497 132 446 87 365 49 c 2
 301 19 l 1
 246 15 l 2
 238 14 230 14 222 14 c 0
 199 14 175 16 164 20 c 0
300 98 m 0
 324 107 364 126 388 141 c 2
 431 168 l 1
 455 209 l 1
 478 251 l 1
 478 300 l 1
 478 349 l 1
 431 396 l 1
 384 443 l 1
 332 448 l 1
 280 453 l 1
 234 431 l 2
 154 392 91 294 91 208 c 2
 91 166 l 1
 109 138 l 2
 132 103 174 84 223 84 c 0
 247 84 273 89 300 98 c 0
EndSplineSet
Validated: 1
EndChar

StartChar: p
Encoding: 112 112 15
Width: 644
Flags: HW
LayerCount: 2
Fore
SplineSet
31 -356 m 2
 19 -341 l 1
 26 -240 l 2
 47 82 79 399 94 437 c 2
 103 460 l 1
 126 457 l 1
 149 454 l 1
 152 422 l 1
 155 389 l 1
 207 424 l 2
 235 443 277 464 300 470 c 2
 343 481 l 1
 382 475 l 2
 443 465 495 434 547 376 c 2
 594 324 l 1
 606 285 l 1
 618 246 l 1
 611 208 l 1
 603 171 l 1
 564 132 l 1
 525 93 l 1
 465 70 l 2
 384 40 269 19 185 19 c 2
 116 19 l 1
 110 -30 l 2
 107 -57 101 -139 97 -212 c 0
 93 -285 86 -351 80 -358 c 0
 73 -366 65 -370 57 -370 c 0
 48 -370 39 -365 31 -356 c 2
282 96 m 0
 310 100 369 115 412 128 c 2
 491 152 l 1
 517 183 l 2
 534 203 542 222 542 242 c 0
 542 272 523 303 485 341 c 0
 441 384 397 405 351 405 c 0
 304 405 255 383 203 337 c 0
 155 295 138 254 129 165 c 2
 121 92 l 1
 140 87 l 2
 147 85 154 84 165 84 c 0
 185 84 219 88 282 96 c 0
EndSplineSet
Validated: 1
EndChar

StartChar: q
Encoding: 113 113 16
Width: 577
Flags: HW
LayerCount: 2
Fore
SplineSet
472 -314 m 0
 469 -308 467 -228 467 -125 c 0
 467 -104 467 -81 467 -58 c 0
 467 -9 468 37 468 75 c 0
 468 142 467 186 465 186 c 0
 462 186 434 160 404 130 c 0
 333 59 261 23 191 23 c 0
 172 23 154 26 135 31 c 2
 94 42 l 1
 58 78 l 1
 23 115 l 1
 23 189 l 1
 24 262 l 1
 51 314 l 2
 94 398 180 465 290 503 c 0
 327 515 358 522 387 522 c 0
 436 522 477 503 514 463 c 2
 544 432 l 1
 542 173 l 2
 540 -132 531 -296 517 -314 c 0
 511 -322 501 -326 493 -326 c 0
 485 -326 477 -322 472 -314 c 0
245 104 m 2
 282 114 l 1
 336 163 l 1
 390 211 l 1
 419 272 l 2
 438 312 447 341 447 367 c 0
 447 386 442 404 432 423 c 2
 415 454 l 1
 372 449 l 2
 272 438 146 353 109 273 c 0
 95 242 88 214 88 190 c 0
 88 132 126 95 188 95 c 0
 205 95 224 98 245 104 c 2
EndSplineSet
Validated: 1
EndChar

StartChar: r
Encoding: 114 114 17
Width: 533
Flags: HW
LayerCount: 2
Fore
SplineSet
42 49 m 0
 38 59 32 162 29 279 c 2
 23 491 l 1
 36 507 l 2
 44 517 50 522 56 522 c 0
 61 522 67 519 76 513 c 2
 90 504 l 1
 97 441 l 1
 103 378 l 1
 156 425 l 2
 185 451 233 483 263 497 c 2
 318 522 l 1
 402 522 l 1
 486 522 l 1
 497 501 l 1
 509 480 l 1
 497 466 l 1
 485 452 l 1
 407 454 l 1
 328 455 l 1
 292 436 l 2
 239 408 151 330 121 285 c 2
 95 246 l 1
 100 149 l 1
 105 52 l 1
 94 42 l 2
 87 35 78 31 69 31 c 0
 57 31 47 38 42 49 c 0
EndSplineSet
Validated: 1
EndChar

StartChar: s
Encoding: 115 115 18
Width: 468
Flags: HW
LayerCount: 2
Fore
SplineSet
108 25 m 2
 68 39 51 56 51 80 c 0
 51 93 60 99 79 99 c 0
 95 99 117 95 148 87 c 2
 215 71 l 1
 273 81 l 2
 305 87 339 100 350 110 c 2
 369 127 l 1
 366 153 l 1
 363 178 l 1
 321 211 l 2
 298 229 233 260 177 282 c 2
 76 321 l 1
 48 349 l 1
 20 377 l 1
 20 407 l 2
 20 448 67 516 113 542 c 2
 151 563 l 1
 206 563 l 1
 261 563 l 1
 285 547 l 1
 308 531 l 1
 305 493 l 1
 302 456 l 1
 278 452 l 1
 254 449 l 1
 248 470 l 1
 243 492 l 1
 219 498 l 1
 194 504 l 1
 158 485 l 2
 138 475 113 454 104 439 c 2
 88 411 l 1
 100 396 l 2
 107 388 141 371 176 358 c 0
 211 345 272 319 310 299 c 2
 379 263 l 1
 410 227 l 1
 440 190 l 1
 440 148 l 1
 440 105 l 1
 418 77 l 2
 406 61 377 40 354 30 c 2
 312 11 l 1
 230 11 l 1
 148 11 l 1
 108 25 l 2
EndSplineSet
Validated: 1
EndChar

StartChar: t
Encoding: 116 116 19
Width: 612
Flags: HW
LayerCount: 2
Fore
SplineSet
271 41 m 1
 238 61 l 1
 215 104 l 1
 193 148 l 1
 179 240 l 2
 171 291 165 382 165 442 c 2
 165 552 l 1
 102 555 l 1
 39 558 l 1
 29 575 l 1
 18 592 l 1
 31 608 l 1
 45 625 l 1
 109 625 l 1
 173 625 l 1
 180 673 l 2
 184 700 194 737 202 755 c 2
 215 788 l 1
 240 788 l 2
 262 788 272 781 272 760 c 0
 272 748 269 732 262 711 c 0
 254 684 247 654 247 644 c 2
 247 625 l 1
 407 622 l 1
 568 620 l 1
 578 602 l 1
 589 585 l 1
 576 569 l 1
 562 553 l 1
 401 553 l 1
 240 553 l 1
 233 505 l 2
 232 495 231 481 231 464 c 0
 231 381 246 230 262 178 c 0
 270 152 284 123 294 112 c 2
 312 92 l 1
 345 92 l 2
 390 92 439 110 491 146 c 2
 535 176 l 1
 550 170 l 2
 558 167 568 157 572 147 c 2
 578 129 l 1
 539 96 l 2
 491 55 405 21 347 21 c 2
 304 21 l 1
 271 41 l 1
EndSplineSet
Validated: 1
EndChar

StartChar: u
Encoding: 117 117 20
Width: 468
Flags: HW
LayerCount: 2
Fore
SplineSet
383 42 m 0
 377 49 367 75 361 99 c 2
 349 142 l 1
 302 107 l 2
 260 75 217 60 178 60 c 0
 121 60 71 93 41 157 c 2
 22 198 l 1
 22 286 l 1
 22 373 l 1
 38 434 l 2
 56 503 67 521 95 521 c 0
 112 521 121 512 121 490 c 0
 121 476 117 456 110 430 c 2
 94 371 l 1
 94 290 l 1
 94 209 l 1
 107 184 l 2
 114 170 131 151 146 140 c 2
 172 120 l 1
 212 137 l 2
 234 146 270 170 291 191 c 2
 330 229 l 1
 339 265 l 2
 344 285 352 351 356 413 c 0
 360 475 367 535 372 545 c 2
 382 563 l 1
 404 560 l 1
 426 557 l 1
 426 485 l 2
 426 446 422 363 417 301 c 2
 408 188 l 1
 426 124 l 1
 444 60 l 1
 432 45 l 2
 424 35 414 30 405 30 c 0
 397 30 390 34 383 42 c 0
EndSplineSet
Validated: 1
EndChar

StartChar: v
Encoding: 118 118 21
Width: 526
Flags: HW
LayerCount: 2
Fore
SplineSet
247 46 m 0
 194 99 83 309 43 429 c 2
 20 499 l 1
 37 515 l 1
 53 532 l 1
 69 522 l 2
 78 516 100 472 119 424 c 0
 159 321 196 246 245 170 c 2
 280 115 l 1
 314 211 l 2
 347 307 397 429 430 497 c 2
 448 532 l 1
 473 532 l 1
 498 532 l 1
 502 514 l 2
 504 504 486 451 463 398 c 0
 440 345 400 243 375 172 c 0
 350 101 324 39 317 34 c 0
 308 29 299 26 290 26 c 0
 275 26 260 33 247 46 c 0
EndSplineSet
Validated: 33
EndChar

StartChar: w
Encoding: 119 119 22
Width: 952
Flags: HW
LayerCount: 2
Fore
SplineSet
542 57 m 2
 496 109 462 188 444 283 c 0
 436 327 426 374 423 387 c 2
 418 411 l 1
 403 389 l 2
 395 377 352 302 310 222 c 0
 268 142 224 66 212 53 c 0
 198 38 184 30 172 30 c 0
 149 30 129 56 108 110 c 0
 83 175 20 437 20 477 c 2
 20 510 l 1
 40 521 l 1
 60 531 l 1
 76 509 l 2
 85 496 92 475 92 463 c 0
 92 434 158 170 171 147 c 2
 181 129 l 1
 240 242 l 2
 307 372 396 509 422 525 c 2
 440 536 l 1
 458 525 l 1
 475 514 l 1
 498 382 l 2
 523 232 541 171 577 127 c 2
 602 96 l 1
 635 168 l 2
 673 252 785 449 842 534 c 2
 882 594 l 1
 904 591 l 2
 919 588 929 576 929 570 c 0
 929 558 901 499 864 438 c 0
 826 375 760 256 717 174 c 2
 640 24 l 1
 608 21 l 1
 576 18 l 1
 542 57 l 2
EndSplineSet
Validated: 1
EndChar

StartChar: x
Encoding: 120 120 23
Width: 514
Flags: HW
LayerCount: 2
Fore
SplineSet
78 26 m 0
 74 30 72 35 72 41 c 0
 72 57 86 80 120 120 c 0
 147 152 175 186 183 196 c 2
 198 214 l 1
 131 283 l 2
 42 375 20 405 20 439 c 2
 20 467 l 1
 38 474 l 1
 56 481 l 1
 74 457 l 2
 111 408 190 319 216 298 c 2
 242 276 l 1
 331 387 l 2
 380 448 430 501 441 505 c 2
 462 512 l 1
 476 500 l 2
 485 492 490 483 490 474 c 0
 490 465 485 456 475 448 c 0
 466 441 424 392 382 339 c 2
 305 243 l 1
 311 229 l 2
 314 221 353 193 398 166 c 0
 463 127 487 108 487 91 c 0
 487 85 485 80 480 74 c 0
 473 66 466 61 456 61 c 0
 435 61 398 82 309 140 c 0
 281 158 256 171 252 171 c 0
 252 171 253 171 190 93 c 2
 131 19 l 1
 108 19 l 2
 95 19 82 22 78 26 c 0
EndSplineSet
Validated: 33
EndChar

StartChar: y
Encoding: 121 121 24
Width: 452
Flags: HW
LayerCount: 2
Fore
SplineSet
180 -344 m 0
 171 -335 167 -323 169 -316 c 0
 171 -309 191 -228 213 -136 c 2
 253 32 l 1
 193 120 l 2
 122 225 20 428 20 463 c 2
 20 488 l 1
 36 494 l 2
 45 497 57 498 62 495 c 0
 67 492 98 438 129 375 c 0
 160 312 204 232 227 196 c 2
 268 130 l 1
 277 139 l 2
 287 149 344 372 354 439 c 0
 358 464 365 494 370 504 c 2
 380 522 l 1
 402 519 l 1
 424 516 l 1
 427 480 l 2
 427 477 427 473 427 470 c 0
 427 430 408 351 307 -52 c 0
 247 -292 228 -359 204 -359 c 0
 197 -359 189 -353 180 -344 c 0
EndSplineSet
Validated: 1
EndChar

StartChar: z
Encoding: 122 122 25
Width: 677
Flags: HW
LayerCount: 2
Fore
SplineSet
34 32 m 1
 21 48 l 1
 28 70 l 1
 34 91 l 1
 87 121 l 2
 116 138 227 196 333 250 c 2
 526 349 l 1
 516 359 l 1
 505 370 l 1
 299 372 l 1
 94 375 l 1
 79 387 l 2
 69 395 64 406 64 415 c 0
 64 423 68 430 76 435 c 0
 82 439 131 440 196 440 c 0
 317 440 493 435 545 427 c 0
 612 416 648 395 648 368 c 0
 648 357 642 345 629 333 c 0
 619 324 519 268 408 210 c 2
 207 104 l 1
 414 109 l 1
 622 113 l 1
 637 96 l 1
 651 78 l 1
 641 61 l 1
 630 44 l 1
 406 38 l 2
 283 34 152 28 115 24 c 2
 48 16 l 1
 34 32 l 1
EndSplineSet
Validated: 1
EndChar

StartChar: braceleft
Encoding: 123 123 26
Width: 576
Flags: HW
LayerCount: 2
Fore
SplineSet
206 -127 m 2
 188 -112 166 -86 156 -68 c 2
 139 -36 l 1
 141 -17 l 1
 142 76 146 72 149 96 c 2
 155 139 l 1
 106 161 l 2
 43 188 21 208 21 238 c 2
 21 263 l 1
 66 291 l 2
 91 306 125 326 141 335 c 2
 171 351 l 1
 182 419 l 1
 193 566 l 1
 214 622 l 2
 255 731 322 786 412 786 c 0
 468 786 501 770 530 726 c 2
 553 691 l 1
 553 644 l 1
 553 596 l 1
 537 573 l 1
 521 550 l 1
 499 553 l 1
 477 556 l 1
 479 587 l 2
 480 604 482 630 483 645 c 2
 485 673 l 1
 467 694 l 1
 448 715 l 1
 409 715 l 1
 370 715 l 1
 334 683 l 1
 297 651 l 1
 276 580 l 1
 254 509 l 1
 248 369 l 1
 241 308 l 1
 176 274 l 1
 110 239 l 1
 135 225 l 2
 149 218 174 211 192 211 c 2
 224 211 l 1
 231 191 l 2
 232 187 233 181 233 174 c 0
 233 161 231 146 227 132 c 0
 221 111 213 115 210 19 c 1
 204 -5 l 1
 222 -41 l 1
 241 -77 l 1
 267 -80 l 2
 270 -80 273 -81 276 -81 c 0
 327 -81 394 -36 433 23 c 2
 452 51 l 1
 471 51 l 2
 481 51 496 44 503 35 c 2
 516 19 l 1
 497 -17 l 2
 457 -91 354 -153 271 -153 c 2
 238 -153 l 1
 206 -127 l 2
EndSplineSet
Validated: 1
EndChar

StartChar: braceright
Encoding: 125 125 27
Width: 574
Flags: HW
LayerCount: 2
Fore
SplineSet
369 -127 m 2
 337 -153 l 1
 304 -153 l 2
 221 -153 118 -91 78 -17 c 2
 59 19 l 1
 72 35 l 2
 79 44 94 51 104 51 c 2
 123 51 l 1
 142 23 l 2
 181 -36 248 -81 299 -81 c 0
 302 -81 305 -80 308 -80 c 2
 334 -77 l 1
 353 -41 l 1
 371 -5 l 1
 365 19 l 1
 362 115 354 111 348 132 c 0
 344 146 342 161 342 174 c 0
 342 181 343 187 344 191 c 2
 351 211 l 1
 383 211 l 2
 401 211 426 218 440 225 c 2
 465 239 l 1
 399 274 l 1
 334 308 l 1
 327 369 l 1
 321 509 l 1
 299 580 l 1
 278 651 l 1
 241 683 l 1
 205 715 l 1
 166 715 l 1
 127 715 l 1
 108 694 l 1
 90 673 l 1
 92 645 l 2
 93 630 95 604 96 587 c 2
 98 556 l 1
 76 553 l 1
 54 550 l 1
 38 573 l 1
 22 596 l 1
 22 644 l 1
 22 691 l 1
 45 726 l 2
 74 770 107 786 163 786 c 0
 253 786 320 731 361 622 c 2
 382 566 l 1
 393 419 l 1
 404 351 l 1
 434 335 l 2
 450 326 484 306 509 291 c 2
 554 263 l 1
 554 238 l 2
 554 208 532 188 469 161 c 2
 420 139 l 1
 426 96 l 2
 429 72 433 76 434 -17 c 1
 436 -36 l 1
 419 -68 l 2
 409 -86 387 -112 369 -127 c 2
EndSplineSet
Validated: 1
EndChar

StartChar: bar
Encoding: 124 124 28
Width: 126
Flags: HW
LayerCount: 2
Fore
SplineSet
45 28 m 2
 31 45 l 1
 31 430 l 1
 31 815 l 1
 50 819 l 2
 52 819 54 820 56 820 c 0
 65 820 76 816 81 811 c 2
 93 799 l 1
 93 684 l 2
 93 621 95 449 97 301 c 0
 98 261 98 224 98 189 c 0
 98 95 96 26 93 22 c 0
 89 15 82 12 75 12 c 0
 65 12 54 17 45 28 c 2
EndSplineSet
Validated: 1
EndChar

StartChar: oe
Encoding: 189 339 30
Width: 1048
Flags: HW
LayerCount: 2
Fore
SplineSet
821 362 m 2
 845 379 873 407 884 426 c 2
 904 460 l 1
 893 471 l 2
 887 477 862 484 837 487 c 2
 791 492 l 1
 731 475 l 2
 650 452 587 413 568 376 c 2
 552 346 l 1
 565 341 l 2
 591 333 622 328 671 328 c 0
 681 328 691 329 703 329 c 2
 777 331 l 1
 821 362 l 2
300 98 m 0
 324 107 364 126 388 141 c 2
 431 168 l 1
 455 209 l 1
 471 238 l 1
 471 255 l 1
 471 323 l 1
 478 343 l 1
 478 349 l 1
 431 396 l 1
 384 443 l 1
 332 448 l 1
 280 453 l 1
 234 431 l 2
 154 392 91 294 91 208 c 2
 91 166 l 1
 109 138 l 2
 132 103 174 84 223 84 c 0
 247 84 273 89 300 98 c 0
164 20 m 0
 149 25 120 39 100 51 c 2
 63 74 l 1
 42 115 l 1
 21 157 l 1
 25 225 l 1
 29 292 l 1
 52 338 l 2
 65 364 94 405 116 429 c 2
 156 472 l 1
 210 497 l 1
 264 522 l 1
 306 522 l 2
 360 522 433 500 473 472 c 2
 504 450 l 1
 517 422 l 1
 567 487 658 536 767 553 c 2
 836 563 l 1
 880 551 l 2
 904 544 936 528 950 514 c 2
 975 488 l 1
 969 452 l 2
 957 375 867 288 774 263 c 2
 732 252 l 1
 647 259 l 2
 603 263 560 268 548 271 c 1
 548 236 l 1
 540 219 l 1
 556 145 600 110 696 89 c 2
 753 77 l 1
 816 88 l 2
 851 94 906 111 937 125 c 0
 966 138 986 145 1000 145 c 0
 1017 145 1024 135 1024 115 c 2
 1024 91 l 1
 975 66 l 2
 905 31 838 14 767 14 c 0
 745 14 723 16 700 19 c 0
 589 35 527 70 493 140 c 1
 463 105 421 75 365 49 c 2
 301 19 l 1
 246 15 l 2
 238 14 230 14 222 14 c 0
 199 14 175 16 164 20 c 0
EndSplineSet
Validated: 1
EndChar

StartChar: question
Encoding: 63 63 31
Width: 560
Flags: HW
LayerCount: 2
Fore
SplineSet
311 224 m 1
 331 203 l 1
 331 167 l 2
 331 116 304 69 216 -34 c 0
 118 -149 93 -189 93 -234 c 0
 93 -296 151 -352 230 -365 c 2
 268 -372 l 1
 321 -349 l 1
 373 -326 l 1
 408 -286 l 1
 443 -245 l 1
 457 -183 l 1
 471 -121 l 1
 487 -111 l 1
 504 -100 l 1
 521 -114 l 1
 538 -129 l 1
 531 -175 l 2
 516 -280 458 -362 366 -407 c 2
 309 -435 l 1
 251 -435 l 1
 193 -435 l 1
 143 -410 l 1
 92 -386 l 1
 62 -347 l 1
 31 -309 l 1
 26 -253 l 1
 22 -196 l 1
 48 -142 l 2
 63 -112 112 -45 157 7 c 0
 243 106 260 130 260 155 c 2
 260 170 l 1
 229 181 l 2
 208 188 199 200 199 211 c 0
 199 228 220 244 257 244 c 2
 291 244 l 1
 311 224 l 1
288 433 m 2
 311 417 l 1
 311 392 l 1
 311 367 l 1
 285 350 l 1
 259 333 l 1
 223 350 l 1
 188 367 l 1
 188 387 l 2
 188 413 222 449 247 449 c 0
 257 449 275 442 288 433 c 2
EndSplineSet
Validated: 1
EndChar

StartChar: exclam
Encoding: 33 33 33
Width: 163
Flags: HW
LayerCount: 2
Fore
SplineSet
64 144 m 2
 53 156 l 1
 47 469 l 1
 40 782 l 1
 54 801 l 1
 67 819 l 1
 87 815 l 1
 107 812 l 1
 110 485 l 1
 112 159 l 1
 101 145 l 2
 94 136 88 132 82 132 c 0
 76 132 70 136 64 144 c 2
43 -37 m 2
 20 -22 l 1
 20 3 l 1
 20 28 l 1
 46 45 l 1
 72 62 l 1
 108 46 l 1
 143 29 l 1
 143 8 l 2
 143 -18 109 -53 84 -53 c 0
 74 -53 56 -46 43 -37 c 2
EndSplineSet
Validated: 1
EndChar

StartChar: quotedbl
Encoding: 34 34 34
Width: 257
Flags: HW
LayerCount: 2
Fore
SplineSet
167 585 m 2
 150 603 l 1
 157 675 l 2
 161 715 167 763 171 783 c 2
 178 819 l 1
 204 819 l 1
 229 819 l 1
 226 707 l 1
 222 594 l 1
 211 581 l 2
 204 573 199 569 193 569 c 0
 186 569 178 574 167 585 c 2
44 585 m 2
 27 603 l 1
 34 675 l 2
 38 715 44 763 48 783 c 2
 56 819 l 1
 81 819 l 1
 106 819 l 1
 103 707 l 1
 99 594 l 1
 89 581 l 2
 82 573 76 569 70 569 c 0
 63 569 55 574 44 585 c 2
EndSplineSet
Validated: 1
EndChar

StartChar: numbersign
Encoding: 35 35 35
Width: 722
Flags: HW
LayerCount: 2
Fore
SplineSet
177 31 m 0
 176 33 176 39 176 45 c 0
 176 63 179 92 183 123 c 0
 189 165 194 209 194 220 c 2
 194 240 l 1
 163 240 l 2
 113 240 43 261 36 278 c 0
 33 287 36 300 42 308 c 2
 53 322 l 1
 132 316 l 1
 211 309 l 1
 218 349 l 2
 222 371 225 399 225 412 c 2
 225 435 l 1
 149 435 l 2
 107 435 60 440 46 445 c 2
 20 455 l 1
 20 481 l 1
 20 506 l 1
 33 507 l 2
 37 507 51 508 71 508 c 0
 91 508 118 507 145 507 c 2
 243 505 l 1
 255 564 l 2
 285 717 304 768 333 768 c 0
 336 768 340 767 344 766 c 2
 358 760 l 1
 358 728 l 2
 358 710 348 657 337 609 c 0
 326 561 317 518 317 514 c 0
 317 509 333 507 352 507 c 0
 373 507 398 510 406 515 c 0
 413 519 429 568 440 623 c 0
 451 678 463 728 466 733 c 0
 470 739 478 742 487 742 c 0
 500 742 515 735 521 724 c 2
 530 705 l 1
 516 639 l 2
 508 603 499 562 496 550 c 2
 491 528 l 1
 596 525 l 1
 701 522 l 1
 701 496 l 1
 701 471 l 1
 589 460 l 1
 476 450 l 1
 464 390 l 1
 453 330 l 1
 531 338 l 2
 574 342 620 345 633 346 c 2
 657 348 l 1
 669 330 l 1
 680 312 l 1
 665 297 l 1
 650 282 l 1
 542 269 l 1
 435 256 l 1
 414 158 l 2
 390 46 385 35 357 35 c 0
 339 35 330 43 330 70 c 0
 330 89 334 116 342 155 c 0
 351 196 355 233 355 244 c 0
 355 248 355 248 344 248 c 0
 335 248 322 247 309 245 c 2
 268 238 l 1
 256 144 l 2
 249 93 239 43 234 33 c 0
 228 22 215 16 203 16 c 0
 192 16 181 21 177 31 c 0
345 318 m 2
 377 324 l 1
 388 369 l 2
 394 393 399 420 399 428 c 2
 399 443 l 1
 355 438 l 2
 331 435 309 430 305 426 c 0
 301 422 295 396 291 366 c 2
 284 312 l 1
 299 312 l 2
 307 312 328 315 345 318 c 2
EndSplineSet
Validated: 1
EndChar

StartChar: dollar
Encoding: 36 36 36
Width: 589
Flags: HW
LayerCount: 2
Fore
SplineSet
249 -143 m 0
 243 -136 237 -103 235 -70 c 2
 232 -9 l 1
 167 4 l 2
 90 20 44 47 44 74 c 0
 44 81 47 88 54 95 c 2
 69 110 l 1
 122 90 l 2
 151 79 190 69 208 69 c 2
 240 69 l 1
 233 117 l 2
 229 143 227 197 227 237 c 2
 227 310 l 1
 158 330 l 1
 89 349 l 1
 55 382 l 1
 22 415 l 1
 22 460 l 1
 22 505 l 1
 48 558 l 1
 74 610 l 1
 127 646 l 2
 156 666 194 685 209 689 c 2
 237 696 l 1
 237 739 l 2
 237 763 244 791 251 801 c 2
 264 819 l 1
 286 812 l 1
 309 805 l 1
 309 757 l 1
 309 708 l 1
 371 707 l 1
 434 705 l 1
 458 689 l 1
 483 673 l 1
 483 647 l 2
 483 626 475 616 459 616 c 0
 450 616 438 620 423 627 c 0
 406 636 373 643 351 643 c 2
 311 643 l 1
 304 509 l 1
 296 375 l 1
 305 367 l 2
 310 363 341 351 375 341 c 0
 455 317 517 282 545 243 c 2
 567 212 l 1
 568 176 l 1
 569 141 l 1
 548 113 l 2
 520 76 463 43 378 17 c 2
 309 -5 l 1
 309 -64 l 1
 309 -124 l 1
 293 -140 l 2
 283 -150 275 -155 268 -155 c 0
 262 -155 256 -151 249 -143 c 0
414 102 m 0
 441 113 472 134 483 148 c 2
 503 174 l 1
 492 193 l 2
 477 220 442 242 365 270 c 2
 298 294 l 1
 298 181 l 1
 298 68 l 1
 332 75 l 2
 350 79 387 91 414 102 c 0
230 440 m 2
 234 470 237 523 237 558 c 2
 237 622 l 1
 226 622 l 2
 220 622 195 609 171 592 c 2
 127 562 l 1
 110 526 l 2
 99 504 94 483 94 466 c 0
 94 449 99 436 109 428 c 0
 125 415 193 388 213 387 c 2
 224 387 l 1
 230 440 l 2
EndSplineSet
Validated: 1
EndChar

StartChar: percent
Encoding: 37 37 37
Width: 752
Flags: HW
LayerCount: 2
Fore
SplineSet
60 508 m 1
 32 532 l 1
 27 590 l 1
 22 649 l 1
 35 694 l 2
 58 775 138 848 225 867 c 0
 234 869 242 870 250 870 c 0
 281 870 305 853 342 808 c 2
 383 759 l 1
 383 713 l 2
 383 688 376 651 367 632 c 0
 346 588 281 529 226 504 c 2
 183 485 l 1
 135 485 l 1
 87 484 l 1
 60 508 l 1
225 584 m 0
 276 616 315 670 315 710 c 0
 315 747 315 747 252 770 c 2
 200 789 l 1
 170 771 l 1
 140 753 l 1
 118 706 l 1
 95 660 l 1
 95 616 l 1
 94 573 l 1
 112 560 l 1
 130 546 l 1
 157 552 l 2
 172 555 202 570 225 584 c 0
62 20 m 0
 59 23 56 27 56 31 c 0
 56 50 97 98 253 332 c 0
 367 503 441 631 468 679 c 0
 495 727 504 740 525 777 c 2
 563 844 l 1
 588 844 l 1
 614 844 l 1
 617 821 l 1
 620 799 l 1
 557 692 l 2
 505 603 431 482 391 423 c 0
 351 364 307 288 244 192 c 0
 181 96 131 49 122 36 c 0
 111 21 95 13 81 13 c 0
 74 13 67 15 62 20 c 0
412 -2 m 2
 397 6 376 29 364 48 c 2
 342 82 l 1
 342 139 l 1
 342 195 l 1
 383 256 l 2
 405 290 443 330 465 346 c 2
 506 374 l 1
 551 379 l 1
 597 384 l 1
 654 347 l 2
 721 303 731 286 731 226 c 2
 731 182 l 1
 696 126 l 1
 661 70 l 1
 608 29 l 1
 555 -11 l 1
 497 -14 l 1
 439 -18 l 1
 412 -2 l 2
552 75 m 0
 596 102 625 135 648 187 c 2
 668 232 l 1
 659 249 l 2
 654 258 635 269 617 273 c 0
 599 277 576 287 566 296 c 2
 549 312 l 1
 518 296 l 2
 477 275 426 212 412 166 c 2
 401 129 l 1
 415 99 l 2
 429 70 461 49 488 49 c 0
 493 49 497 50 501 51 c 0
 512 54 535 65 552 75 c 0
EndSplineSet
Validated: 1
EndChar

StartChar: ampersand
Encoding: 38 38 38
Width: 838
Flags: HW
LayerCount: 2
Fore
SplineSet
93 15 m 2
 49 37 l 1
 34 66 l 2
 25 83 21 101 21 122 c 0
 21 174 50 241 113 338 c 2
 155 402 l 1
 123 465 l 1
 91 529 l 1
 91 591 l 1
 91 654 l 1
 111 687 l 2
 122 705 150 733 173 750 c 2
 215 780 l 1
 271 792 l 2
 292 796 311 799 327 799 c 0
 364 799 389 787 408 764 c 0
 421 748 427 732 427 713 c 0
 427 671 395 612 317 504 c 0
 283 457 255 413 255 406 c 0
 255 392 458 229 476 229 c 0
 483 229 553 295 631 377 c 0
 709 459 778 526 785 526 c 0
 792 526 801 517 807 506 c 2
 818 487 l 1
 789 447 l 2
 773 425 711 358 650 297 c 0
 590 237 543 187 543 183 c 0
 543 178 650 118 687 106 c 0
 708 99 727 87 730 78 c 0
 731 75 732 71 732 68 c 0
 732 50 714 34 691 34 c 0
 668 34 567 81 516 115 c 2
 485 135 l 1
 411 85 l 1
 336 35 l 1
 269 14 l 2
 227 1 197 -5 171 -5 c 0
 144 -5 121 1 93 15 c 2
282 92 m 0
 327 111 409 165 409 176 c 0
 409 180 385 202 356 224 c 0
 327 246 284 282 260 303 c 0
 236 324 213 341 208 341 c 0
 196 341 127 235 106 184 c 0
 98 165 93 141 93 125 c 0
 93 123 93 120 93 118 c 2
 96 91 l 1
 122 77 l 1
 147 64 l 1
 195 70 l 2
 221 73 261 83 282 92 c 0
266 554 m 0
 328 639 354 684 354 708 c 0
 354 711 354 715 353 717 c 2
 347 733 l 1
 305 726 l 2
 253 718 216 699 183 664 c 2
 158 637 l 1
 159 594 l 2
 160 550 187 474 201 474 c 0
 206 474 235 510 266 554 c 0
EndSplineSet
Validated: 1
EndChar

StartChar: quotesingle
Encoding: 39 39 39
Width: 134
Flags: HW
LayerCount: 2
Fore
SplineSet
44 585 m 2
 27 603 l 1
 34 675 l 2
 38 715 44 763 48 783 c 2
 56 819 l 1
 81 819 l 1
 106 819 l 1
 103 707 l 1
 99 594 l 1
 89 581 l 2
 82 573 76 569 70 569 c 0
 63 569 55 574 44 585 c 2
EndSplineSet
Validated: 1
EndChar

StartChar: parenleft
Encoding: 40 40 40
Width: 404
Flags: HW
LayerCount: 2
Fore
SplineSet
243 44 m 0
 177 77 83 170 53 232 c 2
 29 280 l 1
 25 367 l 1
 22 454 l 1
 42 518 l 2
 70 607 125 701 186 765 c 2
 239 819 l 1
 261 816 l 2
 273 814 287 805 293 796 c 2
 304 779 l 1
 252 729 l 2
 189 667 152 610 119 522 c 2
 94 455 l 1
 93 393 l 2
 93 390 93 387 93 384 c 0
 93 278 128 215 225 140 c 2
 282 97 l 1
 329 91 l 1
 377 86 l 1
 380 66 l 1
 384 46 l 1
 366 33 l 2
 354 24 340 20 324 20 c 0
 302 20 276 28 243 44 c 0
EndSplineSet
Validated: 1
EndChar

StartChar: parenright
Encoding: 41 41 41
Width: 301
Flags: HW
LayerCount: 2
Fore
SplineSet
26 36 m 1
 20 52 l 1
 71 100 l 1
 123 147 l 1
 150 201 l 2
 165 230 184 281 192 313 c 0
 202 351 207 395 207 439 c 0
 207 567 168 703 108 752 c 2
 82 773 l 1
 86 793 l 1
 90 813 l 1
 117 816 l 1
 143 819 l 1
 180 776 l 2
 242 703 278 576 278 448 c 0
 278 395 272 342 259 292 c 0
 233 190 195 122 134 65 c 2
 85 19 l 1
 59 19 l 1
 33 19 l 1
 26 36 l 1
EndSplineSet
Validated: 1
EndChar

StartChar: asterisk
Encoding: 42 42 42
Width: 422
Flags: HW
LayerCount: 2
Fore
SplineSet
187 529 m 0
 183 533 180 552 180 571 c 2
 180 607 l 1
 157 599 l 2
 144 595 118 591 98 590 c 2
 62 589 l 1
 58 609 l 1
 54 628 l 1
 71 640 l 1
 87 652 l 1
 56 674 l 1
 26 697 l 1
 26 717 l 2
 26 728 34 741 43 744 c 2
 59 751 l 1
 113 724 l 2
 139 711 162 703 170 703 c 0
 171 703 173 704 173 704 c 0
 176 707 180 727 180 748 c 0
 180 798 188 819 209 819 c 0
 235 819 251 799 251 766 c 2
 251 737 l 1
 294 758 l 1
 336 780 l 1
 352 764 l 1
 369 747 l 1
 358 729 l 2
 352 719 331 702 313 689 c 2
 279 666 l 1
 294 661 l 2
 302 659 326 653 349 648 c 2
 390 639 l 1
 393 612 l 1
 396 585 l 1
 377 580 l 2
 374 579 369 579 363 579 c 0
 351 579 334 581 318 584 c 0
 295 589 269 594 260 594 c 2
 242 594 l 1
 239 561 l 1
 236 527 l 1
 215 524 l 2
 204 522 191 525 187 529 c 0
EndSplineSet
Validated: 1
EndChar

StartChar: plus
Encoding: 43 43 43
Width: 576
Flags: HW
LayerCount: 2
Fore
SplineSet
252 343 m 0
 249 347 248 366 248 391 c 0
 248 404 248 418 249 432 c 2
 252 510 l 1
 158 507 l 2
 144 506 130 506 117 506 c 0
 81 506 52 508 43 511 c 2
 22 518 l 1
 22 536 l 2
 22 546 28 560 35 566 c 2
 49 577 l 1
 156 580 l 1
 263 583 l 1
 266 692 l 1
 268 801 l 1
 282 812 l 2
 290 818 303 821 312 818 c 2
 329 811 l 1
 335 775 l 2
 337 763 339 739 339 714 c 0
 339 697 338 680 337 664 c 2
 331 589 l 1
 440 591 l 1
 549 593 l 1
 553 574 l 2
 554 571 554 568 554 565 c 0
 554 541 528 533 437 526 c 0
 383 522 336 516 333 513 c 0
 330 510 323 473 318 430 c 0
 313 387 306 348 303 342 c 0
 299 336 289 332 278 332 c 0
 267 332 256 336 252 343 c 0
EndSplineSet
Validated: 1
EndChar

StartChar: comma
Encoding: 44 44 44
Width: 248
Flags: HW
LayerCount: 2
Fore
SplineSet
29 -169 m 2
 27 -163 26 -158 26 -153 c 0
 26 -136 39 -123 64 -118 c 0
 81 -114 105 -101 117 -88 c 2
 140 -63 l 1
 145 -23 l 1
 151 18 l 1
 133 55 l 2
 125 72 121 86 121 97 c 0
 121 114 131 123 151 123 c 2
 175 123 l 1
 193 92 l 2
 203 75 213 36 216 7 c 2
 221 -46 l 1
 198 -92 l 1
 174 -138 l 1
 139 -161 l 1
 104 -184 l 1
 70 -184 l 1
 35 -184 l 1
 29 -169 l 2
EndSplineSet
Validated: 1
EndChar

StartChar: hyphen
Encoding: 45 45 45
Width: 462
Flags: HW
LayerCount: 2
Fore
SplineSet
77 385 m 0
 58 389 39 399 34 406 c 2
 26 420 l 1
 35 435 l 1
 44 451 l 1
 231 448 l 2
 334 446 423 441 428 436 c 0
 433 431 435 419 433 409 c 2
 429 390 l 1
 373 383 l 2
 337 379 281 377 226 377 c 0
 162 377 100 380 77 385 c 0
EndSplineSet
Validated: 1
EndChar

StartChar: period
Encoding: 46 46 46
Width: 179
Flags: HW
LayerCount: 2
Fore
SplineSet
51 -18 m 2
 28 -2 l 1
 28 23 l 1
 28 48 l 1
 54 65 l 1
 80 82 l 1
 116 65 l 1
 151 48 l 1
 151 28 l 2
 151 2 117 -34 92 -34 c 0
 82 -34 64 -27 51 -18 c 2
EndSplineSet
Validated: 1
EndChar

StartChar: slash
Encoding: 47 47 47
Width: 665
Flags: HW
LayerCount: 2
Fore
SplineSet
26 1 m 0
 22 5 20 10 20 17 c 0
 20 39 45 80 112 175 c 0
 242 358 385 534 502 655 c 2
 601 758 l 1
 620 746 l 2
 630 740 640 728 642 719 c 2
 645 703 l 1
 541 593 l 2
 417 461 287 300 164 126 c 2
 74 0 l 1
 54 -3 l 2
 43 -5 30 -3 26 1 c 0
EndSplineSet
Validated: 1
EndChar

StartChar: zero
Encoding: 48 48 48
Width: 792
Flags: HW
LayerCount: 2
Fore
SplineSet
279 -32 m 2
 138 14 52 119 30 274 c 2
 21 338 l 1
 31 425 l 1
 42 512 l 1
 87 606 l 1
 133 700 l 1
 184 752 l 1
 235 805 l 1
 294 832 l 1
 353 860 l 1
 435 860 l 1
 517 860 l 1
 570 842 l 2
 599 832 642 810 665 793 c 2
 706 763 l 1
 728 721 l 2
 740 698 751 655 753 626 c 0
 755 597 760 530 764 476 c 2
 770 379 l 1
 754 311 l 2
 719 162 637 38 539 -12 c 2
 486 -39 l 1
 405 -42 l 1
 323 -46 l 1
 279 -32 l 2
497 46 m 0
 573 79 643 178 681 307 c 2
 699 369 l 1
 700 446 l 1
 701 522 l 1
 678 572 l 1
 655 622 l 1
 563 511 l 2
 485 416 246 78 246 61 c 0
 246 53 295 36 343 26 c 0
 358 23 373 22 388 22 c 0
 423 22 459 30 497 46 c 0
282 248 m 0
 332 325 431 457 500 542 c 0
 569 627 629 703 632 710 c 0
 633 713 634 715 634 718 c 0
 634 736 607 753 546 773 c 0
 506 786 472 793 440 793 c 0
 412 793 384 788 351 778 c 2
 299 763 l 1
 249 718 l 1
 200 673 l 1
 161 601 l 1
 122 529 l 1
 107 459 l 2
 97 414 93 378 93 343 c 0
 93 313 96 284 103 253 c 0
 114 203 166 108 182 108 c 0
 187 108 232 171 282 248 c 0
EndSplineSet
Validated: 1
EndChar

StartChar: one
Encoding: 49 49 49
Width: 566
Flags: HW
LayerCount: 2
Fore
SplineSet
405 -37 m 2
 387 -23 l 1
 409 109 l 2
 421 182 438 317 446 410 c 0
 454 503 464 613 468 655 c 2
 475 731 l 1
 440 709 l 2
 230 581 108 519 62 518 c 2
 27 517 l 1
 23 540 l 1
 20 563 l 1
 85 593 l 2
 121 609 227 666 320 720 c 0
 413 774 496 819 504 819 c 0
 512 819 524 814 531 807 c 2
 544 795 l 1
 544 743 l 2
 544 715 539 652 534 604 c 0
 529 556 517 439 508 343 c 0
 494 191 472 31 456 -22 c 0
 452 -37 441 -46 428 -46 c 0
 421 -46 413 -43 405 -37 c 2
EndSplineSet
Validated: 1
EndChar

StartChar: two
Encoding: 50 50 50
Width: 683
Flags: HW
LayerCount: 2
Fore
SplineSet
89 23 m 1
 63 36 l 1
 60 58 l 1
 57 80 l 1
 146 124 l 2
 310 204 440 316 504 432 c 2
 534 486 l 1
 534 570 l 1
 534 654 l 1
 513 683 l 2
 501 699 473 720 451 731 c 2
 411 751 l 1
 355 750 l 1
 298 749 l 1
 240 728 l 2
 161 698 134 673 98 602 c 2
 67 541 l 1
 45 545 l 1
 22 548 l 1
 23 586 l 1
 24 625 l 1
 61 680 l 1
 98 736 l 1
 142 761 l 2
 204 797 287 819 361 819 c 2
 424 819 l 1
 464 803 l 2
 486 794 517 777 533 765 c 2
 562 744 l 1
 588 688 l 1
 613 633 l 1
 609 558 l 1
 604 484 l 1
 573 419 l 2
 556 383 522 329 498 299 c 0
 454 245 327 141 265 109 c 0
 247 100 232 87 232 82 c 2
 232 72 l 1
 281 72 l 2
 308 72 399 76 483 81 c 0
 535 84 585 86 616 86 c 0
 635 86 647 85 650 84 c 2
 663 79 l 1
 660 52 l 1
 657 26 l 1
 585 19 l 2
 546 15 424 13 314 12 c 2
 114 11 l 1
 89 23 l 1
EndSplineSet
Validated: 1
EndChar

StartChar: three
Encoding: 51 51 51
Width: 671
Flags: HW
LayerCount: 2
Fore
SplineSet
209 66 m 0
 141 77 86 111 86 142 c 0
 86 158 93 166 111 166 c 0
 125 166 145 161 172 151 c 2
 229 131 l 1
 319 131 l 2
 368 131 427 136 449 142 c 2
 490 153 l 1
 524 188 l 1
 559 222 l 1
 555 256 l 1
 552 289 l 1
 502 320 l 1
 451 351 l 1
 374 351 l 1
 296 351 l 1
 296 376 l 1
 296 401 l 1
 322 414 l 2
 336 421 370 435 397 444 c 0
 457 465 524 513 555 560 c 2
 578 595 l 1
 578 633 l 1
 578 671 l 1
 553 697 l 2
 524 728 470 744 409 744 c 0
 352 744 289 730 235 702 c 0
 196 682 138 620 102 563 c 2
 75 519 l 1
 59 522 l 2
 50 524 37 533 31 543 c 2
 20 561 l 1
 39 596 l 2
 49 615 80 657 107 687 c 2
 157 742 l 1
 218 770 l 2
 252 785 308 802 342 808 c 2
 404 819 l 1
 458 812 l 2
 487 808 532 796 557 783 c 2
 602 760 l 1
 626 715 l 1
 649 670 l 1
 649 634 l 2
 649 581 608 501 559 456 c 0
 536 435 512 418 506 418 c 0
 499 418 495 416 495 413 c 0
 495 406 512 393 543 377 c 0
 598 348 629 304 629 254 c 2
 629 218 l 1
 606 177 l 2
 593 155 564 124 542 108 c 2
 501 80 l 1
 446 69 l 2
 415 63 361 60 309 60 c 0
 269 60 232 62 209 66 c 0
EndSplineSet
Validated: 1
EndChar

StartChar: four
Encoding: 52 52 52
Width: 771
Flags: HW
LayerCount: 2
Fore
SplineSet
366 46 m 2
 348 59 l 1
 355 140 l 2
 359 184 366 255 370 297 c 0
 372 323 374 348 374 364 c 0
 374 374 374 380 372 382 c 0
 371 383 368 383 364 383 c 0
 343 383 285 376 219 364 c 2
 73 338 l 1
 54 349 l 2
 43 355 32 369 28 381 c 2
 21 402 l 1
 83 527 l 2
 152 665 239 811 256 817 c 0
 262 819 274 813 283 804 c 2
 300 787 l 1
 294 765 l 2
 290 753 265 708 238 666 c 0
 211 624 170 551 147 505 c 2
 105 420 l 1
 118 420 l 2
 141 420 361 459 370 465 c 0
 375 468 381 543 385 631 c 2
 392 792 l 1
 403 806 l 2
 410 815 421 819 432 819 c 0
 444 819 456 814 462 803 c 2
 471 786 l 1
 462 749 l 2
 457 729 453 660 453 597 c 2
 453 482 l 1
 471 482 l 2
 481 482 526 489 571 497 c 0
 616 505 672 512 695 512 c 2
 738 513 l 1
 744 495 l 1
 751 478 l 1
 738 465 l 1
 724 451 l 1
 586 428 l 1
 448 405 l 1
 442 318 l 2
 433 201 422 93 417 66 c 0
 413 48 403 37 389 37 c 0
 382 37 374 40 366 46 c 2
EndSplineSet
Validated: 1
EndChar

StartChar: five
Encoding: 53 53 53
Width: 697
Flags: HW
LayerCount: 2
Fore
SplineSet
92 -1 m 0
 44 15 21 31 21 51 c 0
 21 70 27 78 50 78 c 0
 66 78 91 74 129 66 c 2
 215 48 l 1
 288 60 l 2
 328 67 389 85 424 101 c 2
 487 130 l 1
 546 186 l 1
 605 241 l 1
 605 270 l 2
 605 312 589 334 538 364 c 0
 471 403 386 427 262 441 c 2
 153 453 l 1
 113 440 l 1
 73 427 l 1
 57 440 l 1
 41 453 l 1
 42 577 l 1
 42 701 l 1
 62 734 l 2
 100 797 186 819 401 819 c 2
 531 819 l 1
 537 802 l 1
 544 785 l 1
 529 770 l 1
 515 756 l 1
 352 747 l 2
 184 738 162 735 131 709 c 2
 113 693 l 1
 113 609 l 1
 113 526 l 1
 244 513 l 2
 316 506 398 493 428 485 c 0
 485 470 585 422 621 392 c 0
 652 366 676 315 676 274 c 2
 676 240 l 1
 647 194 l 2
 611 137 527 71 435 29 c 2
 364 -4 l 1
 241 -7 l 2
 226 -7 212 -8 198 -8 c 0
 147 -8 103 -5 92 -1 c 0
EndSplineSet
Validated: 1
EndChar

StartChar: six
Encoding: 54 54 54
Width: 643
Flags: HW
LayerCount: 2
Fore
SplineSet
249 -27 m 2
 173 4 134 33 98 85 c 0
 57 144 33 217 27 307 c 2
 22 384 l 1
 39 451 l 2
 48 488 72 550 91 589 c 2
 126 661 l 1
 179 715 l 1
 232 770 l 1
 285 795 l 1
 337 819 l 1
 392 819 l 1
 446 819 l 1
 482 802 l 2
 523 783 545 752 545 718 c 0
 545 715 545 713 545 710 c 2
 542 681 l 1
 519 678 l 1
 497 675 l 1
 481 705 l 1
 465 736 l 1
 430 747 l 1
 395 759 l 1
 366 752 l 2
 286 733 207 661 155 558 c 0
 124 496 96 407 96 367 c 2
 96 338 l 1
 159 369 l 2
 194 386 255 408 295 416 c 2
 368 432 l 1
 424 426 l 2
 455 423 503 408 531 394 c 2
 583 370 l 1
 602 337 l 1
 621 305 l 1
 620 240 l 1
 620 175 l 1
 599 128 l 2
 587 102 564 63 547 41 c 2
 516 2 l 1
 463 -25 l 1
 410 -51 l 1
 358 -51 l 1
 306 -51 l 1
 249 -27 l 2
452 50 m 2
 503 87 532 134 548 202 c 2
 560 254 l 1
 547 286 l 1
 534 318 l 1
 505 333 l 2
 489 341 449 352 416 355 c 2
 357 361 l 1
 292 344 l 2
 256 335 199 313 166 295 c 2
 106 263 l 1
 107 242 l 2
 107 230 118 197 131 168 c 2
 155 116 l 1
 194 84 l 2
 242 44 301 22 363 21 c 2
 411 21 l 1
 452 50 l 2
EndSplineSet
Validated: 1
EndChar

StartChar: seven
Encoding: 55 55 55
Width: 854
Flags: HW
LayerCount: 2
Fore
SplineSet
156 50 m 0
 152 54 150 58 150 64 c 0
 150 82 171 113 229 180 c 0
 313 279 364 344 364 353 c 0
 364 356 306 361 236 365 c 0
 101 372 60 382 50 408 c 2
 44 424 l 1
 58 438 l 1
 73 453 l 1
 134 443 l 2
 168 438 245 433 307 431 c 2
 419 427 l 1
 512 546 l 2
 563 611 620 685 639 708 c 2
 673 750 l 1
 542 749 l 2
 470 748 344 745 262 741 c 0
 218 739 173 738 136 738 c 0
 104 738 79 739 67 740 c 2
 21 745 l 1
 21 770 l 1
 21 796 l 1
 277 809 l 2
 397 815 528 819 598 819 c 0
 610 819 621 819 629 819 c 2
 725 815 l 1
 739 796 l 2
 748 784 754 777 754 766 c 0
 754 740 718 696 592 535 c 0
 551 483 518 436 518 431 c 2
 518 422 l 1
 672 422 l 1
 825 422 l 1
 831 407 l 2
 832 404 832 401 832 398 c 0
 832 390 830 382 825 376 c 2
 812 361 l 1
 642 361 l 2
 548 361 466 357 460 353 c 0
 454 349 418 304 380 253 c 0
 277 116 204 45 169 45 c 0
 164 45 160 46 156 50 c 0
EndSplineSet
Validated: 1
EndChar

StartChar: eight
Encoding: 56 56 56
Width: 659
Flags: HW
LayerCount: 2
Fore
SplineSet
240 -37 m 0
 178 -20 123 14 90 58 c 2
 63 94 l 1
 58 148 l 1
 54 203 l 1
 66 241 l 1
 79 280 l 1
 159 364 l 1
 240 447 l 1
 180 464 l 2
 110 484 65 518 40 571 c 2
 22 609 l 1
 23 652 l 1
 23 696 l 1
 46 732 l 2
 92 806 201 860 306 860 c 2
 369 860 l 1
 409 839 l 2
 431 827 460 806 473 792 c 2
 496 767 l 1
 496 729 l 1
 496 691 l 1
 465 625 l 2
 448 588 421 543 407 524 c 0
 394 507 385 492 385 489 c 0
 385 488 421 469 459 451 c 0
 535 413 589 367 615 316 c 0
 630 288 638 232 638 185 c 0
 638 168 637 152 635 139 c 2
 628 102 l 1
 591 65 l 2
 549 23 455 -23 375 -40 c 0
 345 -47 326 -50 309 -50 c 0
 290 -50 272 -46 240 -37 c 0
462 66 m 1
 536 101 l 1
 553 128 l 1
 571 155 l 1
 570 200 l 1
 570 246 l 1
 550 284 l 1
 530 323 l 1
 477 360 l 2
 448 381 403 405 378 413 c 2
 332 429 l 1
 261 367 l 2
 177 294 146 255 129 203 c 2
 116 166 l 1
 131 130 l 2
 147 91 201 45 247 30 c 0
 258 27 279 25 301 25 c 0
 311 25 322 25 332 26 c 2
 389 31 l 1
 462 66 l 1
344 556 m 2
 384 610 424 694 424 723 c 0
 424 755 402 769 341 773 c 0
 311 775 278 779 269 783 c 2
 252 790 l 1
 208 770 l 2
 184 759 149 738 131 723 c 2
 98 696 l 1
 92 666 l 1
 85 636 l 1
 102 605 l 2
 111 588 129 566 144 556 c 0
 173 537 252 514 289 513 c 2
 312 512 l 1
 344 556 l 2
EndSplineSet
Validated: 1
EndChar

StartChar: nine
Encoding: 57 57 57
Width: 679
Flags: HW
LayerCount: 2
Fore
SplineSet
41 -28 m 1
 22 -14 l 1
 26 6 l 1
 30 26 l 1
 239 32 l 2
 354 35 480 39 518 40 c 2
 587 41 l 1
 587 177 l 2
 587 315 570 598 561 624 c 2
 556 638 l 1
 528 600 l 2
 491 550 424 498 353 464 c 2
 296 437 l 1
 219 433 l 1
 142 429 l 1
 106 447 l 2
 86 457 60 482 47 501 c 2
 24 536 l 1
 24 578 l 2
 24 636 54 694 111 751 c 0
 189 829 293 870 410 870 c 2
 475 870 l 1
 534 850 l 2
 566 839 600 820 610 808 c 2
 628 786 l 1
 622 763 l 2
 621 760 621 754 621 747 c 0
 621 727 624 696 628 665 c 0
 640 582 656 216 656 76 c 0
 656 50 655 31 654 24 c 0
 650 5 641 -14 631 -19 c 0
 621 -24 489 -32 337 -36 c 2
 60 -43 l 1
 41 -28 l 1
241 503 m 0
 378 532 500 639 522 747 c 2
 528 778 l 1
 499 789 l 2
 483 795 443 800 410 800 c 2
 350 800 l 1
 285 778 l 1
 220 757 l 1
 175 717 l 2
 124 672 96 622 96 576 c 2
 96 546 l 1
 114 529 l 2
 128 516 159 500 185 492 c 0
 186 492 211 497 241 503 c 0
EndSplineSet
Validated: 1
EndChar

StartChar: colon
Encoding: 58 58 58
Width: 176
Flags: HW
LayerCount: 2
Fore
SplineSet
49 289 m 2
 26 305 l 1
 26 330 l 1
 26 355 l 1
 52 372 l 1
 78 389 l 1
 114 372 l 1
 149 356 l 1
 149 335 l 2
 149 309 115 273 90 273 c 0
 80 273 62 280 49 289 c 2
49 -8 m 2
 26 8 l 1
 26 33 l 1
 26 58 l 1
 52 75 l 1
 78 92 l 1
 114 75 l 1
 149 59 l 1
 149 38 l 2
 149 12 115 -24 90 -24 c 0
 80 -24 62 -17 49 -8 c 2
EndSplineSet
Validated: 1
EndChar

StartChar: semicolon
Encoding: 59 59 59
Width: 247
Flags: HW
LayerCount: 2
Fore
SplineSet
119 54 m 2
 96 70 l 1
 96 94 l 1
 96 119 l 1
 122 136 l 1
 149 154 l 1
 184 137 l 1
 219 120 l 1
 219 99 l 2
 219 73 185 38 160 38 c 0
 150 38 132 45 119 54 c 2
28 -316 m 2
 26 -310 25 -305 25 -300 c 0
 25 -283 38 -270 63 -265 c 0
 80 -261 104 -247 116 -234 c 2
 139 -210 l 1
 144 -169 l 1
 150 -129 l 1
 132 -92 l 2
 124 -75 120 -61 120 -50 c 0
 120 -33 130 -24 150 -24 c 2
 174 -24 l 1
 192 -55 l 2
 202 -72 212 -110 215 -139 c 2
 220 -193 l 1
 197 -239 l 1
 173 -285 l 1
 138 -308 l 1
 103 -331 l 1
 69 -331 l 1
 34 -331 l 1
 28 -316 l 2
EndSplineSet
Validated: 1
EndChar

StartChar: less
Encoding: 60 60 60
Width: 553
Flags: HW
LayerCount: 2
Fore
SplineSet
232 83 m 2
 58 134 22 152 22 184 c 0
 22 206 129 311 232 390 c 0
 316 454 486 563 502 563 c 0
 517 563 531 541 531 523 c 0
 531 520 531 518 530 515 c 0
 527 505 486 474 441 447 c 0
 355 395 259 325 168 247 c 2
 114 201 l 1
 130 192 l 2
 139 187 221 162 312 137 c 0
 502 85 508 81 508 55 c 2
 508 36 l 1
 457 34 l 1
 406 32 l 1
 232 83 l 2
EndSplineSet
Validated: 1
EndChar

StartChar: equal
Encoding: 61 61 61
Width: 610
Flags: HW
LayerCount: 2
Fore
SplineSet
53 313 m 2
 52 316 51 321 51 325 c 0
 51 333 53 341 57 347 c 2
 67 363 l 1
 283 366 l 1
 499 369 l 1
 515 352 l 1
 531 336 l 1
 520 316 l 1
 510 297 l 1
 285 297 l 1
 59 297 l 1
 53 313 l 2
39 169 m 1
 26 185 l 1
 42 201 l 1
 58 217 l 1
 298 222 l 1
 537 228 l 1
 560 215 l 1
 584 203 l 1
 580 181 l 1
 577 158 l 1
 315 156 l 1
 53 153 l 1
 39 169 l 1
EndSplineSet
Validated: 1
EndChar

StartChar: greater
Encoding: 62 62 62
Width: 560
Flags: HW
LayerCount: 2
Fore
SplineSet
77 -26 m 0
 70 -24 64 -10 64 4 c 2
 64 29 l 1
 128 69 l 2
 163 91 246 136 312 169 c 0
 378 202 432 230 432 234 c 0
 432 246 277 326 173 367 c 0
 117 389 60 413 47 422 c 2
 23 438 l 1
 23 463 l 1
 23 488 l 1
 45 500 l 1
 68 512 l 1
 85 490 l 1
 103 469 l 1
 187 437 l 2
 292 398 457 314 503 276 c 2
 538 247 l 1
 532 220 l 1
 525 194 l 1
 377 122 l 2
 296 83 205 35 175 16 c 0
 124 -16 104 -28 88 -28 c 0
 84 -28 80 -27 77 -26 c 0
EndSplineSet
Validated: 1
EndChar

StartChar: at
Encoding: 64 64 63
Width: 838
Flags: HW
LayerCount: 2
Fore
SplineSet
259 -16 m 0
 210 -3 135 34 103 61 c 0
 87 75 61 111 48 141 c 2
 24 195 l 1
 25 287 l 1
 25 379 l 1
 48 429 l 2
 60 457 86 499 105 522 c 2
 140 565 l 1
 200 596 l 2
 233 613 292 638 331 651 c 2
 403 675 l 1
 485 676 l 1
 567 676 l 1
 632 650 l 2
 668 636 710 612 726 598 c 2
 754 572 l 1
 767 527 l 1
 779 481 l 1
 774 417 l 1
 769 352 l 1
 739 305 l 2
 723 279 691 244 667 227 c 2
 623 196 l 1
 569 192 l 1
 514 187 l 1
 484 213 l 1
 454 238 l 1
 415 205 l 1
 376 171 l 1
 329 159 l 2
 312 154 292 152 275 152 c 0
 266 152 258 153 253 154 c 0
 220 161 176 209 166 248 c 2
 159 274 l 1
 176 328 l 1
 194 383 l 1
 244 428 l 1
 294 473 l 1
 351 491 l 1
 409 509 l 1
 442 503 l 2
 488 494 539 461 553 430 c 2
 565 403 l 1
 549 376 l 2
 540 361 530 332 526 311 c 2
 519 273 l 1
 538 263 l 1
 557 253 l 1
 592 268 l 2
 638 288 661 309 685 355 c 2
 705 393 l 1
 705 448 l 2
 705 478 699 513 692 527 c 2
 679 552 l 1
 613 581 l 1
 546 609 l 1
 493 609 l 1
 439 609 l 1
 343 579 l 2
 200 533 136 478 105 377 c 0
 96 347 92 314 92 282 c 0
 92 219 108 159 138 126 c 0
 148 114 179 95 206 81 c 2
 255 56 l 1
 336 45 l 1
 417 34 l 1
 490 45 l 1
 564 57 l 1
 620 84 l 2
 651 99 701 134 732 161 c 2
 789 211 l 1
 803 199 l 2
 811 192 818 177 818 166 c 2
 818 145 l 1
 777 107 l 2
 725 57 636 7 569 -11 c 2
 515 -25 l 1
 403 -24 l 2
 341 -23 276 -20 259 -16 c 0
332 235 m 0
 379 254 435 316 456 372 c 2
 473 417 l 1
 458 426 l 2
 449 432 437 435 424 435 c 0
 403 435 379 428 352 415 c 0
 296 388 267 362 249 319 c 0
 240 296 235 280 235 268 c 0
 235 255 240 246 250 236 c 0
 260 226 269 221 282 221 c 0
 294 221 310 226 332 235 c 0
EndSplineSet
Validated: 1
EndChar

StartChar: A
Encoding: 65 65 64
Width: 579
Flags: HW
LayerCount: 2
Fore
SplineSet
30 -11 m 0
 23 -8 19 -3 19 7 c 0
 19 28 36 72 80 172 c 0
 184 411 246 573 294 732 c 2
 318 812 l 1
 337 818 l 2
 340 819 344 819 347 819 c 0
 367 819 386 802 386 780 c 0
 386 770 400 701 418 626 c 0
 436 551 474 384 504 254 c 2
 557 18 l 1
 548 0 l 2
 542 -12 534 -18 524 -18 c 0
 518 -18 510 -15 502 -10 c 0
 495 -6 475 60 458 135 c 0
 441 210 424 275 421 280 c 0
 417 286 361 289 309 289 c 0
 265 289 224 287 216 282 c 0
 210 278 178 215 145 143 c 0
 89 17 71 -15 47 -15 c 0
 42 -15 36 -14 30 -11 c 0
406 366 m 2
 406 372 391 435 373 507 c 2
 340 637 l 1
 291 506 l 2
 264 434 243 371 243 366 c 2
 243 356 l 1
 325 356 l 1
 406 356 l 1
 406 366 l 2
EndSplineSet
Validated: 1
EndChar

StartChar: B
Encoding: 66 66 65
Width: 612
Flags: HW
LayerCount: 2
Fore
SplineSet
46 -10 m 1
 36 3 l 1
 29 393 l 1
 23 782 l 1
 33 796 l 1
 42 811 l 1
 107 815 l 1
 172 819 l 1
 247 803 l 2
 288 794 342 776 366 762 c 2
 409 736 l 1
 427 699 l 1
 445 661 l 1
 441 590 l 1
 437 518 l 1
 389 473 l 1
 341 428 l 1
 353 424 l 2
 360 422 394 412 428 403 c 0
 462 394 503 377 520 367 c 0
 564 340 586 294 586 246 c 0
 586 205 570 163 537 128 c 0
 471 58 309 3 141 -6 c 0
 113 -8 82 -12 73 -16 c 2
 57 -23 l 1
 46 -10 l 1
246 76 m 0
 349 97 446 137 485 173 c 2
 516 202 l 1
 513 246 l 1
 509 290 l 1
 468 312 l 2
 413 342 288 367 189 367 c 2
 108 367 l 1
 101 258 l 2
 97 198 95 131 95 110 c 2
 95 71 l 1
 113 67 l 2
 126 64 137 62 150 62 c 0
 171 62 198 66 246 76 c 0
255 476 m 0
 287 486 325 506 341 521 c 2
 370 548 l 1
 377 585 l 1
 384 622 l 1
 365 660 l 1
 346 699 l 1
 289 718 l 2
 258 729 202 740 164 743 c 2
 95 749 l 1
 95 597 l 1
 95 446 l 1
 146 452 l 2
 174 455 223 466 255 476 c 0
EndSplineSet
Validated: 1
EndChar

StartChar: C
Encoding: 67 67 66
Width: 670
Flags: HW
LayerCount: 2
Fore
SplineSet
390 -42 m 0
 359 -37 305 -20 270 -3 c 2
 206 27 l 1
 155 79 l 1
 104 132 l 1
 69 205 l 1
 34 279 l 1
 27 336 l 1
 20 392 l 1
 31 453 l 2
 56 588 151 727 259 782 c 2
 314 810 l 1
 393 814 l 1
 472 819 l 1
 519 806 l 1
 566 793 l 1
 602 759 l 1
 638 725 l 1
 635 708 l 2
 633 698 624 686 614 680 c 2
 596 669 l 1
 567 696 l 2
 528 733 489 747 416 747 c 2
 354 747 l 1
 314 730 l 2
 252 704 207 665 165 600 c 2
 127 541 l 1
 109 474 l 1
 91 407 l 1
 96 351 l 2
 99 320 114 269 128 238 c 2
 154 181 l 1
 209 127 l 1
 263 72 l 1
 324 49 l 1
 385 25 l 1
 457 24 l 2
 461 24 466 24 470 24 c 0
 508 24 555 28 581 32 c 2
 633 41 l 1
 640 22 l 1
 647 4 l 1
 629 -14 l 1
 611 -32 l 1
 544 -43 l 2
 507 -49 488 -52 469 -52 c 0
 449 -52 430 -49 390 -42 c 0
EndSplineSet
Validated: 1
EndChar

StartChar: D
Encoding: 68 68 67
Width: 694
Flags: HW
LayerCount: 2
Fore
SplineSet
31 -8 m 0
 31 -7 29 176 28 398 c 2
 26 801 l 1
 43 810 l 2
 52 815 103 819 156 819 c 2
 252 819 l 1
 313 804 l 2
 347 795 408 772 448 752 c 2
 521 716 l 1
 567 665 l 2
 592 637 623 593 636 567 c 2
 659 519 l 1
 664 445 l 1
 669 371 l 1
 647 300 l 2
 594 127 487 60 177 11 c 0
 76 -5 46 -10 36 -10 c 0
 32 -10 31 -9 31 -8 c 0
212 87 m 0
 262 96 339 114 383 129 c 2
 463 156 l 1
 507 198 l 1
 551 241 l 1
 573 302 l 1
 596 364 l 1
 596 422 l 1
 596 480 l 1
 571 534 l 2
 538 606 481 662 404 697 c 0
 337 728 213 757 150 757 c 0
 145 757 141 756 137 756 c 2
 98 753 l 1
 98 412 l 1
 98 72 l 1
 109 72 l 2
 115 72 162 78 212 87 c 0
EndSplineSet
Validated: 1
EndChar

StartChar: E
Encoding: 69 69 68
Width: 653
Flags: HW
LayerCount: 2
Fore
SplineSet
55 13 m 1
 40 30 l 1
 31 191 l 1
 22 351 l 1
 34 489 l 2
 42 586 46 652 46 698 c 0
 46 731 44 752 40 767 c 2
 33 794 l 1
 51 802 l 2
 61 807 187 812 329 815 c 2
 588 819 l 1
 603 807 l 2
 613 799 618 788 618 778 c 0
 618 766 612 756 600 752 c 0
 592 750 517 748 422 748 c 0
 402 748 381 748 359 748 c 2
 136 749 l 1
 128 739 l 2
 123 734 116 666 112 588 c 2
 104 447 l 1
 197 450 l 1
 291 452 l 1
 303 440 l 1
 316 427 l 1
 304 410 l 1
 293 392 l 1
 253 385 l 2
 231 381 187 377 155 377 c 2
 96 377 l 1
 97 313 l 2
 98 278 101 207 105 157 c 2
 111 66 l 1
 249 68 l 2
 325 69 435 77 492 85 c 0
 536 91 579 95 600 95 c 0
 606 95 611 95 613 94 c 2
 629 87 l 1
 626 60 l 1
 623 34 l 1
 546 21 l 2
 504 14 380 6 270 2 c 2
 70 -5 l 1
 55 13 l 1
EndSplineSet
Validated: 1
EndChar

StartChar: F
Encoding: 70 70 69
Width: 667
Flags: HW
LayerCount: 2
Fore
SplineSet
34 -16 m 0
 32 -11 29 170 28 388 c 2
 26 785 l 1
 43 802 l 1
 61 819 l 1
 122 813 l 2
 156 809 284 806 407 806 c 2
 631 806 l 1
 637 790 l 1
 644 773 l 1
 619 753 l 1
 594 733 l 1
 346 736 l 1
 98 740 l 1
 98 584 l 1
 98 428 l 1
 208 427 l 2
 269 426 329 422 343 418 c 2
 369 411 l 1
 372 389 l 1
 375 368 l 1
 357 358 l 1
 338 349 l 1
 245 359 l 2
 214 363 182 364 158 364 c 0
 142 364 130 364 124 362 c 2
 98 356 l 1
 95 169 l 1
 93 -18 l 1
 65 -21 l 2
 61 -22 58 -22 54 -22 c 0
 44 -22 35 -20 34 -16 c 0
EndSplineSet
Validated: 1
EndChar

StartChar: G
Encoding: 71 71 70
Width: 898
Flags: HW
LayerCount: 2
Fore
SplineSet
427 -46 m 0
 370 -38 286 -11 224 20 c 2
 163 51 l 1
 111 104 l 1
 59 157 l 1
 39 211 l 1
 20 266 l 1
 26 347 l 1
 31 428 l 1
 61 492 l 2
 144 669 278 775 463 809 c 2
 519 819 l 1
 582 813 l 2
 616 810 667 799 693 790 c 2
 741 774 l 1
 790 724 l 2
 836 677 860 637 860 609 c 0
 860 593 852 581 835 574 c 2
 818 568 l 1
 807 586 l 2
 745 689 686 732 587 742 c 2
 525 748 l 1
 461 736 l 2
 426 729 371 712 340 697 c 2
 284 670 l 1
 226 611 l 1
 168 552 l 1
 135 484 l 1
 101 416 l 1
 97 337 l 1
 92 258 l 1
 113 217 l 2
 157 131 258 66 397 33 c 2
 468 16 l 1
 531 22 l 2
 684 36 783 118 798 245 c 2
 804 298 l 1
 718 289 l 2
 671 284 605 280 571 280 c 2
 510 279 l 1
 506 298 l 2
 504 308 507 322 512 327 c 0
 524 339 721 364 799 364 c 0
 804 364 810 364 814 364 c 2
 868 361 l 1
 868 285 l 1
 868 208 l 1
 848 158 l 2
 799 30 660 -51 496 -51 c 0
 473 -51 450 -49 427 -46 c 0
EndSplineSet
Validated: 1
EndChar

StartChar: H
Encoding: 72 72 71
Width: 666
Flags: HW
LayerCount: 2
Fore
SplineSet
33 -10 m 0
 29 -3 27 132 27 281 c 0
 27 430 29 593 33 656 c 0
 37 715 45 772 50 782 c 2
 60 801 l 1
 82 798 l 1
 104 794 l 1
 104 728 l 2
 104 691 101 602 96 529 c 2
 87 397 l 1
 157 404 l 2
 195 408 299 413 387 417 c 2
 547 424 l 1
 553 589 l 2
 559 758 567 802 595 813 c 2
 611 819 l 1
 626 804 l 1
 641 789 l 1
 634 756 l 2
 630 738 627 565 627 372 c 2
 627 20 l 1
 602 23 l 1
 577 26 l 1
 569 54 l 2
 565 69 559 143 555 220 c 2
 547 360 l 1
 469 354 l 2
 426 351 348 347 294 344 c 0
 240 341 175 335 148 332 c 2
 99 326 l 1
 99 179 l 2
 99 98 94 21 89 7 c 2
 79 -20 l 1
 59 -20 l 2
 48 -20 36 -15 33 -10 c 0
EndSplineSet
Validated: 1
EndChar

StartChar: I
Encoding: 73 73 72
Width: 766
Flags: HW
LayerCount: 2
Fore
SplineSet
35 79 m 0
 26 84 21 97 21 109 c 0
 21 120 25 130 33 133 c 0
 40 136 111 141 190 145 c 2
 333 153 l 1
 332 196 l 2
 332 220 331 356 330 497 c 2
 328 754 l 1
 192 752 l 2
 139 751 90 751 63 751 c 0
 52 751 45 751 43 751 c 2
 29 752 l 1
 33 780 l 1
 36 808 l 1
 103 816 l 2
 123 818 171 819 233 819 c 0
 286 819 350 818 412 817 c 2
 655 811 l 1
 673 797 l 1
 691 784 l 1
 680 765 l 1
 669 747 l 1
 531 746 l 1
 394 745 l 1
 392 608 l 2
 392 595 392 580 392 564 c 0
 392 487 394 384 397 312 c 2
 405 153 l 1
 562 153 l 1
 720 153 l 1
 731 135 l 1
 742 118 l 1
 729 104 l 1
 716 91 l 1
 550 85 l 2
 357 78 216 74 130 74 c 0
 73 74 41 76 35 79 c 0
EndSplineSet
Validated: 1
EndChar

StartChar: J
Encoding: 74 74 73
Width: 716
Flags: HW
LayerCount: 2
Fore
SplineSet
131 45 m 0
 111 52 60 100 47 123 c 2
 37 142 l 1
 49 156 l 2
 57 165 65 170 74 170 c 0
 87 170 101 160 120 140 c 2
 149 110 l 1
 188 110 l 1
 226 110 l 1
 269 135 l 2
 322 166 361 225 382 302 c 2
 398 361 l 1
 398 460 l 2
 398 558 395 584 375 691 c 2
 365 745 l 1
 208 745 l 1
 50 745 l 1
 34 761 l 2
 24 771 19 778 19 785 c 0
 19 792 24 798 34 806 c 2
 49 819 l 1
 356 814 l 1
 663 809 l 1
 678 796 l 2
 688 788 693 782 693 776 c 0
 693 771 690 765 684 756 c 2
 675 741 l 1
 563 743 l 2
 549 743 536 743 523 743 c 0
 480 743 447 742 445 738 c 0
 444 737 444 735 444 731 c 0
 444 716 448 680 454 642 c 0
 464 579 469 518 469 462 c 0
 469 360 453 273 421 206 c 2
 397 153 l 1
 350 110 l 2
 324 86 288 61 269 53 c 0
 248 44 211 39 179 39 c 0
 160 39 142 41 131 45 c 0
EndSplineSet
Validated: 1
EndChar

StartChar: K
Encoding: 75 75 74
Width: 658
Flags: HW
LayerCount: 2
Fore
SplineSet
341 190 m 2
 112 307 l 1
 119 212 l 1
 126 116 l 1
 109 102 l 1
 93 88 l 1
 76 99 l 1
 58 110 l 1
 51 226 l 2
 47 290 37 353 31 365 c 2
 20 388 l 1
 28 416 l 2
 31 429 35 490 35 562 c 0
 35 578 34 594 34 611 c 0
 33 635 33 659 33 681 c 0
 33 741 35 789 38 798 c 2
 44 819 l 1
 62 819 l 2
 72 819 85 814 92 807 c 2
 105 795 l 1
 105 628 l 1
 105 461 l 1
 114 461 l 2
 119 461 127 466 130 471 c 0
 139 486 356 647 476 728 c 0
 546 776 586 797 609 797 c 0
 620 797 627 792 631 782 c 0
 633 777 634 773 634 769 c 0
 634 754 616 741 542 690 c 0
 399 590 318 531 224 457 c 2
 134 386 l 1
 147 374 l 2
 154 367 264 309 390 245 c 0
 516 181 621 124 624 116 c 0
 625 114 625 111 625 109 c 0
 625 92 606 72 588 72 c 0
 587 72 l 0
 578 72 467 125 341 190 c 2
EndSplineSet
Validated: 1
EndChar

StartChar: L
Encoding: 76 76 75
Width: 634
Flags: HW
LayerCount: 2
Fore
SplineSet
36 13 m 1
 22 30 l 1
 33 404 l 1
 44 778 l 1
 54 799 l 2
 61 812 77 819 90 819 c 0
 99 819 106 816 110 810 c 0
 111 808 111 795 111 774 c 0
 111 729 109 645 106 552 c 0
 101 415 94 249 92 185 c 2
 89 69 l 1
 207 75 l 2
 272 78 384 84 454 88 c 2
 582 95 l 1
 597 77 l 1
 611 60 l 1
 601 43 l 1
 590 26 l 1
 463 19 l 2
 393 15 272 9 193 5 c 2
 49 -3 l 1
 36 13 l 1
EndSplineSet
Validated: 1
EndChar

StartChar: M
Encoding: 77 77 76
Width: 732
Flags: HW
LayerCount: 2
Fore
SplineSet
653 -2 m 0
 646 9 613 361 601 547 c 0
 597 609 591 668 587 678 c 2
 580 696 l 1
 489 565 l 2
 439 493 384 417 368 396 c 2
 339 357 l 1
 309 357 l 1
 280 357 l 1
 228 421 l 2
 200 456 160 516 140 555 c 0
 121 593 103 622 100 622 c 0
 99 622 99 592 111 490 c 0
 142 218 157 85 161 58 c 2
 166 30 l 1
 150 15 l 1
 134 -1 l 1
 116 9 l 1
 98 19 l 1
 86 109 l 2
 58 326 32 566 26 670 c 2
 20 783 l 1
 37 796 l 2
 44 802 53 806 61 806 c 0
 63 806 65 806 67 805 c 0
 75 802 115 740 156 668 c 0
 232 534 295 439 308 439 c 0
 312 439 364 509 423 594 c 0
 482 679 543 765 559 784 c 2
 589 819 l 1
 616 816 l 1
 642 813 l 1
 650 767 l 2
 663 687 704 162 704 76 c 2
 704 -6 l 1
 682 -9 l 2
 670 -11 657 -8 653 -2 c 0
EndSplineSet
Validated: 33
EndChar

StartChar: N
Encoding: 78 78 77
Width: 662
Flags: HW
LayerCount: 2
Fore
SplineSet
32 28 m 0
 28 36 25 45 25 52 c 0
 25 55 26 58 27 60 c 0
 31 66 33 232 33 401 c 0
 33 570 31 741 27 757 c 2
 21 781 l 1
 35 800 l 1
 49 819 l 1
 70 813 l 2
 81 809 96 793 103 778 c 0
 131 716 442 277 525 182 c 2
 556 146 l 1
 551 213 l 2
 538 402 526 668 526 758 c 0
 526 775 526 787 527 789 c 0
 532 800 544 806 557 806 c 0
 567 806 576 803 581 795 c 0
 585 789 592 695 597 587 c 0
 602 479 613 324 621 242 c 0
 629 160 636 79 636 61 c 2
 636 29 l 1
 616 18 l 1
 595 7 l 1
 576 17 l 2
 542 35 363 267 206 494 c 2
 109 635 l 1
 104 334 l 2
 101 169 95 28 90 21 c 0
 84 12 75 8 65 8 c 0
 52 8 39 15 32 28 c 0
EndSplineSet
Validated: 1
EndChar

StartChar: O
Encoding: 79 79 78
Width: 878
Flags: HW
LayerCount: 2
Fore
SplineSet
345 18 m 0
 285 29 161 86 115 125 c 0
 68 165 43 219 31 309 c 2
 20 386 l 1
 32 450 l 2
 48 537 93 631 154 697 c 2
 204 752 l 1
 269 781 l 1
 333 810 l 1
 436 815 l 1
 538 819 l 1
 596 807 l 2
 665 793 715 762 743 716 c 0
 754 698 778 664 796 641 c 0
 814 618 835 581 841 557 c 2
 853 515 l 1
 848 422 l 1
 842 330 l 1
 821 263 l 2
 795 181 765 137 711 95 c 0
 646 45 521 12 415 12 c 0
 390 12 366 14 345 18 c 0
574 105 m 0
 599 114 639 133 664 147 c 2
 709 174 l 1
 728 217 l 2
 760 289 779 378 780 455 c 2
 780 528 l 1
 765 558 l 2
 748 591 713 622 651 657 c 2
 610 680 l 1
 613 706 l 1
 615 733 l 1
 543 745 l 1
 471 757 l 1
 404 746 l 2
 283 725 225 691 170 608 c 0
 119 531 94 452 94 371 c 0
 94 343 97 315 103 287 c 2
 114 237 l 1
 143 201 l 2
 178 159 252 117 329 95 c 2
 385 79 l 1
 456 84 l 2
 495 86 549 96 574 105 c 0
EndSplineSet
Validated: 1
EndChar

StartChar: P
Encoding: 80 80 79
Width: 718
Flags: HW
LayerCount: 2
Fore
SplineSet
72 2 m 2
 59 14 l 1
 59 185 l 1
 59 355 l 1
 39 374 l 2
 26 386 19 401 19 414 c 0
 19 425 24 433 34 437 c 2
 49 443 l 1
 49 590 l 1
 49 738 l 1
 36 759 l 1
 24 780 l 1
 48 799 l 1
 72 819 l 1
 167 819 l 2
 219 819 299 812 343 804 c 2
 423 789 l 1
 516 743 l 1
 609 697 l 1
 652 651 l 1
 694 605 l 1
 694 572 l 2
 694 508 644 455 536 406 c 0
 467 375 378 359 247 352 c 2
 122 345 l 1
 128 183 l 1
 134 21 l 1
 121 5 l 2
 113 -5 105 -10 96 -10 c 0
 88 -10 80 -6 72 2 c 2
385 436 m 0
 428 445 492 465 527 481 c 2
 590 510 l 1
 608 537 l 1
 626 564 l 1
 613 587 l 2
 596 618 517 672 440 703 c 2
 376 728 l 1
 264 744 l 2
 216 751 171 755 149 755 c 0
 143 755 139 755 137 754 c 2
 121 748 l 1
 121 591 l 2
 121 504 124 431 128 427 c 0
 133 422 159 420 194 420 c 0
 252 420 336 426 385 436 c 0
EndSplineSet
Validated: 1
EndChar

StartChar: Q
Encoding: 81 81 80
Width: 1064
Flags: HW
LayerCount: 2
Fore
SplineSet
360 8 m 0
 262 23 197 46 144 83 c 2
 94 117 l 1
 58 187 l 1
 22 257 l 1
 22 371 l 1
 22 485 l 1
 61 563 l 1
 99 641 l 1
 151 688 l 2
 213 743 282 777 383 801 c 2
 458 819 l 1
 516 815 l 2
 548 813 593 802 615 791 c 2
 655 772 l 1
 686 723 l 2
 703 696 720 673 724 673 c 0
 742 673 849 565 868 528 c 0
 879 506 891 465 894 438 c 2
 900 389 l 1
 887 334 l 2
 872 272 845 213 809 165 c 2
 785 132 l 1
 844 110 l 2
 876 98 928 83 959 77 c 0
 1041 61 1041 61 1041 34 c 2
 1041 9 l 1
 1020 3 l 2
 1015 2 1009 1 1002 1 c 0
 962 1 882 21 802 51 c 2
 722 82 l 1
 703 65 l 2
 693 56 660 38 631 27 c 2
 578 7 l 1
 500 3 l 2
 489 2 477 2 464 2 c 0
 427 2 385 4 360 8 c 0
617 99 m 1
 667 121 l 1
 652 131 l 2
 623 149 498 278 498 291 c 0
 498 298 508 309 519 315 c 2
 540 326 l 1
 580 294 l 2
 602 276 621 258 621 253 c 0
 621 248 641 228 667 207 c 2
 714 169 l 1
 738 191 l 2
 751 203 774 238 789 268 c 2
 817 323 l 1
 823 379 l 1
 828 435 l 1
 817 471 l 2
 804 512 726 594 678 619 c 0
 661 628 614 646 575 658 c 2
 503 680 l 1
 500 702 l 1
 497 725 l 1
 520 733 l 1
 543 742 l 1
 518 747 l 2
 514 748 509 748 503 748 c 0
 455 748 351 724 290 697 c 2
 231 670 l 1
 181 615 l 1
 131 561 l 1
 110 505 l 2
 99 475 87 428 83 400 c 2
 76 350 l 1
 94 286 l 2
 104 251 124 204 140 183 c 2
 169 144 l 1
 215 121 l 2
 240 109 292 92 331 84 c 2
 401 70 l 1
 484 73 l 1
 566 77 l 1
 617 99 l 1
EndSplineSet
Validated: 1
EndChar

StartChar: R
Encoding: 82 82 81
Width: 607
Flags: HW
LayerCount: 2
Fore
SplineSet
74 15 m 2
 61 20 l 1
 61 131 l 2
 61 192 55 303 47 378 c 0
 39 453 30 573 26 643 c 2
 19 771 l 1
 34 791 l 1
 49 812 l 1
 131 815 l 1
 212 819 l 1
 297 797 l 2
 435 761 496 723 533 651 c 2
 553 613 l 1
 553 568 l 1
 553 523 l 1
 529 478 l 2
 516 453 486 418 462 400 c 2
 419 367 l 1
 337 341 l 2
 292 327 243 315 230 315 c 0
 210 315 200 311 200 304 c 0
 200 284 276 235 433 152 c 2
 578 75 l 1
 582 53 l 1
 585 30 l 1
 564 24 l 1
 544 18 l 1
 403 89 l 2
 325 128 232 181 197 207 c 0
 162 233 131 254 130 254 c 0
 129 254 128 206 127 147 c 2
 126 40 l 1
 113 24 l 2
 105 14 100 10 93 10 c 0
 88 10 82 12 74 15 c 2
323 411 m 2
 405 438 l 1
 439 473 l 1
 474 509 l 1
 479 560 l 1
 484 612 l 1
 444 652 l 1
 404 692 l 1
 333 715 l 1
 261 738 l 1
 177 743 l 1
 92 748 l 1
 92 708 l 2
 93 626 112 397 119 386 c 2
 126 374 l 1
 183 380 l 2
 215 383 278 397 323 411 c 2
EndSplineSet
Validated: 1
EndChar

StartChar: S
Encoding: 83 83 82
Width: 603
Flags: HW
LayerCount: 2
Fore
SplineSet
126 101 m 2
 103 111 81 129 77 139 c 2
 70 157 l 1
 85 173 l 1
 101 188 l 1
 144 168 l 1
 188 149 l 1
 260 150 l 2
 300 151 359 158 392 168 c 2
 453 186 l 1
 482 215 l 2
 500 233 509 244 509 255 c 0
 509 266 501 277 485 296 c 0
 450 337 373 372 233 410 c 2
 117 442 l 1
 84 467 l 2
 41 499 20 541 20 584 c 0
 20 630 44 678 92 721 c 0
 143 767 202 797 267 809 c 2
 319 819 l 1
 386 808 l 2
 423 802 465 790 481 781 c 0
 505 767 518 746 518 727 c 0
 518 711 508 697 488 690 c 2
 466 684 l 1
 449 704 l 2
 431 726 371 747 325 747 c 0
 284 747 204 718 161 687 c 0
 117 655 91 616 91 580 c 2
 91 555 l 1
 121 530 l 1
 151 504 l 1
 236 482 l 2
 410 437 518 383 558 322 c 2
 575 296 l 1
 575 256 l 2
 575 204 553 172 496 138 c 0
 431 100 355 82 255 82 c 2
 168 82 l 1
 126 101 l 2
EndSplineSet
Validated: 1
EndChar

StartChar: T
Encoding: 84 84 83
Width: 800
Flags: HW
LayerCount: 2
Fore
SplineSet
393 114 m 0
 386 137 366 524 366 636 c 2
 366 746 l 1
 195 749 l 1
 23 752 l 1
 20 773 l 2
 18 785 24 800 32 807 c 2
 46 819 l 1
 321 819 l 1
 597 819 l 1
 679 808 l 2
 775 794 776 794 776 763 c 0
 776 741 768 731 736 731 c 0
 723 731 705 733 682 736 c 0
 646 741 578 746 530 748 c 2
 443 752 l 1
 440 614 l 2
 440 601 439 586 439 569 c 0
 439 492 443 388 448 316 c 2
 460 157 l 1
 449 129 l 1
 439 102 l 1
 418 102 l 2
 406 102 395 107 393 114 c 0
EndSplineSet
Validated: 33
EndChar

StartChar: U
Encoding: 85 85 84
Width: 581
Flags: HW
LayerCount: 2
Fore
SplineSet
172 55 m 0
 150 63 114 87 92 108 c 2
 52 147 l 1
 36 203 l 1
 20 258 l 1
 27 336 l 2
 40 486 100 710 147 787 c 2
 166 819 l 1
 189 816 l 1
 212 813 l 1
 215 790 l 2
 217 778 209 751 198 729 c 0
 149 632 94 400 94 290 c 2
 94 239 l 1
 117 194 l 1
 140 149 l 1
 176 129 l 1
 212 110 l 1
 270 114 l 1
 328 118 l 1
 364 145 l 1
 400 173 l 1
 426 227 l 2
 462 301 484 422 485 557 c 2
 486 669 l 1
 474 698 l 2
 468 714 463 741 463 758 c 2
 463 788 l 1
 491 785 l 1
 519 782 l 1
 537 731 l 1
 556 680 l 1
 551 526 l 1
 546 372 l 1
 530 308 l 2
 500 185 446 105 368 66 c 2
 315 40 l 1
 264 40 l 2
 236 40 194 47 172 55 c 0
EndSplineSet
Validated: 33
EndChar

StartChar: V
Encoding: 86 86 85
Width: 604
Flags: HW
LayerCount: 2
Fore
SplineSet
247 53 m 0
 197 103 129 285 78 502 c 0
 61 575 39 661 30 693 c 0
 23 718 19 738 19 752 c 0
 19 774 28 784 45 784 c 0
 81 784 83 779 149 506 c 0
 196 314 259 135 280 135 c 0
 281 135 282 135 283 136 c 0
 287 140 307 196 327 261 c 0
 347 326 398 474 439 589 c 2
 515 798 l 1
 532 809 l 1
 548 819 l 1
 565 802 l 1
 582 786 l 1
 545 680 l 2
 525 622 469 459 421 319 c 0
 373 179 328 58 322 50 c 0
 315 41 302 37 289 37 c 0
 274 37 258 42 247 53 c 0
EndSplineSet
Validated: 1
EndChar

StartChar: W
Encoding: 87 87 86
Width: 1018
Flags: HW
LayerCount: 2
Fore
SplineSet
209 19 m 0
 200 32 193 56 193 73 c 0
 193 113 172 192 139 274 c 0
 111 344 35 653 25 740 c 2
 19 792 l 1
 35 806 l 1
 52 819 l 1
 69 809 l 2
 78 803 87 784 89 768 c 0
 96 698 187 343 219 256 c 0
 239 204 255 152 255 140 c 0
 255 128 258 119 261 119 c 0
 264 119 330 179 407 252 c 0
 484 325 554 385 563 385 c 0
 589 385 599 365 612 285 c 0
 619 244 630 195 637 177 c 2
 651 145 l 1
 664 186 l 2
 723 371 908 776 944 799 c 2
 961 810 l 1
 979 792 l 1
 996 775 l 1
 913 603 l 2
 823 418 778 305 727 146 c 0
 709 90 690 35 684 25 c 0
 677 13 666 7 655 7 c 0
 642 7 629 14 620 29 c 0
 604 54 558 187 547 239 c 2
 540 273 l 1
 512 253 l 2
 478 229 322 75 284 29 c 0
 267 8 253 -2 240 -2 c 0
 229 -2 219 5 209 19 c 0
EndSplineSet
Validated: 1
EndChar

StartChar: X
Encoding: 88 88 87
Width: 757
Flags: HW
LayerCount: 2
Fore
SplineSet
78 16 m 0
 74 20 72 24 72 31 c 0
 72 55 99 106 178 237 c 0
 237 336 286 421 286 426 c 0
 286 431 274 446 259 460 c 0
 217 499 120 621 67 702 c 2
 18 775 l 1
 30 797 l 1
 42 819 l 1
 58 816 l 2
 67 814 104 772 139 721 c 0
 174 670 231 597 266 559 c 2
 329 490 l 1
 426 636 l 2
 479 716 530 788 539 795 c 0
 549 803 559 807 567 807 c 0
 577 807 586 801 592 789 c 2
 602 771 l 1
 495 613 l 2
 436 526 389 450 389 444 c 0
 389 429 449 372 552 293 c 0
 624 237 711 154 733 119 c 0
 734 117 734 116 734 114 c 0
 734 101 715 81 698 81 c 0
 689 81 649 112 609 150 c 0
 540 215 354 367 344 367 c 0
 341 367 292 289 235 194 c 0
 151 54 117 8 94 8 c 0
 88 8 83 11 78 16 c 0
EndSplineSet
Validated: 1
EndChar

StartChar: Y
Encoding: 89 89 88
Width: 586
Flags: HW
LayerCount: 2
Fore
SplineSet
277 43 m 2
 263 61 l 1
 263 242 l 1
 264 424 l 1
 236 440 l 2
 221 449 183 484 152 518 c 2
 95 580 l 1
 56 657 l 1
 18 735 l 1
 29 752 l 2
 35 761 48 769 58 769 c 2
 77 769 l 1
 116 691 l 1
 156 613 l 1
 213 555 l 2
 245 523 277 498 284 498 c 0
 291 498 337 545 386 601 c 0
 435 657 487 712 501 723 c 2
 526 743 l 1
 545 733 l 2
 556 727 564 717 564 710 c 0
 564 703 518 645 461 580 c 0
 404 515 354 455 349 445 c 0
 338 425 322 231 322 127 c 0
 322 119 322 111 322 104 c 2
 324 32 l 1
 308 29 l 2
 307 29 305 29 304 29 c 0
 295 29 284 34 277 43 c 2
EndSplineSet
Validated: 1
EndChar

StartChar: Z
Encoding: 90 90 89
Width: 947
Flags: HW
LayerCount: 2
Fore
SplineSet
32 76 m 2
 20 91 l 1
 27 112 l 2
 31 124 67 161 107 196 c 0
 147 231 217 292 262 333 c 0
 307 374 424 477 523 562 c 0
 525 564 706 720 706 727 c 0
 706 738 603 745 363 754 c 2
 166 761 l 1
 160 776 l 2
 157 784 160 797 166 805 c 2
 178 819 l 1
 349 819 l 2
 443 819 583 814 658 808 c 2
 795 797 l 1
 807 781 l 2
 812 775 815 769 815 762 c 0
 815 728 749 665 505 452 c 0
 252 230 209 191 209 185 c 0
 209 184 210 184 212 184 c 0
 218 184 264 193 314 204 c 0
 418 227 607 252 744 261 c 0
 795 264 848 269 863 272 c 2
 890 278 l 1
 906 261 l 1
 923 244 l 1
 913 225 l 1
 902 206 l 1
 833 200 l 2
 602 179 539 171 452 157 c 0
 336 138 167 99 105 77 c 0
 77 67 62 63 53 63 c 0
 44 63 39 67 32 76 c 2
EndSplineSet
Validated: 1
EndChar

StartChar: bracketleft
Encoding: 91 91 90
Width: 358
Flags: HW
LayerCount: 2
Fore
SplineSet
26 85 m 1
 20 109 l 1
 41 185 l 1
 63 261 l 1
 63 353 l 2
 63 403 67 488 73 542 c 0
 79 596 86 673 90 714 c 2
 96 789 l 1
 120 804 l 1
 143 819 l 1
 228 814 l 2
 275 811 314 809 315 809 c 0
 321 806 324 794 324 782 c 0
 324 773 322 765 318 760 c 2
 306 746 l 1
 237 746 l 1
 168 746 l 1
 151 621 l 2
 142 552 134 445 134 383 c 0
 134 321 130 252 125 229 c 0
 120 206 113 174 109 156 c 2
 101 124 l 1
 206 129 l 1
 312 135 l 1
 325 117 l 1
 338 98 l 1
 328 79 l 1
 318 60 l 1
 175 60 l 1
 32 60 l 1
 26 85 l 1
EndSplineSet
Validated: 1
EndChar

StartChar: bracketright
Encoding: 93 93 91
Width: 318
Flags: HW
LayerCount: 2
Fore
SplineSet
51 76 m 2
 49 80 48 84 48 88 c 0
 48 107 74 116 145 125 c 2
 224 136 l 1
 224 335 l 1
 224 535 l 1
 210 641 l 1
 196 747 l 1
 119 743 l 1
 43 740 l 1
 31 757 l 1
 20 775 l 1
 35 790 l 1
 50 805 l 1
 143 812 l 1
 236 819 l 1
 253 802 l 1
 271 784 l 1
 271 742 l 2
 271 718 276 669 281 632 c 0
 286 595 291 460 291 330 c 2
 291 95 l 1
 270 77 l 1
 248 59 l 1
 153 59 l 1
 58 59 l 1
 51 76 l 2
EndSplineSet
Validated: 1
EndChar

StartChar: asciicircum
Encoding: 94 94 92
Width: 502
Flags: HW
LayerCount: 2
Fore
SplineSet
34 517 m 0
 29 523 26 532 26 541 c 0
 26 544 26 547 27 550 c 0
 34 572 161 705 239 771 c 2
 297 819 l 1
 324 819 l 1
 352 819 l 1
 373 771 l 2
 384 744 412 681 435 632 c 2
 477 542 l 1
 461 526 l 1
 444 509 l 1
 428 516 l 2
 419 520 387 570 359 630 c 2
 307 739 l 1
 280 716 l 2
 265 703 212 649 161 597 c 0
 110 545 63 502 57 502 c 0
 51 502 41 509 34 517 c 0
EndSplineSet
Validated: 1
EndChar

StartChar: underscore
Encoding: 95 95 93
Width: 926
Flags: HW
LayerCount: 2
Fore
SplineSet
45 -1 m 2
 28 3 l 1
 31 29 l 2
 33 43 42 59 50 63 c 0
 58 67 247 76 469 82 c 2
 873 92 l 1
 887 81 l 2
 894 76 898 65 898 54 c 0
 898 52 898 50 898 48 c 2
 894 27 l 1
 526 15 l 2
 323 8 136 1 110 -1 c 0
 97 -2 84 -2 72 -2 c 0
 60 -2 50 -2 45 -1 c 2
EndSplineSet
Validated: 1
EndChar

StartChar: grave
Encoding: 96 96 94
Width: 206
Flags: HW
LayerCount: 2
Fore
SplineSet
113 634 m 0
 76 663 26 742 26 771 c 0
 26 783 33 799 41 806 c 2
 57 819 l 1
 73 806 l 2
 82 799 96 778 105 761 c 0
 114 744 134 714 150 696 c 0
 169 675 179 655 179 640 c 0
 179 629 174 622 163 618 c 0
 155 615 150 613 146 613 c 0
 139 613 133 618 113 634 c 0
EndSplineSet
Validated: 1
EndChar

StartChar: zcaron
Encoding: 184 382 95
Width: 302
Flags: HW
LayerCount: 2
Fore
SplineSet
43 -306 m 0
 28 -296 20 -280 20 -267 c 0
 20 -258 24 -251 33 -248 c 0
 37 -246 46 -246 58 -246 c 0
 70 -246 86 -246 100 -248 c 2
 153 -253 l 1
 179 -236 l 2
 196 -225 205 -210 205 -196 c 0
 205 -187 200 -178 192 -172 c 0
 185 -167 150 -163 113 -163 c 2
 46 -163 l 1
 49 -72 l 1
 52 20 l 1
 67 36 l 1
 83 51 l 1
 100 40 l 1
 118 28 l 1
 115 -28 l 1
 113 -85 l 1
 156 -92 l 2
 244 -107 277 -137 277 -205 c 2
 277 -243 l 1
 242 -276 l 2
 210 -306 157 -323 110 -323 c 0
 84 -323 60 -318 43 -306 c 0
EndSplineSet
Validated: 1
EndChar

StartChar: uni00B9
Encoding: 185 185 96
Width: 284
Flags: HW
LayerCount: 2
Fore
SplineSet
154 527 m 2
 142 542 l 1
 158 626 l 2
 166 666 171 701 171 711 c 0
 171 721 139 686 120 665 c 2
 72 613 l 1
 49 616 l 1
 26 620 l 1
 26 642 l 1
 26 665 l 1
 101 742 l 1
 176 819 l 1
 206 819 l 1
 236 819 l 1
 248 795 l 1
 259 770 l 1
 236 654 l 2
 223 590 209 532 203 525 c 0
 196 517 188 513 180 513 c 0
 171 513 162 518 154 527 c 2
EndSplineSet
Validated: 33
EndChar

StartChar: guillemotright
Encoding: 187 187 97
Width: 735
Flags: HW
LayerCount: 2
Fore
SplineSet
28 151 m 0
 24 155 21 167 21 179 c 2
 21 201 l 1
 90 239 l 2
 162 280 345 422 345 436 c 0
 345 443 291 472 223 502 c 0
 93 559 40 590 40 613 c 0
 40 621 47 628 60 635 c 2
 78 644 l 1
 236 573 l 2
 323 534 406 491 419 478 c 2
 443 454 l 1
 436 433 l 2
 428 407 329 320 220 242 c 0
 127 175 73 145 45 145 c 0
 37 145 32 147 28 151 c 0
181 59 m 0
 177 63 174 74 174 84 c 2
 174 102 l 1
 331 220 l 2
 482 334 625 457 625 473 c 0
 625 480 306 617 246 638 c 2
 179 661 l 1
 176 684 l 1
 173 708 l 1
 191 714 l 2
 195 716 200 717 207 717 c 0
 243 717 316 689 484 615 c 2
 671 533 l 1
 693 508 l 1
 715 483 l 1
 710 462 l 2
 700 425 523 271 323 125 c 0
 252 74 217 53 197 53 c 0
 190 53 185 55 181 59 c 0
EndSplineSet
Validated: 1
EndChar

StartChar: uni00B2
Encoding: 178 178 98
Width: 377
Flags: HW
LayerCount: 2
Fore
SplineSet
40 451 m 1
 22 465 l 1
 26 489 l 1
 29 514 l 1
 121 553 l 1
 213 592 l 1
 246 624 l 1
 280 657 l 1
 280 685 l 1
 280 714 l 1
 250 729 l 2
 232 738 219 743 208 743 c 0
 193 743 181 734 164 714 c 2
 138 684 l 1
 131 637 l 1
 124 591 l 1
 105 581 l 1
 87 571 l 1
 71 587 l 2
 62 596 55 609 55 616 c 0
 55 649 89 737 112 765 c 2
 138 796 l 1
 177 808 l 1
 216 819 l 1
 253 807 l 2
 273 800 303 779 320 759 c 2
 352 724 l 1
 352 678 l 1
 352 632 l 1
 303 584 l 2
 276 557 245 530 234 523 c 2
 213 511 l 1
 261 516 l 1
 309 522 l 1
 319 503 l 1
 330 483 l 1
 322 470 l 2
 310 450 244 438 146 438 c 2
 59 438 l 1
 40 451 l 1
EndSplineSet
Validated: 1
EndChar

StartChar: Zcaron
Encoding: 180 381 99
Width: 211
Flags: HW
LayerCount: 2
Fore
SplineSet
92 634 m 0
 72 618 65 613 58 613 c 0
 54 613 49 615 41 618 c 0
 31 622 26 630 26 640 c 0
 26 655 36 674 55 696 c 0
 71 714 91 744 100 761 c 0
 109 778 123 799 132 806 c 2
 148 819 l 1
 163 806 l 2
 171 799 179 783 179 771 c 0
 179 742 129 663 92 634 c 0
EndSplineSet
Validated: 1
EndChar

StartChar: uni00B3
Encoding: 179 179 100
Width: 348
Flags: HW
LayerCount: 2
Fore
SplineSet
99 471 m 2
 92 480 87 496 89 506 c 2
 92 524 l 1
 154 531 l 2
 188 535 223 541 233 545 c 2
 252 552 l 1
 249 569 l 1
 245 586 l 1
 194 588 l 2
 166 589 138 590 132 590 c 0
 120 591 111 608 111 623 c 0
 111 629 112 633 115 638 c 0
 119 646 145 666 172 683 c 0
 204 703 219 716 219 726 c 0
 219 732 214 737 203 741 c 2
 187 748 l 1
 151 729 l 1
 116 710 l 1
 96 670 l 1
 76 631 l 1
 53 634 l 1
 31 637 l 1
 27 671 l 1
 24 706 l 1
 75 755 l 1
 127 805 l 1
 165 812 l 1
 204 819 l 1
 240 800 l 1
 276 780 l 1
 286 752 l 1
 296 724 l 1
 280 691 l 1
 264 658 l 1
 293 630 l 1
 322 603 l 1
 322 569 l 2
 322 531 309 511 270 485 c 2
 243 467 l 1
 178 461 l 1
 112 455 l 1
 99 471 l 2
EndSplineSet
Validated: 33
EndChar

StartChar: uni00AD
Encoding: 173 173 102
Width: 793
Flags: HW
LayerCount: 2
Fore
SplineSet
243 385 m 0
 224 389 205 399 200 406 c 2
 192 420 l 1
 201 435 l 1
 210 451 l 1
 397 448 l 2
 500 446 589 441 594 436 c 0
 599 431 601 419 599 409 c 2
 595 390 l 1
 539 383 l 2
 503 379 447 377 392 377 c 0
 328 377 266 380 243 385 c 0
303 90 m 1
 380 66 l 1
 384 46 l 1
 366 33 l 2
 354 24 340 20 324 20 c 0
 302 20 276 28 243 44 c 0
 177 77 83 170 53 232 c 2
 29 280 l 1
 25 367 l 1
 22 454 l 1
 42 518 l 2
 70 607 125 701 186 765 c 2
 239 819 l 1
 261 816 l 2
 273 814 287 805 293 796 c 2
 304 779 l 1
 252 729 l 2
 189 667 152 610 119 522 c 2
 94 455 l 1
 93 393 l 2
 93 390 93 386 93 383 c 0
 93 277 125 204 225 140 c 2
 303 90 l 1
518 36 m 1
 512 52 l 1
 563 100 l 1
 615 147 l 1
 642 201 l 2
 657 230 676 281 684 313 c 0
 694 351 699 395 699 439 c 0
 699 567 660 703 600 752 c 2
 574 773 l 1
 578 793 l 1
 582 813 l 1
 609 816 l 1
 635 819 l 1
 672 776 l 2
 734 703 770 576 770 448 c 0
 770 395 764 342 751 292 c 0
 725 190 687 122 626 65 c 2
 577 19 l 1
 551 19 l 1
 525 19 l 1
 518 36 l 1
EndSplineSet
Validated: 1
EndChar

StartChar: multiply
Encoding: 215 215 103
Width: 529
Flags: HW
LayerCount: 2
Fore
SplineSet
431 265 m 0
 379 310 259 399 250 399 c 0
 246 399 213 365 177 323 c 2
 111 246 l 1
 88 246 l 1
 64 246 l 1
 58 262 l 1
 52 277 l 1
 77 313 l 2
 91 332 124 371 151 400 c 2
 201 452 l 1
 111 542 l 1
 22 632 l 1
 25 656 l 1
 29 681 l 1
 47 684 l 1
 66 688 l 1
 152 600 l 2
 199 552 241 512 246 512 c 0
 251 512 293 555 339 609 c 0
 385 663 430 707 437 707 c 0
 453 707 474 686 474 671 c 0
 474 665 435 614 387 558 c 2
 299 456 l 1
 313 446 l 2
 321 440 362 409 406 376 c 0
 450 343 491 306 497 292 c 2
 508 267 l 1
 495 251 l 2
 487 242 482 237 475 237 c 0
 466 237 453 246 431 265 c 0
EndSplineSet
Validated: 1
EndChar

StartChar: section
Encoding: 167 167 104
Width: 575
Flags: HW
LayerCount: 2
Fore
SplineSet
179 -287 m 0
 125 -271 87 -221 87 -182 c 0
 87 -166 93 -152 107 -143 c 0
 110 -141 113 -140 117 -140 c 0
 133 -140 152 -157 158 -179 c 2
 164 -203 l 1
 192 -214 l 2
 223 -226 254 -232 283 -232 c 0
 329 -232 369 -217 397 -189 c 2
 423 -163 l 1
 417 -122 l 2
 410 -70 394 -53 305 0 c 0
 193 66 106 130 83 162 c 0
 70 181 63 200 63 221 c 0
 63 262 89 310 141 368 c 0
 162 392 176 413 176 418 c 0
 176 419 176 419 175 419 c 0
 169 419 144 429 118 441 c 2
 71 463 l 1
 46 499 l 1
 21 536 l 1
 21 571 l 1
 21 606 l 1
 46 649 l 1
 71 692 l 1
 125 729 l 2
 189 773 283 809 354 815 c 2
 405 819 l 1
 429 806 l 2
 442 799 460 783 468 771 c 2
 482 750 l 1
 468 731 l 1
 453 711 l 1
 418 731 l 1
 382 750 l 1
 325 739 l 2
 249 724 180 689 132 644 c 2
 93 606 l 1
 93 575 l 1
 93 543 l 1
 120 522 l 2
 135 510 179 491 219 479 c 0
 447 412 503 385 533 326 c 2
 553 287 l 1
 553 232 l 1
 553 178 l 1
 530 139 l 2
 507 100 428 40 401 40 c 2
 387 40 l 1
 429 0 l 1
 470 -41 l 1
 483 -81 l 1
 495 -122 l 1
 488 -156 l 2
 484 -175 473 -204 462 -222 c 2
 443 -254 l 1
 398 -276 l 1
 352 -298 l 1
 281 -297 l 2
 242 -296 196 -292 179 -287 c 0
416 127 m 2
 463 155 l 1
 479 191 l 1
 494 228 l 1
 482 267 l 1
 471 306 l 1
 444 324 l 2
 410 346 304 381 271 381 c 0
 268 381 267 380 265 380 c 0
 238 373 146 271 138 240 c 2
 131 213 l 1
 150 193 l 2
 160 182 196 154 230 131 c 2
 292 89 l 1
 331 94 l 2
 352 97 390 112 416 127 c 2
EndSplineSet
Validated: 1
EndChar

StartChar: guillemotleft
Encoding: 171 171 105
Width: 791
Flags: HW
LayerCount: 2
Fore
SplineSet
619 174 m 0
 488 219 324 290 300 311 c 0
 287 323 277 329 277 340 c 0
 277 362 319 399 454 521 c 2
 566 621 l 1
 592 618 l 1
 619 615 l 1
 622 596 l 1
 626 577 l 1
 582 540 l 2
 526 492 380 360 380 352 c 0
 380 343 415 327 563 270 c 0
 622 247 688 226 710 222 c 0
 732 218 755 207 761 198 c 2
 771 181 l 1
 758 165 l 2
 750 155 738 150 720 150 c 0
 698 150 666 158 619 174 c 0
382 138 m 0
 252 182 118 233 83 250 c 2
 20 282 l 1
 20 308 l 1
 20 333 l 1
 48 356 l 2
 63 369 160 462 263 563 c 2
 450 748 l 1
 468 736 l 2
 478 730 487 717 489 707 c 2
 493 690 l 1
 303 502 l 1
 112 314 l 1
 161 292 l 2
 188 280 309 238 430 198 c 0
 551 158 658 119 668 109 c 2
 686 91 l 1
 680 74 l 1
 673 57 l 1
 646 57 l 2
 631 57 512 94 382 138 c 0
EndSplineSet
Validated: 1
EndChar

StartChar: registered
Encoding: 174 174 106
Width: 518
Flags: HW
LayerCount: 2
Fore
SplineSet
164 358 m 0
 119 374 73 413 47 454 c 2
 24 490 l 1
 28 569 l 1
 32 648 l 1
 56 698 l 1
 80 747 l 1
 118 772 l 2
 139 786 182 802 216 808 c 2
 277 819 l 1
 329 808 l 1
 381 796 l 1
 418 765 l 1
 456 734 l 1
 473 676 l 1
 490 617 l 1
 491 536 l 1
 492 454 l 1
 468 420 l 2
 455 402 427 377 405 366 c 2
 365 346 l 1
 280 347 l 2
 233 347 181 352 164 358 c 0
323 415 m 0
 323 419 304 434 281 447 c 2
 239 471 l 1
 213 458 l 1
 188 444 l 1
 175 462 l 1
 161 480 l 1
 166 544 l 2
 169 579 176 625 181 646 c 2
 191 684 l 1
 215 684 l 2
 248 684 318 658 354 632 c 2
 385 611 l 1
 385 587 l 2
 385 549 374 530 345 519 c 2
 318 508 l 1
 346 488 l 2
 361 477 374 460 374 452 c 2
 374 437 l 1
 387 441 l 2
 394 443 406 456 413 470 c 2
 427 495 l 1
 421 560 l 1
 416 625 l 1
 394 671 l 1
 371 717 l 1
 337 731 l 2
 316 740 293 744 269 744 c 0
 246 744 222 740 195 732 c 2
 155 719 l 1
 132 686 l 2
 120 667 103 626 96 595 c 2
 84 538 l 1
 104 502 l 2
 132 451 168 427 232 418 c 0
 274 412 298 409 310 409 c 0
 320 409 323 411 323 415 c 0
303 582 m 0
 303 588 299 592 295 592 c 0
 291 592 277 595 264 598 c 2
 241 604 l 1
 241 588 l 1
 241 571 l 1
 272 571 l 2
 289 571 303 576 303 582 c 0
EndSplineSet
Validated: 1
EndChar

StartChar: degree
Encoding: 176 176 107
Width: 431
Flags: HW
LayerCount: 2
Fore
SplineSet
148 461 m 0
 128 467 98 483 80 497 c 2
 48 521 l 1
 36 557 l 1
 24 593 l 1
 31 626 l 2
 50 712 115 788 189 808 c 2
 230 819 l 1
 270 809 l 2
 327 794 358 765 384 704 c 2
 407 651 l 1
 394 610 l 2
 367 519 280 454 194 454 c 0
 178 454 163 457 148 461 c 0
277 557 m 0
 295 571 315 596 322 613 c 2
 335 644 l 1
 308 676 l 2
 293 693 282 713 282 721 c 2
 282 735 l 1
 252 741 l 1
 222 748 l 1
 191 732 l 2
 149 710 110 660 102 618 c 2
 95 583 l 1
 109 566 l 2
 117 557 137 543 154 535 c 2
 184 521 l 1
 214 527 l 2
 230 530 259 543 277 557 c 0
EndSplineSet
Validated: 1
EndChar

StartChar: copyright
Encoding: 169 169 108
Width: 514
Flags: HW
LayerCount: 2
Fore
SplineSet
156 404 m 2
 134 412 103 431 87 447 c 2
 58 476 l 1
 41 544 l 1
 23 612 l 1
 36 655 l 1
 49 697 l 1
 87 736 l 2
 108 757 147 785 172 797 c 2
 218 819 l 1
 273 819 l 1
 329 819 l 1
 391 787 l 2
 469 747 472 744 475 704 c 0
 477 686 480 644 484 612 c 2
 490 553 l 1
 464 499 l 1
 437 445 l 1
 404 419 l 1
 370 394 l 1
 283 392 l 1
 196 389 l 1
 156 404 l 2
363 478 m 0
 392 496 416 550 416 595 c 0
 416 613 407 649 395 673 c 2
 373 717 l 1
 344 732 l 2
 328 740 296 748 273 748 c 2
 231 748 l 1
 192 727 l 2
 170 716 139 692 124 674 c 2
 96 641 l 1
 102 594 l 2
 113 503 138 475 221 461 c 0
 238 458 256 456 272 456 c 0
 309 456 341 464 363 478 c 0
185 516 m 1
 150 551 l 1
 150 589 l 1
 150 627 l 1
 171 656 l 1
 191 685 l 1
 228 697 l 1
 264 709 l 1
 298 702 l 2
 317 699 339 687 349 676 c 2
 367 657 l 1
 363 633 l 1
 360 609 l 1
 341 606 l 2
 340 606 338 606 337 606 c 0
 327 606 313 611 303 620 c 2
 284 637 l 1
 257 631 l 2
 235 625 223 612 223 596 c 0
 223 589 225 582 229 575 c 2
 239 558 l 1
 279 553 l 1
 319 548 l 1
 322 531 l 2
 324 522 317 507 308 498 c 2
 292 481 l 1
 256 481 l 1
 220 481 l 1
 185 516 l 1
EndSplineSet
Validated: 33
EndChar

StartChar: backslash
Encoding: 92 92 109
Width: 596
Flags: HW
LayerCount: 2
Fore
SplineSet
477 121 m 2
 449 151 397 215 362 263 c 0
 327 311 262 400 216 462 c 0
 170 524 107 620 76 675 c 2
 20 776 l 1
 26 791 l 2
 29 799 39 809 49 813 c 2
 66 819 l 1
 86 794 l 2
 97 780 124 735 148 693 c 0
 203 595 449 255 521 179 c 2
 576 121 l 1
 573 97 l 1
 570 73 l 1
 548 70 l 1
 527 67 l 1
 477 121 l 2
EndSplineSet
Validated: 1
EndChar

StartChar: divide
Encoding: 247 247 110
Width: 542
Flags: HW
LayerCount: 2
Fore
SplineSet
230 240 m 0
 220 250 215 257 215 264 c 0
 215 270 219 277 227 288 c 2
 240 306 l 1
 264 302 l 1
 289 299 l 1
 292 278 l 2
 295 257 271 224 254 224 c 0
 249 224 239 231 230 240 c 0
202 373 m 2
 45 379 l 1
 33 390 l 2
 27 396 24 410 26 420 c 2
 29 439 l 1
 259 435 l 1
 489 432 l 1
 503 418 l 1
 518 404 l 1
 503 389 l 1
 489 375 l 1
 424 371 l 2
 411 370 390 370 365 370 c 0
 319 370 258 371 202 373 c 2
228 518 m 2
 226 523 225 531 225 539 c 0
 225 543 225 547 226 551 c 2
 229 569 l 1
 259 569 l 1
 289 569 l 1
 289 539 l 1
 289 509 l 1
 261 506 l 1
 234 503 l 1
 228 518 l 2
EndSplineSet
Validated: 33
EndChar

StartChar: Agrave
Encoding: 192 192 111
Width: 579
Flags: HW
LayerCount: 2
Fore
SplineSet
30 -11 m 0
 23 -8 19 -3 19 7 c 0
 19 28 36 72 80 172 c 0
 184 411 246 573 294 732 c 2
 318 812 l 1
 337 818 l 2
 340 819 344 819 347 819 c 0
 367 819 386 802 386 780 c 0
 386 770 400 701 418 626 c 0
 436 551 474 384 504 254 c 2
 557 18 l 1
 548 0 l 2
 542 -12 534 -18 524 -18 c 0
 518 -18 510 -15 502 -10 c 0
 495 -6 475 60 458 135 c 0
 441 210 424 275 421 280 c 0
 417 286 361 289 309 289 c 0
 265 289 224 287 216 282 c 0
 210 278 178 215 145 143 c 0
 89 17 71 -15 47 -15 c 0
 42 -15 36 -14 30 -11 c 0
406 366 m 2
 406 372 391 435 373 507 c 2
 340 637 l 1
 291 506 l 2
 264 434 243 371 243 366 c 2
 243 356 l 1
 325 356 l 1
 406 356 l 1
 406 366 l 2
EndSplineSet
Validated: 1
EndChar

StartChar: Aacute
Encoding: 193 193 112
Width: 579
Flags: HW
LayerCount: 2
Fore
SplineSet
30 -11 m 0
 23 -8 19 -3 19 7 c 0
 19 28 36 72 80 172 c 0
 184 411 246 573 294 732 c 2
 318 812 l 1
 337 818 l 2
 340 819 344 819 347 819 c 0
 367 819 386 802 386 780 c 0
 386 770 400 701 418 626 c 0
 436 551 474 384 504 254 c 2
 557 18 l 1
 548 0 l 2
 542 -12 534 -18 524 -18 c 0
 518 -18 510 -15 502 -10 c 0
 495 -6 475 60 458 135 c 0
 441 210 424 275 421 280 c 0
 417 286 361 289 309 289 c 0
 265 289 224 287 216 282 c 0
 210 278 178 215 145 143 c 0
 89 17 71 -15 47 -15 c 0
 42 -15 36 -14 30 -11 c 0
406 366 m 2
 406 372 391 435 373 507 c 2
 340 637 l 1
 291 506 l 2
 264 434 243 371 243 366 c 2
 243 356 l 1
 325 356 l 1
 406 356 l 1
 406 366 l 2
197 849 m 1
 179 863 l 1
 189 879 l 2
 201 899 409 996 443 998 c 2
 466 999 l 1
 478 981 l 1
 489 963 l 1
 466 946 l 2
 441 927 286 857 242 844 c 2
 215 836 l 1
 197 849 l 1
EndSplineSet
Validated: 1
EndChar

StartChar: Acircumflex
Encoding: 194 194 113
Width: 579
Flags: HW
LayerCount: 2
Fore
SplineSet
30 -11 m 0
 23 -8 19 -3 19 7 c 0
 19 28 36 72 80 172 c 0
 184 411 246 573 294 732 c 2
 318 812 l 1
 337 818 l 2
 340 819 344 819 347 819 c 0
 367 819 386 802 386 780 c 0
 386 770 400 701 418 626 c 0
 436 551 474 384 504 254 c 2
 557 18 l 1
 548 0 l 2
 542 -12 534 -18 524 -18 c 0
 518 -18 510 -15 502 -10 c 0
 495 -6 475 60 458 135 c 0
 441 210 424 275 421 280 c 0
 417 286 361 289 309 289 c 0
 265 289 224 287 216 282 c 0
 210 278 178 215 145 143 c 0
 89 17 71 -15 47 -15 c 0
 42 -15 36 -14 30 -11 c 0
406 366 m 2
 406 372 391 435 373 507 c 2
 340 637 l 1
 291 506 l 2
 264 434 243 371 243 366 c 2
 243 356 l 1
 325 356 l 1
 406 356 l 1
 406 366 l 2
EndSplineSet
Validated: 1
EndChar

StartChar: Atilde
Encoding: 195 195 114
Width: 579
Flags: HW
LayerCount: 2
Fore
SplineSet
30 -11 m 0
 23 -8 19 -3 19 7 c 0
 19 28 36 72 80 172 c 0
 184 411 246 573 294 732 c 2
 318 812 l 1
 337 818 l 2
 340 819 344 819 347 819 c 0
 367 819 386 802 386 780 c 0
 386 770 400 701 418 626 c 0
 436 551 474 384 504 254 c 2
 557 18 l 1
 548 0 l 2
 542 -12 534 -18 524 -18 c 0
 518 -18 510 -15 502 -10 c 0
 495 -6 475 60 458 135 c 0
 441 210 424 275 421 280 c 0
 417 286 361 289 309 289 c 0
 265 289 224 287 216 282 c 0
 210 278 178 215 145 143 c 0
 89 17 71 -15 47 -15 c 0
 42 -15 36 -14 30 -11 c 0
406 366 m 2
 406 372 391 435 373 507 c 2
 340 637 l 1
 291 506 l 2
 264 434 243 371 243 366 c 2
 243 356 l 1
 325 356 l 1
 406 356 l 1
 406 366 l 2
EndSplineSet
Validated: 1
EndChar

StartChar: Adieresis
Encoding: 196 196 115
Width: 579
Flags: HW
LayerCount: 2
Fore
SplineSet
30 -11 m 0
 23 -8 19 -3 19 7 c 0
 19 28 36 72 80 172 c 0
 184 411 246 573 294 732 c 2
 318 812 l 1
 337 818 l 2
 340 819 344 819 347 819 c 0
 367 819 386 802 386 780 c 0
 386 770 400 701 418 626 c 0
 436 551 474 384 504 254 c 2
 557 18 l 1
 548 0 l 2
 542 -12 534 -18 524 -18 c 0
 518 -18 510 -15 502 -10 c 0
 495 -6 475 60 458 135 c 0
 441 210 424 275 421 280 c 0
 417 286 361 289 309 289 c 0
 265 289 224 287 216 282 c 0
 210 278 178 215 145 143 c 0
 89 17 71 -15 47 -15 c 0
 42 -15 36 -14 30 -11 c 0
406 366 m 2
 406 372 391 435 373 507 c 2
 340 637 l 1
 291 506 l 2
 264 434 243 371 243 366 c 2
 243 356 l 1
 325 356 l 1
 406 356 l 1
 406 366 l 2
EndSplineSet
Validated: 1
EndChar

StartChar: Aring
Encoding: 197 197 116
Width: 579
Flags: HW
LayerCount: 2
Fore
SplineSet
30 -11 m 0
 23 -8 19 -3 19 7 c 0
 19 28 36 72 80 172 c 0
 184 411 246 573 294 732 c 2
 318 812 l 1
 337 818 l 2
 340 819 344 819 347 819 c 0
 367 819 386 802 386 780 c 0
 386 770 400 701 418 626 c 0
 436 551 474 384 504 254 c 2
 557 18 l 1
 548 0 l 2
 542 -12 534 -18 524 -18 c 0
 518 -18 510 -15 502 -10 c 0
 495 -6 475 60 458 135 c 0
 441 210 424 275 421 280 c 0
 417 286 361 289 309 289 c 0
 265 289 224 287 216 282 c 0
 210 278 178 215 145 143 c 0
 89 17 71 -15 47 -15 c 0
 42 -15 36 -14 30 -11 c 0
406 366 m 2
 406 372 391 435 373 507 c 2
 340 637 l 1
 291 506 l 2
 264 434 243 371 243 366 c 2
 243 356 l 1
 325 356 l 1
 406 356 l 1
 406 366 l 2
EndSplineSet
Validated: 1
EndChar

StartChar: agrave
Encoding: 224 224 117
Width: 541
Flags: HW
LayerCount: 2
Fore
SplineSet
105 28 m 0
 63 49 36 92 27 150 c 2
 20 194 l 1
 33 248 l 2
 55 339 123 423 199 455 c 2
 237 471 l 1
 301 471 l 1
 365 471 l 1
 399 450 l 2
 417 439 435 422 439 413 c 0
 440 411 440 407 440 401 c 0
 440 380 435 335 428 288 c 0
 417 219 412 171 412 140 c 0
 412 117 415 103 420 94 c 2
 429 80 l 1
 460 86 l 1
 490 93 l 1
 504 76 l 1
 518 60 l 1
 507 43 l 2
 501 34 482 21 464 16 c 2
 431 7 l 1
 406 19 l 2
 392 25 372 44 362 61 c 2
 343 92 l 1
 325 72 l 2
 291 34 233 13 178 13 c 0
 152 13 126 18 105 28 c 0
250 105 m 0
 291 134 327 201 351 297 c 2
 372 381 l 1
 361 393 l 1
 349 404 l 1
 293 403 l 1
 237 402 l 1
 197 375 l 2
 148 342 107 275 98 212 c 2
 91 164 l 1
 105 132 l 1
 118 100 l 1
 148 87 l 2
 161 82 172 79 184 79 c 0
 204 79 225 87 250 105 c 0
EndSplineSet
Validated: 1
EndChar

StartChar: aacute
Encoding: 225 225 118
Width: 540
Flags: HW
LayerCount: 2
Fore
SplineSet
105 28 m 0
 63 49 36 92 27 150 c 2
 20 194 l 1
 33 248 l 2
 55 339 123 423 199 455 c 2
 237 471 l 1
 301 471 l 1
 365 471 l 1
 399 450 l 2
 417 439 435 422 439 413 c 0
 440 411 440 407 440 401 c 0
 440 380 435 335 428 288 c 0
 417 219 412 171 412 140 c 0
 412 117 415 103 420 94 c 2
 429 80 l 1
 460 86 l 1
 490 93 l 1
 504 76 l 1
 518 60 l 1
 507 43 l 2
 501 34 482 21 464 16 c 2
 431 7 l 1
 406 19 l 2
 392 25 372 44 362 61 c 2
 343 92 l 1
 325 72 l 2
 291 34 233 13 178 13 c 0
 152 13 126 18 105 28 c 0
250 105 m 0
 291 134 327 201 351 297 c 2
 372 381 l 1
 361 393 l 1
 349 404 l 1
 293 403 l 1
 237 402 l 1
 197 375 l 2
 148 342 107 275 98 212 c 2
 91 164 l 1
 105 132 l 1
 118 100 l 1
 148 87 l 2
 161 82 172 79 184 79 c 0
 204 79 225 87 250 105 c 0
138 529 m 1
 120 543 l 1
 130 559 l 2
 142 579 350 676 384 678 c 2
 407 679 l 1
 419 661 l 1
 430 643 l 1
 407 626 l 2
 382 607 227 537 183 524 c 2
 156 516 l 1
 138 529 l 1
EndSplineSet
Validated: 1
EndChar

StartChar: acircumflex
Encoding: 226 226 119
Width: 541
Flags: HW
LayerCount: 2
Fore
SplineSet
105 28 m 0
 63 49 36 92 27 150 c 2
 20 194 l 1
 33 248 l 2
 55 339 123 423 199 455 c 2
 237 471 l 1
 301 471 l 1
 365 471 l 1
 399 450 l 2
 417 439 435 422 439 413 c 0
 440 411 440 407 440 401 c 0
 440 380 435 335 428 288 c 0
 417 219 412 171 412 140 c 0
 412 117 415 103 420 94 c 2
 429 80 l 1
 460 86 l 1
 490 93 l 1
 504 76 l 1
 518 60 l 1
 507 43 l 2
 501 34 482 21 464 16 c 2
 431 7 l 1
 406 19 l 2
 392 25 372 44 362 61 c 2
 343 92 l 1
 325 72 l 2
 291 34 233 13 178 13 c 0
 152 13 126 18 105 28 c 0
250 105 m 0
 291 134 327 201 351 297 c 2
 372 381 l 1
 361 393 l 1
 349 404 l 1
 293 403 l 1
 237 402 l 1
 197 375 l 2
 148 342 107 275 98 212 c 2
 91 164 l 1
 105 132 l 1
 118 100 l 1
 148 87 l 2
 161 82 172 79 184 79 c 0
 204 79 225 87 250 105 c 0
EndSplineSet
Validated: 1
EndChar

StartChar: atilde
Encoding: 227 227 120
Width: 541
Flags: HW
LayerCount: 2
Fore
SplineSet
105 28 m 0
 63 49 36 92 27 150 c 2
 20 194 l 1
 33 248 l 2
 55 339 123 423 199 455 c 2
 237 471 l 1
 301 471 l 1
 365 471 l 1
 399 450 l 2
 417 439 435 422 439 413 c 0
 440 411 440 407 440 401 c 0
 440 380 435 335 428 288 c 0
 417 219 412 171 412 140 c 0
 412 117 415 103 420 94 c 2
 429 80 l 1
 460 86 l 1
 490 93 l 1
 504 76 l 1
 518 60 l 1
 507 43 l 2
 501 34 482 21 464 16 c 2
 431 7 l 1
 406 19 l 2
 392 25 372 44 362 61 c 2
 343 92 l 1
 325 72 l 2
 291 34 233 13 178 13 c 0
 152 13 126 18 105 28 c 0
250 105 m 0
 291 134 327 201 351 297 c 2
 372 381 l 1
 361 393 l 1
 349 404 l 1
 293 403 l 1
 237 402 l 1
 197 375 l 2
 148 342 107 275 98 212 c 2
 91 164 l 1
 105 132 l 1
 118 100 l 1
 148 87 l 2
 161 82 172 79 184 79 c 0
 204 79 225 87 250 105 c 0
EndSplineSet
Validated: 1
EndChar

StartChar: adieresis
Encoding: 228 228 121
Width: 540
Flags: HW
LayerCount: 2
Fore
SplineSet
105 28 m 0
 63 49 36 92 27 150 c 2
 20 194 l 1
 33 248 l 2
 55 339 123 423 199 455 c 2
 237 471 l 1
 301 471 l 1
 365 471 l 1
 399 450 l 2
 417 439 435 422 439 413 c 0
 440 411 440 407 440 401 c 0
 440 380 435 335 428 288 c 0
 417 219 412 171 412 140 c 0
 412 117 415 103 420 94 c 2
 429 80 l 1
 460 86 l 1
 490 93 l 1
 504 76 l 1
 518 60 l 1
 507 43 l 2
 501 34 482 21 464 16 c 2
 431 7 l 1
 406 19 l 2
 392 25 372 44 362 61 c 2
 343 92 l 1
 325 72 l 2
 291 34 233 13 178 13 c 0
 152 13 126 18 105 28 c 0
250 105 m 0
 291 134 327 201 351 297 c 2
 372 381 l 1
 361 393 l 1
 349 404 l 1
 293 403 l 1
 237 402 l 1
 197 375 l 2
 148 342 107 275 98 212 c 2
 91 164 l 1
 105 132 l 1
 118 100 l 1
 148 87 l 2
 161 82 172 79 184 79 c 0
 204 79 225 87 250 105 c 0
133 532 m 2
 110 548 l 1
 110 573 l 1
 110 598 l 1
 136 615 l 1
 162 632 l 1
 198 615 l 1
 233 598 l 1
 233 578 l 2
 233 552 199 516 174 516 c 0
 164 516 146 523 133 532 c 2
383 532 m 2
 360 548 l 1
 360 573 l 1
 360 598 l 1
 386 615 l 1
 412 632 l 1
 448 615 l 1
 483 598 l 1
 483 578 l 2
 483 552 449 516 424 516 c 0
 414 516 396 523 383 532 c 2
EndSplineSet
Validated: 1
EndChar

StartChar: aring
Encoding: 229 229 122
Width: 541
Flags: HW
LayerCount: 2
Fore
SplineSet
105 28 m 0
 63 49 36 92 27 150 c 2
 20 194 l 1
 33 248 l 2
 55 339 123 423 199 455 c 2
 237 471 l 1
 301 471 l 1
 365 471 l 1
 399 450 l 2
 417 439 435 422 439 413 c 0
 440 411 440 407 440 401 c 0
 440 380 435 335 428 288 c 0
 417 219 412 171 412 140 c 0
 412 117 415 103 420 94 c 2
 429 80 l 1
 460 86 l 1
 490 93 l 1
 504 76 l 1
 518 60 l 1
 507 43 l 2
 501 34 482 21 464 16 c 2
 431 7 l 1
 406 19 l 2
 392 25 372 44 362 61 c 2
 343 92 l 1
 325 72 l 2
 291 34 233 13 178 13 c 0
 152 13 126 18 105 28 c 0
250 105 m 0
 291 134 327 201 351 297 c 2
 372 381 l 1
 361 393 l 1
 349 404 l 1
 293 403 l 1
 237 402 l 1
 197 375 l 2
 148 342 107 275 98 212 c 2
 91 164 l 1
 105 132 l 1
 118 100 l 1
 148 87 l 2
 161 82 172 79 184 79 c 0
 204 79 225 87 250 105 c 0
EndSplineSet
Validated: 1
EndChar

StartChar: ccedilla
Encoding: 231 231 123
Width: 515
Flags: HW
LayerCount: 2
Fore
SplineSet
149 27 m 0
 102 38 58 68 39 100 c 2
 22 128 l 1
 22 200 l 1
 22 271 l 1
 37 314 l 2
 45 338 66 377 84 401 c 2
 116 446 l 1
 167 473 l 1
 218 501 l 1
 298 507 l 1
 378 512 l 1
 424 490 l 1
 470 467 l 1
 483 438 l 2
 488 427 490 416 490 407 c 0
 490 403 489 399 488 397 c 0
 483 390 476 386 466 386 c 0
 450 386 430 396 414 413 c 2
 389 440 l 1
 311 435 l 1
 232 431 l 1
 198 413 l 1
 164 395 l 1
 135 349 l 2
 119 323 99 277 93 246 c 2
 82 190 l 1
 96 152 l 1
 110 115 l 1
 145 103 l 2
 165 96 211 90 249 90 c 2
 317 89 l 1
 379 108 l 2
 406 116 425 121 438 121 c 0
 455 121 462 113 462 98 c 0
 462 95 461 92 461 88 c 2
 457 64 l 1
 391 41 l 1
 324 18 l 1
 252 19 l 2
 213 19 166 23 149 27 c 0
EndSplineSet
Validated: 1
EndChar

StartChar: egrave
Encoding: 232 232 124
Width: 599
Flags: HW
LayerCount: 2
Fore
SplineSet
251 19 m 0
 137 35 74 72 41 146 c 2
 22 188 l 1
 22 255 l 1
 22 323 l 1
 38 368 l 2
 71 460 180 532 318 553 c 2
 387 563 l 1
 431 551 l 2
 455 544 487 528 501 514 c 2
 526 488 l 1
 520 452 l 2
 508 375 418 288 325 263 c 2
 283 252 l 1
 198 259 l 2
 151 263 106 269 97 272 c 2
 81 278 l 1
 88 233 l 2
 101 150 145 111 247 89 c 2
 304 77 l 1
 367 88 l 2
 402 94 457 111 488 125 c 0
 517 138 537 145 551 145 c 0
 568 145 575 135 575 115 c 2
 575 91 l 1
 526 66 l 2
 456 31 389 14 318 14 c 0
 296 14 274 16 251 19 c 0
372 362 m 2
 396 379 424 407 435 426 c 2
 455 460 l 1
 444 471 l 2
 438 477 413 484 388 487 c 2
 342 492 l 1
 282 475 l 2
 201 452 138 413 119 376 c 2
 103 346 l 1
 116 341 l 2
 142 333 173 328 222 328 c 0
 232 328 242 329 254 329 c 2
 328 331 l 1
 372 362 l 2
EndSplineSet
Validated: 1
EndChar

StartChar: eacute
Encoding: 233 233 125
Width: 598
Flags: HW
LayerCount: 2
Fore
SplineSet
250 19 m 0
 136 35 73 72 40 146 c 2
 21 188 l 1
 21 255 l 1
 21 323 l 1
 37 368 l 2
 70 460 179 532 317 553 c 2
 386 563 l 1
 430 551 l 2
 454 544 486 528 500 514 c 2
 525 488 l 1
 519 452 l 2
 507 375 417 288 324 263 c 2
 282 252 l 1
 197 259 l 2
 150 263 105 269 96 272 c 2
 80 278 l 1
 87 233 l 2
 100 150 144 111 246 89 c 2
 303 77 l 1
 366 88 l 2
 401 94 456 111 487 125 c 0
 516 138 536 145 550 145 c 0
 567 145 574 135 574 115 c 2
 574 91 l 1
 525 66 l 2
 455 31 388 14 317 14 c 0
 295 14 273 16 250 19 c 0
371 362 m 2
 395 379 423 407 434 426 c 2
 454 460 l 1
 443 471 l 2
 437 477 412 484 387 487 c 2
 341 492 l 1
 281 475 l 2
 200 452 137 413 118 376 c 2
 102 346 l 1
 115 341 l 2
 141 333 172 328 221 328 c 0
 231 328 241 329 253 329 c 2
 327 331 l 1
 371 362 l 2
139 589 m 1
 121 603 l 1
 131 619 l 2
 143 639 351 736 385 738 c 2
 408 739 l 1
 420 721 l 1
 431 703 l 1
 408 686 l 2
 383 667 228 597 184 584 c 2
 157 576 l 1
 139 589 l 1
EndSplineSet
Validated: 1
EndChar

StartChar: ecircumflex
Encoding: 234 234 126
Width: 599
Flags: HW
LayerCount: 2
Fore
SplineSet
251 19 m 0
 137 35 74 72 41 146 c 2
 22 188 l 1
 22 255 l 1
 22 323 l 1
 38 368 l 2
 71 460 180 532 318 553 c 2
 387 563 l 1
 431 551 l 2
 455 544 487 528 501 514 c 2
 526 488 l 1
 520 452 l 2
 508 375 418 288 325 263 c 2
 283 252 l 1
 198 259 l 2
 151 263 106 269 97 272 c 2
 81 278 l 1
 88 233 l 2
 101 150 145 111 247 89 c 2
 304 77 l 1
 367 88 l 2
 402 94 457 111 488 125 c 0
 517 138 537 145 551 145 c 0
 568 145 575 135 575 115 c 2
 575 91 l 1
 526 66 l 2
 456 31 389 14 318 14 c 0
 296 14 274 16 251 19 c 0
372 362 m 2
 396 379 424 407 435 426 c 2
 455 460 l 1
 444 471 l 2
 438 477 413 484 388 487 c 2
 342 492 l 1
 282 475 l 2
 201 452 138 413 119 376 c 2
 103 346 l 1
 116 341 l 2
 142 333 173 328 222 328 c 0
 232 328 242 329 254 329 c 2
 328 331 l 1
 372 362 l 2
EndSplineSet
Validated: 1
EndChar

StartChar: edieresis
Encoding: 235 235 127
Width: 598
Flags: HW
LayerCount: 2
Fore
SplineSet
250 19 m 0
 136 35 73 72 40 146 c 2
 21 188 l 1
 21 255 l 1
 21 323 l 1
 37 368 l 2
 70 460 179 532 317 553 c 2
 386 563 l 1
 430 551 l 2
 454 544 486 528 500 514 c 2
 525 488 l 1
 519 452 l 2
 507 375 417 288 324 263 c 2
 282 252 l 1
 197 259 l 2
 150 263 105 269 96 272 c 2
 80 278 l 1
 87 233 l 2
 100 150 144 111 246 89 c 2
 303 77 l 1
 366 88 l 2
 401 94 456 111 487 125 c 0
 516 138 536 145 550 145 c 0
 567 145 574 135 574 115 c 2
 574 91 l 1
 525 66 l 2
 455 31 388 14 317 14 c 0
 295 14 273 16 250 19 c 0
371 362 m 2
 395 379 423 407 434 426 c 2
 454 460 l 1
 443 471 l 2
 437 477 412 484 387 487 c 2
 341 492 l 1
 281 475 l 2
 200 452 137 413 118 376 c 2
 102 346 l 1
 115 341 l 2
 141 333 172 328 221 328 c 0
 231 328 241 329 253 329 c 2
 327 331 l 1
 371 362 l 2
154 622 m 2
 131 638 l 1
 131 663 l 1
 131 688 l 1
 157 705 l 1
 183 722 l 1
 219 705 l 1
 254 688 l 1
 254 668 l 2
 254 642 220 606 195 606 c 0
 185 606 167 613 154 622 c 2
404 622 m 2
 381 638 l 1
 381 663 l 1
 381 688 l 1
 407 705 l 1
 433 722 l 1
 469 705 l 1
 504 688 l 1
 504 668 l 2
 504 642 470 606 445 606 c 0
 435 606 417 613 404 622 c 2
EndSplineSet
Validated: 1
EndChar

StartChar: igrave
Encoding: 236 236 128
Width: 350
Flags: HW
LayerCount: 2
Fore
SplineSet
75 559 m 0
 69 566 65 579 65 593 c 0
 65 596 66 599 66 602 c 2
 69 631 l 1
 94 643 l 1
 119 655 l 1
 137 646 l 2
 147 641 158 627 162 615 c 2
 168 594 l 1
 145 569 l 2
 130 553 115 545 102 545 c 0
 92 545 83 550 75 559 c 0
72 12 m 0
 62 18 46 37 38 53 c 2
 23 82 l 1
 23 162 l 2
 23 276 56 390 97 415 c 2
 115 426 l 1
 131 410 l 1
 147 394 l 1
 127 342 l 2
 116 314 101 262 95 227 c 2
 83 163 l 1
 90 122 l 2
 95 89 108 73 130 73 c 0
 152 73 184 90 227 124 c 0
 256 147 287 165 298 165 c 0
 315 165 326 151 326 134 c 0
 326 130 326 125 324 121 c 0
 318 105 234 40 191 17 c 0
 172 7 146 2 122 2 c 0
 102 2 84 5 72 12 c 0
EndSplineSet
Validated: 1
EndChar

StartChar: iacute
Encoding: 237 237 129
Width: 399
Flags: HW
LayerCount: 2
Fore
SplineSet
121 12 m 0
 111 18 95 37 87 53 c 2
 72 82 l 1
 72 162 l 2
 72 276 105 390 146 415 c 2
 164 426 l 1
 180 410 l 1
 196 394 l 1
 176 342 l 2
 165 314 150 262 144 227 c 2
 132 163 l 1
 139 122 l 2
 144 89 157 73 179 73 c 0
 201 73 233 90 276 124 c 0
 305 147 336 165 347 165 c 0
 364 165 375 151 375 134 c 0
 375 130 375 125 373 121 c 0
 367 105 283 40 240 17 c 0
 221 7 195 2 171 2 c 0
 151 2 133 5 121 12 c 0
36 469 m 1
 18 483 l 1
 28 499 l 2
 40 519 248 616 282 618 c 2
 305 619 l 1
 317 601 l 1
 328 583 l 1
 305 566 l 2
 280 547 125 477 81 464 c 2
 54 456 l 1
 36 469 l 1
EndSplineSet
Validated: 1
EndChar

StartChar: icircumflex
Encoding: 238 238 130
Width: 350
Flags: HW
LayerCount: 2
Fore
SplineSet
75 559 m 0
 69 566 65 579 65 593 c 0
 65 596 66 599 66 602 c 2
 69 631 l 1
 94 643 l 1
 119 655 l 1
 137 646 l 2
 147 641 158 627 162 615 c 2
 168 594 l 1
 145 569 l 2
 130 553 115 545 102 545 c 0
 92 545 83 550 75 559 c 0
72 12 m 0
 62 18 46 37 38 53 c 2
 23 82 l 1
 23 162 l 2
 23 276 56 390 97 415 c 2
 115 426 l 1
 131 410 l 1
 147 394 l 1
 127 342 l 2
 116 314 101 262 95 227 c 2
 83 163 l 1
 90 122 l 2
 95 89 108 73 130 73 c 0
 152 73 184 90 227 124 c 0
 256 147 287 165 298 165 c 0
 315 165 326 151 326 134 c 0
 326 130 326 125 324 121 c 0
 318 105 234 40 191 17 c 0
 172 7 146 2 122 2 c 0
 102 2 84 5 72 12 c 0
EndSplineSet
Validated: 1
EndChar

StartChar: idieresis
Encoding: 239 239 131
Width: 416
Flags: HW
LayerCount: 2
Fore
SplineSet
132 12 m 0
 122 18 106 37 98 53 c 2
 83 82 l 1
 83 162 l 2
 83 276 116 390 157 415 c 2
 175 426 l 1
 191 410 l 1
 207 394 l 1
 187 342 l 2
 176 314 161 262 155 227 c 2
 143 163 l 1
 150 122 l 2
 155 89 168 73 190 73 c 0
 212 73 244 90 287 124 c 0
 316 147 347 165 358 165 c 0
 375 165 386 151 386 134 c 0
 386 130 386 125 384 121 c 0
 378 105 294 40 251 17 c 0
 232 7 206 2 182 2 c 0
 162 2 144 5 132 12 c 0
42 512 m 2
 19 528 l 1
 19 553 l 1
 19 578 l 1
 45 595 l 1
 71 612 l 1
 107 595 l 1
 142 578 l 1
 142 558 l 2
 142 532 108 496 83 496 c 0
 73 496 55 503 42 512 c 2
292 512 m 2
 269 528 l 1
 269 553 l 1
 269 578 l 1
 295 595 l 1
 321 612 l 1
 357 595 l 1
 392 578 l 1
 392 558 l 2
 392 532 358 496 333 496 c 0
 323 496 305 503 292 512 c 2
EndSplineSet
Validated: 1
EndChar

StartChar: Ntilde
Encoding: 209 209 132
Width: 787
Flags: HW
LayerCount: 2
Fore
SplineSet
118 28 m 0
 114 36 111 45 111 52 c 0
 111 55 112 58 113 60 c 0
 117 66 119 232 119 401 c 0
 119 570 117 741 113 757 c 2
 107 781 l 1
 121 800 l 1
 135 819 l 1
 156 813 l 2
 167 809 182 793 189 778 c 0
 217 716 528 277 611 182 c 2
 642 146 l 1
 637 213 l 2
 624 402 612 668 612 758 c 0
 612 775 612 787 613 789 c 0
 618 800 630 806 643 806 c 0
 653 806 662 803 667 795 c 0
 671 789 678 695 683 587 c 0
 688 479 699 324 707 242 c 0
 715 160 722 79 722 61 c 2
 722 29 l 1
 702 18 l 1
 681 7 l 1
 662 17 l 2
 628 35 449 267 292 494 c 2
 195 635 l 1
 190 334 l 2
 187 169 181 28 176 21 c 0
 170 12 161 8 151 8 c 0
 138 8 125 15 118 28 c 0
339 916 m 2
 281 976 245 999 211 999 c 0
 205 999 198 999 192 997 c 0
 155 988 102 945 84 910 c 2
 68 880 l 1
 48 880 l 2
 28 880 18 892 18 909 c 0
 18 932 34 964 66 996 c 0
 118 1048 157 1068 212 1068 c 0
 279 1068 321 1042 399 953 c 2
 427 921 l 1
 456 921 l 1
 485 921 l 1
 544 956 l 2
 577 976 625 1010 651 1032 c 0
 697 1070 727 1089 745 1089 c 0
 758 1089 765 1079 765 1058 c 2
 765 1034 l 1
 687 971 l 2
 644 937 582 896 549 879 c 2
 489 849 l 1
 446 849 l 1
 403 849 l 1
 339 916 l 2
EndSplineSet
Validated: 1
EndChar

StartChar: ntilde
Encoding: 241 241 133
Width: 789
Flags: HW
LayerCount: 2
Fore
SplineSet
141 32 m 2
 128 48 l 1
 130 199 l 2
 131 282 135 383 139 425 c 2
 147 501 l 1
 164 512 l 1
 181 522 l 1
 198 508 l 1
 215 494 l 1
 208 417 l 1
 201 340 l 1
 247 382 l 2
 301 431 352 456 400 456 c 0
 424 456 446 450 469 438 c 2
 505 419 l 1
 528 379 l 1
 551 339 l 1
 551 276 l 1
 551 213 l 1
 529 143 l 2
 504 63 495 47 468 47 c 0
 451 47 442 56 442 78 c 0
 442 95 447 119 458 153 c 0
 471 193 482 247 482 273 c 2
 483 321 l 1
 466 348 l 2
 450 372 429 385 404 385 c 0
 374 385 338 367 300 332 c 2
 254 290 l 1
 222 225 l 1
 190 160 l 1
 196 104 l 2
 198 87 199 71 199 58 c 0
 199 47 198 37 197 33 c 0
 193 22 183 17 172 17 c 0
 161 17 149 22 141 32 c 2
340 606 m 2
 282 666 246 689 212 689 c 0
 206 689 199 689 193 687 c 0
 156 678 103 635 85 600 c 2
 69 570 l 1
 49 570 l 2
 29 570 19 582 19 599 c 0
 19 622 35 654 67 686 c 0
 119 738 158 758 213 758 c 0
 280 758 322 732 400 643 c 2
 428 611 l 1
 457 611 l 1
 486 611 l 1
 545 646 l 2
 578 666 626 700 652 722 c 0
 698 760 728 779 746 779 c 0
 759 779 766 769 766 748 c 2
 766 724 l 1
 688 661 l 2
 645 627 583 586 550 569 c 2
 490 539 l 1
 447 539 l 1
 404 539 l 1
 340 606 l 2
EndSplineSet
Validated: 1
EndChar

StartChar: ograve
Encoding: 242 242 134
Width: 578
Flags: HW
LayerCount: 2
Fore
SplineSet
164 20 m 0
 149 25 120 39 100 51 c 2
 63 74 l 1
 42 115 l 1
 21 157 l 1
 25 225 l 1
 29 292 l 1
 52 338 l 2
 65 364 94 405 116 429 c 2
 156 472 l 1
 210 497 l 1
 264 522 l 1
 306 522 l 2
 360 522 433 500 473 472 c 2
 504 450 l 1
 526 402 l 1
 548 353 l 1
 548 295 l 1
 548 236 l 1
 525 190 l 2
 497 132 446 87 365 49 c 2
 301 19 l 1
 246 15 l 2
 238 14 230 14 222 14 c 0
 199 14 175 16 164 20 c 0
300 98 m 0
 324 107 364 126 388 141 c 2
 431 168 l 1
 455 209 l 1
 478 251 l 1
 478 300 l 1
 478 349 l 1
 431 396 l 1
 384 443 l 1
 332 448 l 1
 280 453 l 1
 234 431 l 2
 154 392 91 294 91 208 c 2
 91 166 l 1
 109 138 l 2
 132 103 174 84 223 84 c 0
 247 84 273 89 300 98 c 0
EndSplineSet
Validated: 1
EndChar

StartChar: oacute
Encoding: 243 243 135
Width: 576
Flags: HW
LayerCount: 2
Fore
SplineSet
163 20 m 0
 148 25 119 39 99 51 c 2
 62 74 l 1
 41 115 l 1
 20 157 l 1
 24 225 l 1
 28 292 l 1
 51 338 l 2
 64 364 93 405 115 429 c 2
 155 472 l 1
 209 497 l 1
 263 522 l 1
 305 522 l 2
 359 522 432 500 472 472 c 2
 503 450 l 1
 525 402 l 1
 547 353 l 1
 547 295 l 1
 547 236 l 1
 524 190 l 2
 496 132 445 87 364 49 c 2
 300 19 l 1
 245 15 l 2
 237 14 229 14 221 14 c 0
 198 14 174 16 163 20 c 0
299 98 m 0
 323 107 363 126 387 141 c 2
 430 168 l 1
 454 209 l 1
 477 251 l 1
 477 300 l 1
 477 349 l 1
 430 396 l 1
 383 443 l 1
 331 448 l 1
 279 453 l 1
 233 431 l 2
 153 392 90 294 90 208 c 2
 90 166 l 1
 108 138 l 2
 131 103 173 84 222 84 c 0
 246 84 272 89 299 98 c 0
138 549 m 1
 120 563 l 1
 130 579 l 2
 142 599 350 696 384 698 c 2
 407 699 l 1
 419 681 l 1
 430 663 l 1
 407 646 l 2
 382 627 227 557 183 544 c 2
 156 536 l 1
 138 549 l 1
EndSplineSet
Validated: 1
EndChar

StartChar: ocircumflex
Encoding: 244 244 136
Width: 578
Flags: HW
LayerCount: 2
Fore
SplineSet
164 20 m 0
 149 25 120 39 100 51 c 2
 63 74 l 1
 42 115 l 1
 21 157 l 1
 25 225 l 1
 29 292 l 1
 52 338 l 2
 65 364 94 405 116 429 c 2
 156 472 l 1
 210 497 l 1
 264 522 l 1
 306 522 l 2
 360 522 433 500 473 472 c 2
 504 450 l 1
 526 402 l 1
 548 353 l 1
 548 295 l 1
 548 236 l 1
 525 190 l 2
 497 132 446 87 365 49 c 2
 301 19 l 1
 246 15 l 2
 238 14 230 14 222 14 c 0
 199 14 175 16 164 20 c 0
300 98 m 0
 324 107 364 126 388 141 c 2
 431 168 l 1
 455 209 l 1
 478 251 l 1
 478 300 l 1
 478 349 l 1
 431 396 l 1
 384 443 l 1
 332 448 l 1
 280 453 l 1
 234 431 l 2
 154 392 91 294 91 208 c 2
 91 166 l 1
 109 138 l 2
 132 103 174 84 223 84 c 0
 247 84 273 89 300 98 c 0
EndSplineSet
Validated: 1
EndChar

StartChar: otilde
Encoding: 245 245 137
Width: 578
Flags: HW
LayerCount: 2
Fore
SplineSet
164 20 m 0
 149 25 120 39 100 51 c 2
 63 74 l 1
 42 115 l 1
 21 157 l 1
 25 225 l 1
 29 292 l 1
 52 338 l 2
 65 364 94 405 116 429 c 2
 156 472 l 1
 210 497 l 1
 264 522 l 1
 306 522 l 2
 360 522 433 500 473 472 c 2
 504 450 l 1
 526 402 l 1
 548 353 l 1
 548 295 l 1
 548 236 l 1
 525 190 l 2
 497 132 446 87 365 49 c 2
 301 19 l 1
 246 15 l 2
 238 14 230 14 222 14 c 0
 199 14 175 16 164 20 c 0
300 98 m 0
 324 107 364 126 388 141 c 2
 431 168 l 1
 455 209 l 1
 478 251 l 1
 478 300 l 1
 478 349 l 1
 431 396 l 1
 384 443 l 1
 332 448 l 1
 280 453 l 1
 234 431 l 2
 154 392 91 294 91 208 c 2
 91 166 l 1
 109 138 l 2
 132 103 174 84 223 84 c 0
 247 84 273 89 300 98 c 0
EndSplineSet
Validated: 1
EndChar

StartChar: odieresis
Encoding: 246 246 138
Width: 576
Flags: HW
LayerCount: 2
Fore
SplineSet
163 20 m 0
 148 25 119 39 99 51 c 2
 62 74 l 1
 41 115 l 1
 20 157 l 1
 24 225 l 1
 28 292 l 1
 51 338 l 2
 64 364 93 405 115 429 c 2
 155 472 l 1
 209 497 l 1
 263 522 l 1
 305 522 l 2
 359 522 432 500 472 472 c 2
 503 450 l 1
 525 402 l 1
 547 353 l 1
 547 295 l 1
 547 236 l 1
 524 190 l 2
 496 132 445 87 364 49 c 2
 300 19 l 1
 245 15 l 2
 237 14 229 14 221 14 c 0
 198 14 174 16 163 20 c 0
299 98 m 0
 323 107 363 126 387 141 c 2
 430 168 l 1
 454 209 l 1
 477 251 l 1
 477 300 l 1
 477 349 l 1
 430 396 l 1
 383 443 l 1
 331 448 l 1
 279 453 l 1
 233 431 l 2
 153 392 90 294 90 208 c 2
 90 166 l 1
 108 138 l 2
 131 103 173 84 222 84 c 0
 246 84 272 89 299 98 c 0
153 572 m 2
 130 588 l 1
 130 613 l 1
 130 638 l 1
 156 655 l 1
 182 672 l 1
 218 655 l 1
 253 638 l 1
 253 618 l 2
 253 592 219 556 194 556 c 0
 184 556 166 563 153 572 c 2
403 572 m 2
 380 588 l 1
 380 613 l 1
 380 638 l 1
 406 655 l 1
 432 672 l 1
 468 655 l 1
 503 638 l 1
 503 618 l 2
 503 592 469 556 444 556 c 0
 434 556 416 563 403 572 c 2
EndSplineSet
Validated: 1
EndChar

StartChar: ugrave
Encoding: 249 249 139
Width: 468
Flags: HW
LayerCount: 2
Fore
SplineSet
383 42 m 0
 377 49 367 75 361 99 c 2
 349 142 l 1
 302 107 l 2
 260 75 217 60 178 60 c 0
 121 60 71 93 41 157 c 2
 22 198 l 1
 22 286 l 1
 22 373 l 1
 38 434 l 2
 56 503 67 521 95 521 c 0
 112 521 121 512 121 490 c 0
 121 476 117 456 110 430 c 2
 94 371 l 1
 94 290 l 1
 94 209 l 1
 107 184 l 2
 114 170 131 151 146 140 c 2
 172 120 l 1
 212 137 l 2
 234 146 270 170 291 191 c 2
 330 229 l 1
 339 265 l 2
 344 285 352 351 356 413 c 0
 360 475 367 535 372 545 c 2
 382 563 l 1
 404 560 l 1
 426 557 l 1
 426 485 l 2
 426 446 422 363 417 301 c 2
 408 188 l 1
 426 124 l 1
 444 60 l 1
 432 45 l 2
 424 35 414 30 405 30 c 0
 397 30 390 34 383 42 c 0
EndSplineSet
Validated: 1
EndChar

StartChar: uacute
Encoding: 250 250 140
Width: 467
Flags: HW
LayerCount: 2
Fore
SplineSet
383 42 m 0
 377 49 367 75 361 99 c 2
 349 142 l 1
 302 107 l 2
 260 75 217 60 178 60 c 0
 121 60 71 93 41 157 c 2
 22 198 l 1
 22 286 l 1
 22 373 l 1
 38 434 l 2
 56 503 67 521 95 521 c 0
 112 521 121 512 121 490 c 0
 121 476 117 456 110 430 c 2
 94 371 l 1
 94 290 l 1
 94 209 l 1
 107 184 l 2
 114 170 131 151 146 140 c 2
 172 120 l 1
 212 137 l 2
 234 146 270 170 291 191 c 2
 330 229 l 1
 339 265 l 2
 344 285 352 351 356 413 c 0
 360 475 367 535 372 545 c 2
 382 563 l 1
 404 560 l 1
 426 557 l 1
 426 485 l 2
 426 446 422 363 417 301 c 2
 408 188 l 1
 426 124 l 1
 444 60 l 1
 432 45 l 2
 424 35 414 30 405 30 c 0
 397 30 390 34 383 42 c 0
110 609 m 1
 92 623 l 1
 102 639 l 2
 114 659 322 756 356 758 c 2
 379 759 l 1
 391 741 l 1
 402 723 l 1
 379 706 l 2
 354 687 199 617 155 604 c 2
 128 596 l 1
 110 609 l 1
EndSplineSet
Validated: 1
EndChar

StartChar: ucircumflex
Encoding: 251 251 141
Width: 468
Flags: HW
LayerCount: 2
Fore
SplineSet
383 42 m 0
 377 49 367 75 361 99 c 2
 349 142 l 1
 302 107 l 2
 260 75 217 60 178 60 c 0
 121 60 71 93 41 157 c 2
 22 198 l 1
 22 286 l 1
 22 373 l 1
 38 434 l 2
 56 503 67 521 95 521 c 0
 112 521 121 512 121 490 c 0
 121 476 117 456 110 430 c 2
 94 371 l 1
 94 290 l 1
 94 209 l 1
 107 184 l 2
 114 170 131 151 146 140 c 2
 172 120 l 1
 212 137 l 2
 234 146 270 170 291 191 c 2
 330 229 l 1
 339 265 l 2
 344 285 352 351 356 413 c 0
 360 475 367 535 372 545 c 2
 382 563 l 1
 404 560 l 1
 426 557 l 1
 426 485 l 2
 426 446 422 363 417 301 c 2
 408 188 l 1
 426 124 l 1
 444 60 l 1
 432 45 l 2
 424 35 414 30 405 30 c 0
 397 30 390 34 383 42 c 0
EndSplineSet
Validated: 1
EndChar

StartChar: udieresis
Encoding: 252 252 142
Width: 468
Flags: HW
LayerCount: 2
Fore
SplineSet
383 42 m 0
 377 49 367 75 361 99 c 2
 349 142 l 1
 302 107 l 2
 260 75 217 60 178 60 c 0
 121 60 71 93 41 157 c 2
 22 198 l 1
 22 286 l 1
 22 373 l 1
 38 434 l 2
 56 503 67 521 95 521 c 0
 112 521 121 512 121 490 c 0
 121 476 117 456 110 430 c 2
 94 371 l 1
 94 290 l 1
 94 209 l 1
 107 184 l 2
 114 170 131 151 146 140 c 2
 172 120 l 1
 212 137 l 2
 234 146 270 170 291 191 c 2
 330 229 l 1
 339 265 l 2
 344 285 352 351 356 413 c 0
 360 475 367 535 372 545 c 2
 382 563 l 1
 404 560 l 1
 426 557 l 1
 426 485 l 2
 426 446 422 363 417 301 c 2
 408 188 l 1
 426 124 l 1
 444 60 l 1
 432 45 l 2
 424 35 414 30 405 30 c 0
 397 30 390 34 383 42 c 0
85 622 m 2
 62 638 l 1
 62 663 l 1
 62 688 l 1
 88 705 l 1
 114 722 l 1
 150 705 l 1
 185 688 l 1
 185 668 l 2
 185 642 151 606 126 606 c 0
 116 606 98 613 85 622 c 2
335 622 m 2
 312 638 l 1
 312 663 l 1
 312 688 l 1
 338 705 l 1
 364 722 l 1
 400 705 l 1
 435 688 l 1
 435 668 l 2
 435 642 401 606 376 606 c 0
 366 606 348 613 335 622 c 2
EndSplineSet
Validated: 1
EndChar

StartChar: yacute
Encoding: 253 253 143
Width: 452
Flags: HW
LayerCount: 2
Fore
SplineSet
180 -344 m 0
 171 -335 167 -323 169 -316 c 0
 171 -309 191 -228 213 -136 c 2
 253 32 l 1
 193 120 l 2
 122 225 20 428 20 463 c 2
 20 488 l 1
 36 494 l 2
 45 497 57 498 62 495 c 0
 67 492 98 438 129 375 c 0
 160 312 204 232 227 196 c 2
 268 130 l 1
 277 139 l 2
 287 149 344 372 354 439 c 0
 358 464 365 494 370 504 c 2
 380 522 l 1
 402 519 l 1
 424 516 l 1
 427 480 l 2
 427 477 427 473 427 470 c 0
 427 430 408 351 307 -52 c 0
 247 -292 228 -359 204 -359 c 0
 197 -359 189 -353 180 -344 c 0
EndSplineSet
Validated: 1
EndChar

StartChar: ydieresis
Encoding: 255 255 144
Width: 452
Flags: HW
LayerCount: 2
Fore
SplineSet
180 -344 m 0
 171 -335 167 -323 169 -316 c 0
 171 -309 191 -228 213 -136 c 2
 253 32 l 1
 193 120 l 2
 122 225 20 428 20 463 c 2
 20 488 l 1
 36 494 l 2
 45 497 57 498 62 495 c 0
 67 492 98 438 129 375 c 0
 160 312 204 232 227 196 c 2
 268 130 l 1
 277 139 l 2
 287 149 344 372 354 439 c 0
 358 464 365 494 370 504 c 2
 380 522 l 1
 402 519 l 1
 424 516 l 1
 427 480 l 2
 427 477 427 473 427 470 c 0
 427 430 408 351 307 -52 c 0
 247 -292 228 -359 204 -359 c 0
 197 -359 189 -353 180 -344 c 0
EndSplineSet
Validated: 1
EndChar

StartChar: Egrave
Encoding: 200 200 145
Width: 653
Flags: HW
LayerCount: 2
Fore
SplineSet
55 13 m 1
 40 30 l 1
 31 191 l 1
 22 351 l 1
 34 489 l 2
 42 586 46 652 46 698 c 0
 46 731 44 752 40 767 c 2
 33 794 l 1
 51 802 l 2
 61 807 187 812 329 815 c 2
 588 819 l 1
 603 807 l 2
 613 799 618 788 618 778 c 0
 618 766 612 756 600 752 c 0
 592 750 517 748 422 748 c 0
 402 748 381 748 359 748 c 2
 136 749 l 1
 128 739 l 2
 123 734 116 666 112 588 c 2
 104 447 l 1
 197 450 l 1
 291 452 l 1
 303 440 l 1
 316 427 l 1
 304 410 l 1
 293 392 l 1
 253 385 l 2
 231 381 187 377 155 377 c 2
 96 377 l 1
 97 313 l 2
 98 278 101 207 105 157 c 2
 111 66 l 1
 249 68 l 2
 325 69 435 77 492 85 c 0
 536 91 579 95 600 95 c 0
 606 95 611 95 613 94 c 2
 629 87 l 1
 626 60 l 1
 623 34 l 1
 546 21 l 2
 504 14 380 6 270 2 c 2
 70 -5 l 1
 55 13 l 1
EndSplineSet
Validated: 1
EndChar

StartChar: Eacute
Encoding: 201 201 146
Width: 653
Flags: HW
LayerCount: 2
Fore
SplineSet
55 13 m 1
 40 30 l 1
 31 191 l 1
 22 351 l 1
 34 489 l 2
 42 586 46 652 46 698 c 0
 46 731 44 752 40 767 c 2
 33 794 l 1
 51 802 l 2
 61 807 187 812 329 815 c 2
 588 819 l 1
 603 807 l 2
 613 799 618 788 618 778 c 0
 618 766 612 756 600 752 c 0
 592 750 517 748 422 748 c 0
 402 748 381 748 359 748 c 2
 136 749 l 1
 128 739 l 2
 123 734 116 666 112 588 c 2
 104 447 l 1
 197 450 l 1
 291 452 l 1
 303 440 l 1
 316 427 l 1
 304 410 l 1
 293 392 l 1
 253 385 l 2
 231 381 187 377 155 377 c 2
 96 377 l 1
 97 313 l 2
 98 278 101 207 105 157 c 2
 111 66 l 1
 249 68 l 2
 325 69 435 77 492 85 c 0
 536 91 579 95 600 95 c 0
 606 95 611 95 613 94 c 2
 629 87 l 1
 626 60 l 1
 623 34 l 1
 546 21 l 2
 504 14 380 6 270 2 c 2
 70 -5 l 1
 55 13 l 1
200 869 m 1
 182 883 l 1
 192 899 l 2
 204 919 412 1016 446 1018 c 2
 469 1019 l 1
 481 1001 l 1
 492 983 l 1
 469 966 l 2
 444 947 289 877 245 864 c 2
 218 856 l 1
 200 869 l 1
EndSplineSet
Validated: 1
EndChar

StartChar: Ecircumflex
Encoding: 202 202 147
Width: 653
Flags: HW
LayerCount: 2
Fore
SplineSet
55 13 m 1
 40 30 l 1
 31 191 l 1
 22 351 l 1
 34 489 l 2
 42 586 46 652 46 698 c 0
 46 731 44 752 40 767 c 2
 33 794 l 1
 51 802 l 2
 61 807 187 812 329 815 c 2
 588 819 l 1
 603 807 l 2
 613 799 618 788 618 778 c 0
 618 766 612 756 600 752 c 0
 592 750 517 748 422 748 c 0
 402 748 381 748 359 748 c 2
 136 749 l 1
 128 739 l 2
 123 734 116 666 112 588 c 2
 104 447 l 1
 197 450 l 1
 291 452 l 1
 303 440 l 1
 316 427 l 1
 304 410 l 1
 293 392 l 1
 253 385 l 2
 231 381 187 377 155 377 c 2
 96 377 l 1
 97 313 l 2
 98 278 101 207 105 157 c 2
 111 66 l 1
 249 68 l 2
 325 69 435 77 492 85 c 0
 536 91 579 95 600 95 c 0
 606 95 611 95 613 94 c 2
 629 87 l 1
 626 60 l 1
 623 34 l 1
 546 21 l 2
 504 14 380 6 270 2 c 2
 70 -5 l 1
 55 13 l 1
EndSplineSet
Validated: 1
EndChar

StartChar: Edieresis
Encoding: 203 203 148
Width: 653
Flags: HW
LayerCount: 2
Fore
SplineSet
55 13 m 1
 40 30 l 1
 31 191 l 1
 22 351 l 1
 34 489 l 2
 42 586 46 652 46 698 c 0
 46 731 44 752 40 767 c 2
 33 794 l 1
 51 802 l 2
 61 807 187 812 329 815 c 2
 588 819 l 1
 603 807 l 2
 613 799 618 788 618 778 c 0
 618 766 612 756 600 752 c 0
 592 750 517 748 422 748 c 0
 402 748 381 748 359 748 c 2
 136 749 l 1
 128 739 l 2
 123 734 116 666 112 588 c 2
 104 447 l 1
 197 450 l 1
 291 452 l 1
 303 440 l 1
 316 427 l 1
 304 410 l 1
 293 392 l 1
 253 385 l 2
 231 381 187 377 155 377 c 2
 96 377 l 1
 97 313 l 2
 98 278 101 207 105 157 c 2
 111 66 l 1
 249 68 l 2
 325 69 435 77 492 85 c 0
 536 91 579 95 600 95 c 0
 606 95 611 95 613 94 c 2
 629 87 l 1
 626 60 l 1
 623 34 l 1
 546 21 l 2
 504 14 380 6 270 2 c 2
 70 -5 l 1
 55 13 l 1
195 882 m 2
 172 898 l 1
 172 923 l 1
 172 948 l 1
 198 965 l 1
 224 982 l 1
 260 965 l 1
 295 948 l 1
 295 928 l 2
 295 902 261 866 236 866 c 0
 226 866 208 873 195 882 c 2
445 882 m 2
 422 898 l 1
 422 923 l 1
 422 948 l 1
 448 965 l 1
 474 982 l 1
 510 965 l 1
 545 948 l 1
 545 928 l 2
 545 902 511 866 486 866 c 0
 476 866 458 873 445 882 c 2
EndSplineSet
Validated: 1
EndChar

StartChar: Igrave
Encoding: 204 204 149
Width: 766
Flags: HW
LayerCount: 2
Fore
SplineSet
35 79 m 0
 26 84 21 97 21 109 c 0
 21 120 25 130 33 133 c 0
 40 136 111 141 190 145 c 2
 333 153 l 1
 332 196 l 2
 332 220 331 356 330 497 c 2
 328 754 l 1
 192 752 l 2
 139 751 90 751 63 751 c 0
 52 751 45 751 43 751 c 2
 29 752 l 1
 33 780 l 1
 36 808 l 1
 103 816 l 2
 123 818 171 819 233 819 c 0
 286 819 350 818 412 817 c 2
 655 811 l 1
 673 797 l 1
 691 784 l 1
 680 765 l 1
 669 747 l 1
 531 746 l 1
 394 745 l 1
 392 608 l 2
 392 595 392 580 392 564 c 0
 392 487 394 384 397 312 c 2
 405 153 l 1
 562 153 l 1
 720 153 l 1
 731 135 l 1
 742 118 l 1
 729 104 l 1
 716 91 l 1
 550 85 l 2
 357 78 216 74 130 74 c 0
 73 74 41 76 35 79 c 0
EndSplineSet
Validated: 1
EndChar

StartChar: Iacute
Encoding: 205 205 150
Width: 766
Flags: HW
LayerCount: 2
Fore
SplineSet
35 79 m 0
 26 84 21 97 21 109 c 0
 21 120 25 130 33 133 c 0
 40 136 111 141 190 145 c 2
 333 153 l 1
 332 196 l 2
 332 220 331 356 330 497 c 2
 328 754 l 1
 192 752 l 2
 139 751 90 751 63 751 c 0
 52 751 45 751 43 751 c 2
 29 752 l 1
 33 780 l 1
 36 808 l 1
 103 816 l 2
 123 818 171 819 233 819 c 0
 286 819 350 818 412 817 c 2
 655 811 l 1
 673 797 l 1
 691 784 l 1
 680 765 l 1
 669 747 l 1
 531 746 l 1
 394 745 l 1
 392 608 l 2
 392 595 392 580 392 564 c 0
 392 487 394 384 397 312 c 2
 405 153 l 1
 562 153 l 1
 720 153 l 1
 731 135 l 1
 742 118 l 1
 729 104 l 1
 716 91 l 1
 550 85 l 2
 357 78 216 74 130 74 c 0
 73 74 41 76 35 79 c 0
EndSplineSet
Validated: 1
EndChar

StartChar: Icircumflex
Encoding: 206 206 151
Width: 766
Flags: HW
LayerCount: 2
Fore
SplineSet
35 79 m 0
 26 84 21 97 21 109 c 0
 21 120 25 130 33 133 c 0
 40 136 111 141 190 145 c 2
 333 153 l 1
 332 196 l 2
 332 220 331 356 330 497 c 2
 328 754 l 1
 192 752 l 2
 139 751 90 751 63 751 c 0
 52 751 45 751 43 751 c 2
 29 752 l 1
 33 780 l 1
 36 808 l 1
 103 816 l 2
 123 818 171 819 233 819 c 0
 286 819 350 818 412 817 c 2
 655 811 l 1
 673 797 l 1
 691 784 l 1
 680 765 l 1
 669 747 l 1
 531 746 l 1
 394 745 l 1
 392 608 l 2
 392 595 392 580 392 564 c 0
 392 487 394 384 397 312 c 2
 405 153 l 1
 562 153 l 1
 720 153 l 1
 731 135 l 1
 742 118 l 1
 729 104 l 1
 716 91 l 1
 550 85 l 2
 357 78 216 74 130 74 c 0
 73 74 41 76 35 79 c 0
EndSplineSet
Validated: 1
EndChar

StartChar: Idieresis
Encoding: 207 207 152
Width: 766
Flags: HW
LayerCount: 2
Fore
SplineSet
35 79 m 0
 26 84 21 97 21 109 c 0
 21 120 25 130 33 133 c 0
 40 136 111 141 190 145 c 2
 333 153 l 1
 332 196 l 2
 332 220 331 356 330 497 c 2
 328 754 l 1
 192 752 l 2
 139 751 90 751 63 751 c 0
 52 751 45 751 43 751 c 2
 29 752 l 1
 33 780 l 1
 36 808 l 1
 103 816 l 2
 123 818 171 819 233 819 c 0
 286 819 350 818 412 817 c 2
 655 811 l 1
 673 797 l 1
 691 784 l 1
 680 765 l 1
 669 747 l 1
 531 746 l 1
 394 745 l 1
 392 608 l 2
 392 595 392 580 392 564 c 0
 392 487 394 384 397 312 c 2
 405 153 l 1
 562 153 l 1
 720 153 l 1
 731 135 l 1
 742 118 l 1
 729 104 l 1
 716 91 l 1
 550 85 l 2
 357 78 216 74 130 74 c 0
 73 74 41 76 35 79 c 0
194 882 m 2
 171 898 l 1
 171 923 l 1
 171 948 l 1
 197 965 l 1
 223 982 l 1
 259 965 l 1
 294 948 l 1
 294 928 l 2
 294 902 260 866 235 866 c 0
 225 866 207 873 194 882 c 2
444 882 m 2
 421 898 l 1
 421 923 l 1
 421 948 l 1
 447 965 l 1
 473 982 l 1
 509 965 l 1
 544 948 l 1
 544 928 l 2
 544 902 510 866 485 866 c 0
 475 866 457 873 444 882 c 2
EndSplineSet
Validated: 1
EndChar

StartChar: Eth
Encoding: 208 208 153
Width: 816
Flags: HW
LayerCount: 2
Fore
SplineSet
69 385 m 0
 50 389 31 399 26 406 c 2
 18 420 l 1
 27 435 l 1
 36 451 l 1
 150 449 l 1
 148 801 l 1
 165 810 l 2
 174 815 225 819 278 819 c 2
 374 819 l 1
 435 804 l 2
 469 795 530 772 570 752 c 2
 643 716 l 1
 689 665 l 2
 714 637 745 593 758 567 c 2
 781 519 l 1
 786 445 l 1
 791 371 l 1
 769 300 l 2
 716 127 609 60 299 11 c 0
 198 -5 168 -10 158 -10 c 0
 154 -10 153 -9 153 -8 c 0
 153 -7 151 165 150 378 c 1
 113 379 83 382 69 385 c 0
334 87 m 0
 384 96 461 114 505 129 c 2
 585 156 l 1
 629 198 l 1
 673 241 l 1
 695 302 l 1
 718 364 l 1
 718 422 l 1
 718 480 l 1
 693 534 l 2
 660 606 603 662 526 697 c 0
 459 728 335 757 272 757 c 0
 267 757 263 756 259 756 c 2
 220 753 l 1
 220 448 l 1
 223 448 l 2
 326 446 415 441 420 436 c 0
 425 431 427 419 425 409 c 2
 421 390 l 1
 365 383 l 2
 330 379 274 377 220 377 c 1
 220 72 l 1
 231 72 l 2
 237 72 284 78 334 87 c 0
EndSplineSet
Validated: 1
EndChar

StartChar: Ograve
Encoding: 210 210 154
Width: 878
Flags: HW
LayerCount: 2
Fore
SplineSet
345 18 m 0
 285 29 161 86 115 125 c 0
 68 165 43 219 31 309 c 2
 20 386 l 1
 32 450 l 2
 48 537 93 631 154 697 c 2
 204 752 l 1
 269 781 l 1
 333 810 l 1
 436 815 l 1
 538 819 l 1
 596 807 l 2
 665 793 715 762 743 716 c 0
 754 698 778 664 796 641 c 0
 814 618 835 581 841 557 c 2
 853 515 l 1
 848 422 l 1
 842 330 l 1
 821 263 l 2
 795 181 765 137 711 95 c 0
 646 45 521 12 415 12 c 0
 390 12 366 14 345 18 c 0
574 105 m 0
 599 114 639 133 664 147 c 2
 709 174 l 1
 728 217 l 2
 760 289 779 378 780 455 c 2
 780 528 l 1
 765 558 l 2
 748 591 713 622 651 657 c 2
 610 680 l 1
 613 706 l 1
 615 733 l 1
 543 745 l 1
 471 757 l 1
 404 746 l 2
 283 725 225 691 170 608 c 0
 119 531 94 452 94 371 c 0
 94 343 97 315 103 287 c 2
 114 237 l 1
 143 201 l 2
 178 159 252 117 329 95 c 2
 385 79 l 1
 456 84 l 2
 495 86 549 96 574 105 c 0
EndSplineSet
Validated: 1
EndChar

StartChar: Oacute
Encoding: 211 211 155
Width: 878
Flags: HW
LayerCount: 2
Fore
SplineSet
345 18 m 0
 285 29 161 86 115 125 c 0
 68 165 43 219 31 309 c 2
 20 386 l 1
 32 450 l 2
 48 537 93 631 154 697 c 2
 204 752 l 1
 269 781 l 1
 333 810 l 1
 436 815 l 1
 538 819 l 1
 596 807 l 2
 665 793 715 762 743 716 c 0
 754 698 778 664 796 641 c 0
 814 618 835 581 841 557 c 2
 853 515 l 1
 848 422 l 1
 842 330 l 1
 821 263 l 2
 795 181 765 137 711 95 c 0
 646 45 521 12 415 12 c 0
 390 12 366 14 345 18 c 0
574 105 m 0
 599 114 639 133 664 147 c 2
 709 174 l 1
 728 217 l 2
 760 289 779 378 780 455 c 2
 780 528 l 1
 765 558 l 2
 748 591 713 622 651 657 c 2
 610 680 l 1
 613 706 l 1
 615 733 l 1
 543 745 l 1
 471 757 l 1
 404 746 l 2
 283 725 225 691 170 608 c 0
 119 531 94 452 94 371 c 0
 94 343 97 315 103 287 c 2
 114 237 l 1
 143 201 l 2
 178 159 252 117 329 95 c 2
 385 79 l 1
 456 84 l 2
 495 86 549 96 574 105 c 0
EndSplineSet
Validated: 1
EndChar

StartChar: Ocircumflex
Encoding: 212 212 156
Width: 878
Flags: HW
LayerCount: 2
Fore
SplineSet
345 18 m 0
 285 29 161 86 115 125 c 0
 68 165 43 219 31 309 c 2
 20 386 l 1
 32 450 l 2
 48 537 93 631 154 697 c 2
 204 752 l 1
 269 781 l 1
 333 810 l 1
 436 815 l 1
 538 819 l 1
 596 807 l 2
 665 793 715 762 743 716 c 0
 754 698 778 664 796 641 c 0
 814 618 835 581 841 557 c 2
 853 515 l 1
 848 422 l 1
 842 330 l 1
 821 263 l 2
 795 181 765 137 711 95 c 0
 646 45 521 12 415 12 c 0
 390 12 366 14 345 18 c 0
574 105 m 0
 599 114 639 133 664 147 c 2
 709 174 l 1
 728 217 l 2
 760 289 779 378 780 455 c 2
 780 528 l 1
 765 558 l 2
 748 591 713 622 651 657 c 2
 610 680 l 1
 613 706 l 1
 615 733 l 1
 543 745 l 1
 471 757 l 1
 404 746 l 2
 283 725 225 691 170 608 c 0
 119 531 94 452 94 371 c 0
 94 343 97 315 103 287 c 2
 114 237 l 1
 143 201 l 2
 178 159 252 117 329 95 c 2
 385 79 l 1
 456 84 l 2
 495 86 549 96 574 105 c 0
EndSplineSet
Validated: 1
EndChar

StartChar: Otilde
Encoding: 213 213 157
Width: 878
Flags: HW
LayerCount: 2
Fore
SplineSet
345 18 m 0
 285 29 161 86 115 125 c 0
 68 165 43 219 31 309 c 2
 20 386 l 1
 32 450 l 2
 48 537 93 631 154 697 c 2
 204 752 l 1
 269 781 l 1
 333 810 l 1
 436 815 l 1
 538 819 l 1
 596 807 l 2
 665 793 715 762 743 716 c 0
 754 698 778 664 796 641 c 0
 814 618 835 581 841 557 c 2
 853 515 l 1
 848 422 l 1
 842 330 l 1
 821 263 l 2
 795 181 765 137 711 95 c 0
 646 45 521 12 415 12 c 0
 390 12 366 14 345 18 c 0
574 105 m 0
 599 114 639 133 664 147 c 2
 709 174 l 1
 728 217 l 2
 760 289 779 378 780 455 c 2
 780 528 l 1
 765 558 l 2
 748 591 713 622 651 657 c 2
 610 680 l 1
 613 706 l 1
 615 733 l 1
 543 745 l 1
 471 757 l 1
 404 746 l 2
 283 725 225 691 170 608 c 0
 119 531 94 452 94 371 c 0
 94 343 97 315 103 287 c 2
 114 237 l 1
 143 201 l 2
 178 159 252 117 329 95 c 2
 385 79 l 1
 456 84 l 2
 495 86 549 96 574 105 c 0
EndSplineSet
Validated: 1
EndChar

StartChar: Odieresis
Encoding: 214 214 158
Width: 878
Flags: HW
LayerCount: 2
Fore
SplineSet
345 18 m 0
 285 29 161 86 115 125 c 0
 68 165 43 219 31 309 c 2
 20 386 l 1
 32 450 l 2
 48 537 93 631 154 697 c 2
 204 752 l 1
 269 781 l 1
 333 810 l 1
 436 815 l 1
 538 819 l 1
 596 807 l 2
 665 793 715 762 743 716 c 0
 754 698 778 664 796 641 c 0
 814 618 835 581 841 557 c 2
 853 515 l 1
 848 422 l 1
 842 330 l 1
 821 263 l 2
 795 181 765 137 711 95 c 0
 646 45 521 12 415 12 c 0
 390 12 366 14 345 18 c 0
574 105 m 0
 599 114 639 133 664 147 c 2
 709 174 l 1
 728 217 l 2
 760 289 779 378 780 455 c 2
 780 528 l 1
 765 558 l 2
 748 591 713 622 651 657 c 2
 610 680 l 1
 613 706 l 1
 615 733 l 1
 543 745 l 1
 471 757 l 1
 404 746 l 2
 283 725 225 691 170 608 c 0
 119 531 94 452 94 371 c 0
 94 343 97 315 103 287 c 2
 114 237 l 1
 143 201 l 2
 178 159 252 117 329 95 c 2
 385 79 l 1
 456 84 l 2
 495 86 549 96 574 105 c 0
273 882 m 2
 250 898 l 1
 250 923 l 1
 250 948 l 1
 276 965 l 1
 302 982 l 1
 338 965 l 1
 373 948 l 1
 373 928 l 2
 373 902 339 866 314 866 c 0
 304 866 286 873 273 882 c 2
523 882 m 2
 500 898 l 1
 500 923 l 1
 500 948 l 1
 526 965 l 1
 552 982 l 1
 588 965 l 1
 623 948 l 1
 623 928 l 2
 623 902 589 866 564 866 c 0
 554 866 536 873 523 882 c 2
EndSplineSet
Validated: 1
EndChar

StartChar: Ugrave
Encoding: 217 217 159
Width: 581
Flags: HW
LayerCount: 2
Fore
SplineSet
172 55 m 0
 150 63 114 87 92 108 c 2
 52 147 l 1
 36 203 l 1
 20 258 l 1
 27 336 l 2
 40 486 100 710 147 787 c 2
 166 819 l 1
 189 816 l 1
 212 813 l 1
 215 790 l 2
 217 778 209 751 198 729 c 0
 149 632 94 400 94 290 c 2
 94 239 l 1
 117 194 l 1
 140 149 l 1
 176 129 l 1
 212 110 l 1
 270 114 l 1
 328 118 l 1
 364 145 l 1
 400 173 l 1
 426 227 l 2
 462 301 484 422 485 557 c 2
 486 669 l 1
 474 698 l 2
 468 714 463 741 463 758 c 2
 463 788 l 1
 491 785 l 1
 519 782 l 1
 537 731 l 1
 556 680 l 1
 551 526 l 1
 546 372 l 1
 530 308 l 2
 500 185 446 105 368 66 c 2
 315 40 l 1
 264 40 l 2
 236 40 194 47 172 55 c 0
EndSplineSet
Validated: 33
EndChar

StartChar: Uacute
Encoding: 218 218 160
Width: 581
Flags: HW
LayerCount: 2
Fore
SplineSet
172 55 m 0
 150 63 114 87 92 108 c 2
 52 147 l 1
 36 203 l 1
 20 258 l 1
 27 336 l 2
 40 486 100 710 147 787 c 2
 166 819 l 1
 189 816 l 1
 212 813 l 1
 215 790 l 2
 217 778 209 751 198 729 c 0
 149 632 94 400 94 290 c 2
 94 239 l 1
 117 194 l 1
 140 149 l 1
 176 129 l 1
 212 110 l 1
 270 114 l 1
 328 118 l 1
 364 145 l 1
 400 173 l 1
 426 227 l 2
 462 301 484 422 485 557 c 2
 486 669 l 1
 474 698 l 2
 468 714 463 741 463 758 c 2
 463 788 l 1
 491 785 l 1
 519 782 l 1
 537 731 l 1
 556 680 l 1
 551 526 l 1
 546 372 l 1
 530 308 l 2
 500 185 446 105 368 66 c 2
 315 40 l 1
 264 40 l 2
 236 40 194 47 172 55 c 0
198 869 m 1
 180 883 l 1
 190 899 l 2
 202 919 410 1016 444 1018 c 2
 467 1019 l 1
 479 1001 l 1
 490 983 l 1
 467 966 l 2
 442 947 287 877 243 864 c 2
 216 856 l 1
 198 869 l 1
EndSplineSet
Validated: 33
EndChar

StartChar: Ucircumflex
Encoding: 219 219 161
Width: 581
Flags: HW
LayerCount: 2
Fore
SplineSet
172 55 m 0
 150 63 114 87 92 108 c 2
 52 147 l 1
 36 203 l 1
 20 258 l 1
 27 336 l 2
 40 486 100 710 147 787 c 2
 166 819 l 1
 189 816 l 1
 212 813 l 1
 215 790 l 2
 217 778 209 751 198 729 c 0
 149 632 94 400 94 290 c 2
 94 239 l 1
 117 194 l 1
 140 149 l 1
 176 129 l 1
 212 110 l 1
 270 114 l 1
 328 118 l 1
 364 145 l 1
 400 173 l 1
 426 227 l 2
 462 301 484 422 485 557 c 2
 486 669 l 1
 474 698 l 2
 468 714 463 741 463 758 c 2
 463 788 l 1
 491 785 l 1
 519 782 l 1
 537 731 l 1
 556 680 l 1
 551 526 l 1
 546 372 l 1
 530 308 l 2
 500 185 446 105 368 66 c 2
 315 40 l 1
 264 40 l 2
 236 40 194 47 172 55 c 0
EndSplineSet
Validated: 33
EndChar

StartChar: Udieresis
Encoding: 220 220 162
Width: 581
Flags: HW
LayerCount: 2
Fore
SplineSet
172 55 m 0
 150 63 114 87 92 108 c 2
 52 147 l 1
 36 203 l 1
 20 258 l 1
 27 336 l 2
 40 486 100 710 147 787 c 2
 166 819 l 1
 189 816 l 1
 212 813 l 1
 215 790 l 2
 217 778 209 751 198 729 c 0
 149 632 94 400 94 290 c 2
 94 239 l 1
 117 194 l 1
 140 149 l 1
 176 129 l 1
 212 110 l 1
 270 114 l 1
 328 118 l 1
 364 145 l 1
 400 173 l 1
 426 227 l 2
 462 301 484 422 485 557 c 2
 486 669 l 1
 474 698 l 2
 468 714 463 741 463 758 c 2
 463 788 l 1
 491 785 l 1
 519 782 l 1
 537 731 l 1
 556 680 l 1
 551 526 l 1
 546 372 l 1
 530 308 l 2
 500 185 446 105 368 66 c 2
 315 40 l 1
 264 40 l 2
 236 40 194 47 172 55 c 0
183 882 m 2
 160 898 l 1
 160 923 l 1
 160 948 l 1
 186 965 l 1
 212 982 l 1
 248 965 l 1
 283 948 l 1
 283 928 l 2
 283 902 249 866 224 866 c 0
 214 866 196 873 183 882 c 2
433 882 m 2
 410 898 l 1
 410 923 l 1
 410 948 l 1
 436 965 l 1
 462 982 l 1
 498 965 l 1
 533 948 l 1
 533 928 l 2
 533 902 499 866 474 866 c 0
 464 866 446 873 433 882 c 2
EndSplineSet
Validated: 33
EndChar

StartChar: Yacute
Encoding: 221 221 163
Width: 588
Flags: HW
LayerCount: 2
Fore
SplineSet
278 93 m 2
 264 111 l 1
 264 292 l 1
 265 474 l 1
 237 490 l 2
 222 499 184 534 153 568 c 2
 96 630 l 1
 57 707 l 1
 19 785 l 1
 30 802 l 2
 36 811 49 819 59 819 c 2
 78 819 l 1
 117 741 l 1
 157 663 l 1
 214 605 l 2
 246 573 278 548 285 548 c 0
 292 548 338 595 387 651 c 0
 436 707 488 762 502 773 c 2
 527 793 l 1
 546 783 l 2
 557 777 565 767 565 760 c 0
 565 753 519 695 462 630 c 0
 405 565 355 505 350 495 c 0
 339 475 323 281 323 177 c 0
 323 169 323 161 323 154 c 2
 325 82 l 1
 309 79 l 2
 308 79 306 79 305 79 c 0
 296 79 285 84 278 93 c 2
EndSplineSet
Validated: 1
EndChar

StartChar: ae
Encoding: 230 230 164
Width: 887
Flags: HW
LayerCount: 2
Fore
SplineSet
357 320 m 2
 372 381 l 1
 361 393 l 1
 349 404 l 1
 293 403 l 1
 237 402 l 1
 197 375 l 2
 148 342 107 275 98 212 c 2
 91 164 l 1
 105 132 l 1
 118 100 l 1
 148 87 l 2
 161 82 172 79 184 79 c 0
 204 79 225 87 250 105 c 0
 285 130 317 183 340 258 c 1
 340 273 l 1
 356 318 l 2
 356 319 357 319 357 320 c 2
690 312 m 2
 714 329 742 357 753 376 c 2
 773 410 l 1
 762 421 l 2
 756 427 731 434 706 437 c 2
 660 442 l 1
 600 425 l 2
 519 402 456 363 437 326 c 2
 432 317 l 2
 431 309 430 301 429 293 c 1
 434 291 l 2
 460 283 491 278 540 278 c 0
 550 278 560 279 572 279 c 2
 646 281 l 1
 690 312 l 2
105 28 m 0
 63 49 36 92 27 150 c 2
 20 194 l 1
 33 248 l 2
 55 339 123 423 199 455 c 2
 237 471 l 1
 301 471 l 1
 365 471 l 1
 399 450 l 2
 413 442 426 430 434 421 c 1
 485 462 556 491 636 503 c 2
 705 513 l 1
 749 501 l 2
 773 494 805 478 819 464 c 2
 844 438 l 1
 838 402 l 2
 826 325 736 238 643 213 c 2
 601 202 l 1
 516 209 l 2
 473 213 432 218 418 221 c 1
 415 195 413 174 412 156 c 1
 422 123 440 103 469 88 c 1
 490 93 l 1
 504 76 l 1
 506 74 l 1
 523 69 543 64 565 59 c 2
 622 47 l 1
 675 58 l 2
 710 64 745 91 776 105 c 0
 805 118 825 125 839 125 c 0
 856 125 863 115 863 95 c 2
 863 71 l 1
 814 46 l 2
 740 8 688 -15 619 -15 c 0
 604 -15 587 -13 569 -11 c 0
 522 -4 484 2 453 13 c 1
 431 7 l 1
 406 19 l 2
 392 25 372 44 362 61 c 2
 343 92 l 1
 325 72 l 2
 291 34 233 13 178 13 c 0
 152 13 126 18 105 28 c 0
EndSplineSet
Validated: 1
EndChar

StartChar: AE
Encoding: 198 198 165
Width: 1090
Flags: HW
LayerCount: 2
Fore
SplineSet
406 366 m 2
 406 372 391 435 373 507 c 2
 340 637 l 1
 291 506 l 2
 264 434 243 371 243 366 c 2
 243 356 l 1
 325 356 l 1
 406 356 l 1
 406 366 l 2
30 -11 m 0
 23 -8 19 -3 19 7 c 0
 19 28 36 72 80 172 c 0
 184 411 246 573 294 732 c 2
 318 812 l 1
 337 818 l 2
 340 819 344 819 347 819 c 0
 367 819 386 802 386 780 c 0
 386 770 400 701 418 626 c 0
 429 582 446 505 465 423 c 1
 471 489 l 2
 479 586 483 652 483 698 c 0
 483 731 481 752 477 767 c 2
 470 794 l 1
 488 802 l 2
 498 807 624 812 766 815 c 2
 1025 819 l 1
 1040 807 l 2
 1050 799 1055 788 1055 778 c 0
 1055 766 1049 756 1037 752 c 0
 1029 750 954 748 859 748 c 0
 839 748 818 748 796 748 c 2
 573 749 l 1
 565 739 l 2
 560 734 553 666 549 588 c 2
 541 447 l 1
 634 450 l 1
 728 452 l 1
 740 440 l 1
 753 427 l 1
 741 410 l 1
 730 392 l 1
 690 385 l 2
 668 381 624 377 592 377 c 2
 533 377 l 1
 534 313 l 2
 535 278 538 207 542 157 c 2
 548 66 l 1
 686 68 l 2
 762 69 872 77 929 85 c 0
 973 91 1016 95 1037 95 c 0
 1043 95 1048 95 1050 94 c 2
 1066 87 l 1
 1063 60 l 1
 1060 34 l 1
 983 21 l 2
 941 14 817 6 707 2 c 2
 546 -4 l 1
 540 -13 533 -18 524 -18 c 0
 517 -18 510 -15 502 -10 c 0
 500 -9 496 1 491 15 c 1
 477 30 l 1
 475 67 l 1
 469 88 464 111 458 135 c 0
 441 210 424 275 421 280 c 0
 417 286 361 289 309 289 c 0
 265 289 224 287 216 282 c 0
 210 278 178 215 145 143 c 0
 89 17 71 -15 47 -15 c 0
 42 -15 36 -14 30 -11 c 0
EndSplineSet
Validated: 1
EndChar

StartChar: plusminus
Encoding: 177 177 166
Width: 577
Flags: HW
LayerCount: 2
Fore
SplineSet
124 35 m 0
 105 39 86 49 81 56 c 2
 73 70 l 1
 82 85 l 1
 91 101 l 1
 249 98 l 1
 249 109 249 120 250 132 c 2
 253 210 l 1
 159 207 l 2
 145 206 131 206 118 206 c 0
 82 206 53 208 44 211 c 2
 23 218 l 1
 23 236 l 2
 23 246 29 260 36 266 c 2
 50 277 l 1
 157 280 l 1
 264 283 l 1
 267 392 l 1
 269 501 l 1
 283 512 l 2
 291 518 304 521 313 518 c 2
 330 511 l 1
 336 475 l 2
 338 463 340 439 340 414 c 0
 340 397 339 380 338 364 c 2
 332 289 l 1
 441 291 l 1
 550 293 l 1
 554 274 l 2
 555 271 555 268 555 265 c 0
 555 241 529 233 438 226 c 0
 384 222 337 216 334 213 c 0
 331 210 324 173 319 130 c 0
 318 119 316 107 315 97 c 1
 402 95 471 90 475 86 c 0
 480 81 482 69 480 59 c 2
 476 40 l 1
 420 33 l 2
 384 29 328 27 273 27 c 0
 209 27 147 30 124 35 c 0
EndSplineSet
Validated: 1
EndChar

StartChar: Ccedilla
Encoding: 199 199 167
Width: 670
Flags: HW
LayerCount: 2
Fore
SplineSet
390 -42 m 0
 359 -37 305 -20 270 -3 c 2
 206 27 l 1
 155 79 l 1
 104 132 l 1
 69 205 l 1
 34 279 l 1
 27 336 l 1
 20 392 l 1
 31 453 l 2
 56 588 151 727 259 782 c 2
 314 810 l 1
 393 814 l 1
 472 819 l 1
 519 806 l 1
 566 793 l 1
 602 759 l 1
 638 725 l 1
 635 708 l 2
 633 698 624 686 614 680 c 2
 596 669 l 1
 567 696 l 2
 528 733 489 747 416 747 c 2
 354 747 l 1
 314 730 l 2
 252 704 207 665 165 600 c 2
 127 541 l 1
 109 474 l 1
 91 407 l 1
 96 351 l 2
 99 320 114 269 128 238 c 2
 154 181 l 1
 209 127 l 1
 263 72 l 1
 324 49 l 1
 385 25 l 1
 457 24 l 2
 461 24 466 24 470 24 c 0
 508 24 555 28 581 32 c 2
 633 41 l 1
 640 22 l 1
 647 4 l 1
 629 -14 l 1
 611 -32 l 1
 544 -43 l 2
 507 -49 488 -52 469 -52 c 0
 449 -52 430 -49 390 -42 c 0
EndSplineSet
Validated: 1
EndChar

StartChar: Euro
Encoding: 164 8364 168
Width: 886
Flags: HW
LayerCount: 2
Fore
SplineSet
549 23 m 0
 477 34 380 69 318 105 c 2
 264 135 l 1
 235 182 l 1
 205 229 l 1
 124 234 l 1
 43 239 l 1
 32 256 l 1
 21 273 l 1
 34 286 l 1
 46 299 l 1
 119 304 l 1
 191 309 l 1
 191 338 l 1
 191 366 l 1
 111 368 l 1
 31 369 l 1
 27 388 l 1
 23 408 l 1
 41 421 l 1
 59 434 l 1
 128 434 l 1
 196 434 l 1
 223 492 l 1
 250 549 l 1
 311 610 l 1
 373 672 l 1
 442 705 l 1
 510 739 l 1
 595 738 l 1
 681 738 l 1
 728 715 l 2
 802 680 864 592 864 529 c 0
 864 526 864 524 864 521 c 2
 861 489 l 1
 837 489 l 1
 813 489 l 1
 794 541 l 1
 775 593 l 1
 740 623 l 2
 703 656 650 673 594 673 c 0
 553 673 511 664 472 645 c 0
 412 616 327 538 297 485 c 2
 274 444 l 1
 326 444 l 2
 354 444 420 449 472 455 c 2
 567 466 l 1
 582 452 l 1
 596 438 l 1
 590 421 l 2
 582 399 568 396 401 381 c 2
 261 369 l 1
 257 341 l 1
 254 313 l 1
 322 321 l 2
 360 325 407 329 426 329 c 2
 461 329 l 1
 461 299 l 1
 461 269 l 1
 373 258 l 2
 325 252 283 245 280 242 c 0
 280 242 279 241 279 240 c 0
 279 235 289 220 301 205 c 0
 333 167 427 122 521 99 c 2
 591 82 l 1
 651 89 l 2
 684 93 725 96 741 97 c 2
 771 99 l 1
 771 74 l 1
 771 49 l 1
 746 37 l 2
 722 26 666 19 613 19 c 0
 590 19 568 20 549 23 c 0
EndSplineSet
Validated: 1
EndChar

StartChar: cent
Encoding: 162 162 169
Width: 512
Flags: HW
LayerCount: 2
Fore
SplineSet
225 427 m 1
 199 413 l 1
 165 395 l 1
 136 349 l 2
 120 323 100 277 94 246 c 2
 83 190 l 1
 97 152 l 1
 111 115 l 1
 146 103 l 2
 162 97 194 93 225 91 c 1
 225 280 l 1
 225 427 l 1
150 27 m 0
 103 38 59 68 40 100 c 2
 23 128 l 1
 23 200 l 1
 23 271 l 1
 38 314 l 2
 46 338 67 377 85 401 c 2
 117 446 l 1
 168 473 l 1
 219 501 l 1
 225 501 l 1
 225 665 l 1
 244 669 l 2
 246 669 248 670 250 670 c 0
 259 670 270 666 275 661 c 2
 287 649 l 1
 287 534 l 2
 287 526 287 517 287 506 c 1
 299 507 l 1
 379 512 l 1
 425 490 l 1
 471 467 l 1
 484 438 l 2
 489 427 491 416 491 407 c 0
 491 403 490 399 489 397 c 0
 484 390 477 386 467 386 c 0
 451 386 431 396 415 413 c 2
 390 440 l 1
 312 435 l 1
 288 434 l 1
 289 354 290 247 291 151 c 0
 291 130 292 109 292 89 c 1
 318 89 l 1
 380 108 l 2
 407 116 426 121 439 121 c 0
 456 121 463 113 463 98 c 0
 463 95 462 92 462 88 c 2
 458 64 l 1
 392 41 l 1
 325 18 l 1
 292 18 l 1
 292 -66 290 -124 287 -128 c 0
 283 -135 276 -138 269 -138 c 0
 259 -138 248 -133 239 -122 c 2
 225 -105 l 1
 225 20 l 1
 194 21 163 24 150 27 c 0
EndSplineSet
Validated: 1
EndChar

StartChar: oslash
Encoding: 248 248 170
Width: 578
Flags: HW
LayerCount: 2
Fore
SplineSet
164 20 m 0
 149 25 120 39 100 51 c 2
 63 74 l 1
 42 115 l 1
 21 157 l 1
 25 225 l 1
 29 292 l 1
 52 338 l 2
 65 364 94 405 116 429 c 2
 156 472 l 1
 210 497 l 1
 264 522 l 1
 306 522 l 2
 360 522 433 500 473 472 c 2
 504 450 l 1
 526 402 l 1
 548 353 l 1
 548 295 l 1
 548 236 l 1
 525 190 l 2
 497 132 446 87 365 49 c 2
 301 19 l 1
 246 15 l 2
 238 14 230 14 222 14 c 0
 199 14 175 16 164 20 c 0
300 98 m 0
 324 107 364 126 388 141 c 2
 431 168 l 1
 455 209 l 1
 478 251 l 1
 478 300 l 1
 478 349 l 1
 431 396 l 1
 384 443 l 1
 332 448 l 1
 280 453 l 1
 234 431 l 2
 154 392 91 294 91 208 c 2
 91 166 l 1
 109 138 l 2
 132 103 174 84 223 84 c 0
 247 84 273 89 300 98 c 0
EndSplineSet
Validated: 1
EndChar

StartChar: yen
Encoding: 165 165 171
Width: 586
Flags: HW
LayerCount: 2
Fore
SplineSet
279 93 m 2
 265 111 l 1
 265 267 l 1
 214 268 170 271 151 275 c 0
 132 279 113 289 108 296 c 2
 100 310 l 1
 109 325 l 1
 118 341 l 1
 265 339 l 1
 265 377 l 1
 214 378 170 381 151 385 c 0
 132 389 113 399 108 406 c 2
 100 420 l 1
 109 435 l 1
 118 451 l 1
 266 449 l 1
 266 474 l 1
 238 490 l 2
 223 499 185 534 154 568 c 2
 97 630 l 1
 58 707 l 1
 20 785 l 1
 31 802 l 2
 37 811 50 819 60 819 c 2
 79 819 l 1
 118 741 l 1
 158 663 l 1
 215 605 l 2
 247 573 279 548 286 548 c 0
 293 548 339 595 388 651 c 0
 437 707 489 762 503 773 c 2
 528 793 l 1
 547 783 l 2
 558 777 566 767 566 760 c 0
 566 753 520 695 463 630 c 0
 406 565 356 505 351 495 c 0
 348 490 344 472 341 447 c 1
 428 445 498 440 502 436 c 0
 507 431 509 419 507 409 c 2
 503 390 l 1
 447 383 l 2
 419 380 377 378 334 377 c 1
 333 364 332 351 331 337 c 1
 423 335 497 331 502 326 c 0
 507 321 509 309 507 299 c 2
 503 280 l 1
 447 273 l 2
 417 270 372 268 326 267 c 1
 325 236 324 205 324 180 c 0
 324 171 324 162 324 154 c 2
 326 82 l 1
 310 79 l 2
 309 79 307 79 306 79 c 0
 297 79 286 84 279 93 c 2
EndSplineSet
Validated: 1
EndChar

StartChar: sterling
Encoding: 163 163 172
Width: 732
Flags: HW
LayerCount: 2
Fore
SplineSet
36 26 m 0
 30 39 25 54 25 64 c 0
 25 66 25 68 26 70 c 2
 32 85 l 1
 73 91 l 2
 164 106 250 161 276 223 c 2
 290 253 l 1
 281 288 l 2
 277 307 267 334 260 349 c 2
 248 377 l 1
 139 377 l 1
 30 377 l 1
 24 393 l 2
 23 397 22 400 22 403 c 0
 22 422 49 433 116 442 c 2
 190 452 l 1
 141 507 l 2
 87 567 61 612 61 653 c 0
 61 675 68 696 83 718 c 0
 95 737 128 764 155 781 c 2
 204 812 l 1
 276 815 l 1
 349 819 l 1
 404 803 l 1
 459 787 l 1
 499 742 l 2
 534 702 551 663 551 621 c 0
 551 613 541 597 530 586 c 2
 509 566 l 1
 495 577 l 2
 487 584 481 604 481 622 c 2
 481 654 l 1
 458 688 l 1
 435 722 l 1
 400 734 l 2
 377 742 337 746 299 746 c 0
 265 746 232 743 214 736 c 0
 199 730 173 713 158 699 c 2
 131 673 l 1
 131 648 l 1
 131 622 l 1
 207 534 l 1
 283 447 l 1
 416 447 l 1
 550 447 l 1
 556 437 l 2
 559 431 559 418 556 407 c 2
 549 387 l 1
 488 387 l 2
 454 387 402 384 374 381 c 2
 323 374 l 1
 337 341 l 2
 345 323 351 284 351 255 c 2
 351 202 l 1
 326 165 l 2
 312 145 301 125 301 122 c 0
 301 119 355 117 421 117 c 2
 542 117 l 1
 612 133 l 2
 642 140 671 144 687 144 c 0
 691 144 695 144 697 143 c 2
 712 137 l 1
 709 115 l 1
 706 92 l 1
 679 79 l 2
 664 72 617 62 574 56 c 2
 496 46 l 1
 406 52 l 1
 316 59 l 1
 232 48 l 2
 186 42 129 28 106 17 c 0
 81 5 69 -1 60 -1 c 0
 50 -1 46 7 36 26 c 0
EndSplineSet
Validated: 1
EndChar

StartChar: eth
Encoding: 240 240 173
Width: 794
Flags: HW
LayerCount: 2
Fore
SplineSet
84 302 m 1
 92 211 l 2
 99 130 171 82 260 82 c 0
 281 82 303 84 325 90 c 0
 348 96 389 116 415 135 c 2
 462 169 l 1
 482 208 l 2
 504 253 548 328 548 347 c 0
 548 348 547 349 547 350 c 0
 544 355 545 369 538 369 c 0
 531 369 521 376 518 385 c 2
 512 402 l 1
 528 420 l 1
 535 428 l 1
 518 455 l 2
 498 486 448 508 382 516 c 2
 335 522 l 1
 281 509 l 1
 228 496 l 1
 177 445 l 1
 126 394 l 1
 84 302 l 1
20 315 m 1
 60 400 l 1
 80 467 145 524 211 556 c 2
 267 584 l 1
 347 584 l 2
 432 584 490 569 537 536 c 2
 566 515 l 1
 528 650 l 2
 514 689 501 724 499 726 c 0
 498 726 l 0
 492 726 451 709 403 685 c 2
 340 650 l 1
 321 660 l 1
 301 670 l 1
 304 687 l 1
 307 704 l 1
 375 744 l 2
 429 772 472 798 472 804 c 0
 472 810 459 843 443 879 c 2
 414 943 l 1
 424 961 l 2
 429 971 440 979 448 979 c 0
 465 979 505 919 523 866 c 0
 530 845 540 829 545 829 c 0
 550 829 607 849 672 874 c 2
 740 899 l 1
 756 893 l 1
 772 887 l 1
 772 864 l 1
 772 841 l 1
 725 821 l 2
 699 810 690 807 644 789 c 2
 561 757 l 1
 568 741 l 2
 572 732 586 690 600 649 c 1
 626 374 l 1
 614 310 l 2
 607 275 594 262 580 224 c 1
 540 158 l 1
 496 114 l 2
 431 49 348 14 261 14 c 0
 245 14 229 15 212 18 c 0
 161 26 113 45 79 79 c 0
 59 100 43 125 37 158 c 2
 20 315 l 1
EndSplineSet
Validated: 1
EndChar

StartChar: ordfeminine
Encoding: 170 170 174
Width: 390
Flags: HW
LayerCount: 2
Fore
SplineSet
175 669 m 2
 194 696 204 713 204 725 c 0
 204 734 198 740 188 744 c 2
 172 751 l 1
 133 709 l 2
 112 686 95 659 95 648 c 2
 95 627 l 1
 120 627 l 1
 145 627 l 1
 175 669 l 2
51 578 m 1
 25 599 l 1
 25 628 l 2
 25 692 77 772 139 804 c 2
 167 819 l 1
 200 813 l 2
 218 810 245 798 260 786 c 2
 287 764 l 1
 283 698 l 1
 280 632 l 1
 320 632 l 1
 360 632 l 1
 360 608 l 1
 360 583 l 1
 335 570 l 2
 321 563 298 557 283 557 c 2
 255 557 l 1
 234 578 l 1
 214 598 l 1
 181 578 l 1
 148 557 l 1
 113 557 l 1
 78 557 l 1
 51 578 l 1
EndSplineSet
Validated: 1
EndChar

StartChar: ordmasculine
Encoding: 186 186 175
Width: 376
Flags: HW
LayerCount: 2
Fore
SplineSet
225 575 m 2
 242 592 250 603 250 610 c 0
 250 615 246 619 237 622 c 0
 229 625 215 643 206 660 c 2
 190 691 l 1
 202 720 l 2
 207 733 210 741 210 747 c 0
 210 752 208 755 203 755 c 0
 197 755 187 752 174 745 c 0
 138 727 103 674 95 626 c 2
 90 591 l 1
 111 570 l 1
 132 549 l 1
 165 549 l 1
 199 549 l 1
 225 575 l 2
102 497 m 0
 83 507 57 530 44 549 c 2
 20 584 l 1
 26 628 l 2
 29 652 44 693 59 721 c 2
 86 771 l 1
 121 795 l 1
 156 819 l 1
 199 819 l 2
 254 819 303 799 330 764 c 2
 352 736 l 1
 352 692 l 2
 352 637 334 593 292 545 c 0
 253 501 212 479 170 479 c 0
 148 479 125 485 102 497 c 0
EndSplineSet
Validated: 1
EndChar

StartChar: Oslash
Encoding: 216 216 176
Width: 1079
Flags: HW
LayerCount: 2
Fore
SplineSet
367 339 m 0
 450 435 584 581 664 662 c 0
 742 741 805 808 805 814 c 0
 805 816 772 824 730 829 c 2
 660 839 l 1
 597 828 l 2
 497 812 411 762 306 657 c 0
 195 546 136 430 136 325 c 0
 136 294 141 264 151 236 c 0
 165 197 192 161 206 161 c 0
 207 161 207 161 208 161 c 0
 212 163 284 243 367 339 c 0
534 94 m 0
 598 109 715 164 753 196 c 0
 817 251 920 416 935 486 c 2
 946 538 l 1
 932 573 l 2
 924 592 917 623 917 641 c 0
 917 679 880 759 863 759 c 0
 831 759 274 142 274 109 c 0
 274 104 310 81 411 81 c 0
 452 81 497 85 534 94 c 0
29 -99 m 0
 22 -92 18 -86 18 -78 c 0
 18 -63 32 -43 64 -8 c 0
 90 21 122 56 135 71 c 2
 158 97 l 1
 127 140 l 2
 110 164 89 208 80 238 c 2
 64 293 l 1
 70 359 l 2
 80 478 134 579 255 702 c 0
 346 795 433 854 517 880 c 2
 579 899 l 1
 665 899 l 1
 751 899 l 1
 815 883 l 1
 879 867 l 1
 886 876 l 2
 889 881 920 908 955 937 c 2
 1018 989 l 1
 1038 979 l 2
 1049 973 1057 960 1057 950 c 2
 1057 931 l 1
 986 875 l 1
 916 818 l 1
 937 784 l 2
 948 766 968 718 982 678 c 2
 1007 606 l 1
 1006 540 l 1
 1006 474 l 1
 989 424 l 2
 968 363 897 254 827 176 c 2
 775 119 l 1
 692 79 l 2
 646 57 576 32 535 23 c 2
 462 7 l 1
 387 13 l 2
 346 16 290 26 263 35 c 2
 214 52 l 1
 138 -30 l 2
 96 -75 57 -111 51 -111 c 0
 45 -111 36 -106 29 -99 c 0
EndSplineSet
Validated: 1
EndChar

StartChar: Thorn
Encoding: 222 222 177
Width: 454
Flags: HW
LayerCount: 2
Fore
SplineSet
279 114 m 2
 314 128 l 1
 334 162 l 1
 354 195 l 1
 354 236 l 1
 354 278 l 1
 330 298 l 2
 316 309 291 323 274 330 c 2
 244 342 l 1
 212 333 l 1
 181 325 l 1
 151 288 l 2
 135 268 118 234 114 213 c 0
 110 192 103 167 99 157 c 2
 92 140 l 1
 107 140 l 2
 115 140 142 131 166 120 c 0
 194 107 212 101 229 101 c 0
 244 101 258 105 279 114 c 2
34 -95 m 2
 22 -81 l 1
 33 184 l 1
 43 449 l 1
 54 470 l 2
 61 483 73 489 85 489 c 0
 96 489 107 484 113 472 c 2
 123 453 l 1
 114 414 l 2
 109 392 104 369 104 362 c 2
 104 349 l 1
 145 376 l 1
 186 403 l 1
 233 404 l 1
 280 405 l 1
 329 379 l 1
 379 353 l 1
 402 320 l 1
 424 287 l 1
 424 236 l 1
 424 185 l 1
 405 143 l 1
 386 101 l 1
 344 71 l 1
 303 41 l 1
 261 34 l 1
 219 28 l 1
 174 45 l 2
 149 54 121 64 111 67 c 2
 93 72 l 1
 95 -7 l 2
 95 -17 95 -27 95 -37 c 0
 95 -68 94 -93 91 -98 c 0
 86 -106 77 -110 67 -110 c 0
 55 -110 42 -105 34 -95 c 2
EndSplineSet
Validated: 1
EndChar

StartChar: germandbls
Encoding: 223 223 178
Width: 653
Flags: HW
LayerCount: 2
Fore
SplineSet
50 -200 m 2
 36 -184 l 1
 29 97 l 1
 22 379 l 1
 30 484 l 2
 47 692 72 749 170 800 c 2
 205 818 l 1
 295 819 l 1
 385 819 l 1
 424 805 l 2
 476 787 536 731 552 686 c 2
 565 649 l 1
 564 564 l 1
 564 479 l 1
 548 443 l 2
 539 423 516 388 497 367 c 2
 462 328 l 1
 506 305 l 1
 550 281 l 1
 580 236 l 2
 612 189 629 138 629 96 c 0
 629 89 628 82 627 75 c 0
 620 30 575 -33 529 -63 c 2
 493 -87 l 1
 424 -92 l 1
 355 -98 l 1
 310 -74 l 1
 265 -51 l 1
 242 -16 l 1
 219 18 l 1
 222 44 l 1
 225 69 l 1
 250 69 l 1
 275 69 l 1
 287 43 l 2
 294 29 309 9 320 -1 c 2
 341 -19 l 1
 393 -23 l 1
 445 -27 l 1
 480 -9 l 2
 499 1 525 25 538 44 c 2
 562 79 l 1
 557 116 l 2
 554 136 542 169 530 189 c 2
 508 225 l 1
 467 245 l 1
 427 266 l 1
 363 268 l 1
 300 270 l 1
 283 288 l 1
 265 305 l 1
 289 325 l 2
 302 336 323 344 335 344 c 0
 362 344 431 389 459 425 c 0
 470 439 484 472 491 498 c 2
 503 545 l 1
 497 599 l 2
 490 663 468 705 427 729 c 2
 397 747 l 1
 325 752 l 1
 253 756 l 1
 218 745 l 2
 199 739 172 721 157 706 c 2
 130 678 l 1
 114 608 l 1
 98 539 l 1
 93 284 l 1
 89 29 l 1
 99 -81 l 1
 109 -190 l 1
 98 -203 l 2
 91 -211 84 -215 76 -215 c 0
 67 -215 58 -210 50 -200 c 2
EndSplineSet
Validated: 1
EndChar

StartChar: thorn
Encoding: 254 254 179
Width: 619
Flags: HW
LayerCount: 2
Fore
SplineSet
344 140 m 0
 376 159 421 198 446 226 c 2
 492 276 l 1
 507 327 l 2
 516 358 521 385 521 409 c 0
 521 438 514 463 501 491 c 2
 481 533 l 1
 436 555 l 1
 391 577 l 1
 354 571 l 2
 302 563 245 519 191 447 c 2
 144 386 l 1
 132 338 l 2
 125 311 117 250 115 202 c 2
 111 115 l 1
 159 101 l 1
 206 87 l 1
 246 96 l 2
 268 101 312 121 344 140 c 0
19 -182 m 2
 18 -180 18 -176 18 -168 c 0
 18 -142 22 -88 27 -29 c 0
 34 47 46 235 52 389 c 2
 64 669 l 1
 78 684 l 1
 92 699 l 1
 110 688 l 1
 127 677 l 1
 124 579 l 1
 121 481 l 1
 178 539 l 1
 235 596 l 1
 286 620 l 2
 314 633 353 644 372 644 c 0
 421 644 501 604 538 562 c 2
 570 527 l 1
 582 475 l 1
 594 423 l 1
 587 369 l 1
 581 315 l 1
 551 255 l 1
 521 195 l 1
 470 149 l 2
 442 124 389 87 353 67 c 2
 287 30 l 1
 212 29 l 2
 171 29 129 33 120 38 c 2
 104 46 l 1
 97 -22 l 2
 93 -60 88 -113 84 -141 c 2
 77 -191 l 1
 51 -194 l 1
 25 -197 l 1
 19 -182 l 2
EndSplineSet
Validated: 1
EndChar

StartChar: OE
Encoding: 188 338 180
Width: 1181
Flags: HW
LayerCount: 2
Fore
SplineSet
459 45 m 1
 475 61 l 1
 478 135 l 2
 480 176 487 247 493 294 c 0
 499 341 506 455 510 549 c 2
 517 721 l 1
 493 737 l 1
 469 754 l 1
 426 754 l 1
 383 754 l 1
 322 729 l 2
 288 715 246 692 227 678 c 0
 180 642 128 561 108 490 c 2
 92 431 l 1
 96 335 l 1
 100 239 l 1
 125 184 l 2
 139 153 165 111 183 91 c 2
 216 54 l 1
 262 39 l 1
 309 24 l 1
 376 27 l 1
 444 30 l 1
 459 45 l 1
274 -37 m 0
 218 -25 166 4 134 41 c 0
 94 86 50 176 34 243 c 2
 21 297 l 1
 26 393 l 1
 32 489 l 1
 54 547 l 2
 66 579 96 633 122 667 c 2
 169 729 l 1
 257 774 l 1
 346 819 l 1
 424 818 l 1
 502 817 l 1
 527 801 l 1
 552 784 l 1
 846 780 l 1
 1139 775 l 1
 1149 760 l 1
 1158 744 l 1
 1142 728 l 1
 1126 712 l 1
 1047 707 l 2
 1034 706 1014 706 990 706 c 0
 934 706 855 708 784 713 c 2
 601 725 l 1
 593 717 l 2
 589 712 582 638 578 551 c 2
 571 394 l 1
 670 395 l 2
 724 395 799 399 837 403 c 2
 905 410 l 1
 921 399 l 2
 929 393 934 379 932 369 c 2
 929 350 l 1
 894 342 l 2
 875 338 792 332 711 328 c 2
 564 321 l 1
 564 310 l 2
 564 304 559 260 553 211 c 0
 549 177 547 143 547 120 c 0
 547 110 547 102 548 98 c 2
 554 73 l 1
 652 79 l 2
 705 83 811 95 886 105 c 0
 948 113 1006 119 1029 119 c 0
 1034 119 1037 119 1039 118 c 2
 1055 111 l 1
 1052 85 l 1
 1049 59 l 1
 974 47 l 2
 933 40 816 27 714 18 c 2
 529 2 l 1
 496 -18 l 1
 463 -38 l 1
 386 -41 l 2
 375 -42 363 -42 351 -42 c 0
 319 -42 288 -40 274 -37 c 0
EndSplineSet
Validated: 1
EndChar

StartChar: periodcentered
Encoding: 183 183 181
Width: 177
Flags: HW
LayerCount: 2
Fore
SplineSet
50 362 m 2
 27 378 l 1
 27 403 l 1
 27 428 l 1
 53 445 l 1
 79 462 l 1
 115 445 l 1
 150 428 l 1
 150 408 l 2
 150 382 116 346 91 346 c 0
 81 346 63 353 50 362 c 2
EndSplineSet
Validated: 1
EndChar

StartChar: mu
Encoding: 181 181 182
Width: 442
Flags: HW
LayerCount: 2
Fore
SplineSet
42 81 m 2
 28 97 l 1
 30 394 l 1
 32 690 l 1
 50 744 l 2
 60 774 75 802 85 808 c 2
 103 819 l 1
 119 803 l 1
 134 787 l 1
 117 728 l 1
 99 669 l 1
 99 594 l 1
 99 519 l 1
 118 479 l 1
 138 439 l 1
 177 427 l 2
 193 422 211 419 224 419 c 0
 229 419 232 419 235 420 c 2
 254 426 l 1
 292 503 l 1
 330 579 l 1
 343 684 l 2
 350 742 356 793 359 797 c 0
 362 802 370 804 378 804 c 0
 390 804 404 799 411 791 c 2
 422 778 l 1
 408 654 l 2
 400 586 390 489 386 439 c 2
 378 349 l 1
 352 346 l 1
 325 343 l 1
 319 369 l 1
 313 395 l 1
 291 375 l 1
 269 354 l 1
 221 354 l 2
 194 354 156 361 136 369 c 0
 116 377 99 384 96 384 c 0
 94 384 93 356 93 315 c 0
 93 292 93 266 94 237 c 0
 95 215 95 194 95 175 c 0
 95 122 93 82 90 77 c 0
 85 69 78 65 70 65 c 0
 61 65 51 70 42 81 c 2
EndSplineSet
Validated: 1
EndChar

StartChar: Scaron
Encoding: 166 352 183
Width: 603
Flags: HW
LayerCount: 2
Fore
SplineSet
126 41 m 2
 103 51 82 69 78 79 c 2
 70 97 l 1
 86 113 l 1
 102 128 l 1
 144 108 l 1
 188 89 l 1
 260 90 l 2
 300 91 359 98 392 108 c 2
 454 126 l 1
 482 155 l 2
 501 174 510 185 510 196 c 0
 510 207 502 217 486 236 c 0
 451 277 374 312 234 350 c 2
 118 382 l 1
 84 407 l 2
 41 439 20 481 20 524 c 0
 20 570 44 618 92 661 c 0
 143 707 203 737 268 749 c 2
 320 759 l 1
 386 748 l 2
 423 742 466 730 482 721 c 0
 506 707 518 686 518 668 c 0
 518 652 508 637 488 630 c 2
 466 624 l 1
 450 644 l 2
 432 666 372 687 326 687 c 0
 285 687 205 658 162 627 c 0
 118 595 92 556 92 520 c 2
 92 495 l 1
 122 470 l 1
 152 444 l 1
 236 422 l 2
 410 377 518 323 558 262 c 2
 576 236 l 1
 576 196 l 2
 576 144 553 112 496 78 c 0
 431 40 356 22 256 22 c 2
 168 22 l 1
 126 41 l 2
240 847 m 0
 173 884 70 958 40 991 c 0
 27 1005 20 1018 20 1030 c 0
 20 1042 27 1053 40 1061 c 2
 56 1072 l 1
 104 1027 l 2
 131 1002 184 963 222 939 c 2
 290 894 l 1
 304 914 l 2
 312 925 346 968 380 1011 c 2
 440 1089 l 1
 456 1086 l 2
 464 1084 476 1075 482 1066 c 2
 492 1049 l 1
 460 1006 l 2
 442 982 404 931 376 891 c 2
 324 818 l 1
 308 818 l 2
 300 818 269 831 240 847 c 0
EndSplineSet
Validated: 1
EndChar

StartChar: scaron
Encoding: 168 353 184
Width: 555
Flags: HW
LayerCount: 2
Fore
SplineSet
238 627 m 0
 171 664 68 738 38 771 c 0
 25 785 18 798 18 810 c 0
 18 822 25 833 38 841 c 2
 54 852 l 1
 102 807 l 2
 129 782 182 743 220 719 c 2
 288 674 l 1
 302 694 l 2
 310 705 344 748 378 791 c 2
 438 869 l 1
 454 866 l 2
 462 864 474 855 480 846 c 2
 490 829 l 1
 458 786 l 2
 440 762 402 711 374 671 c 2
 322 598 l 1
 306 598 l 2
 298 598 267 611 238 627 c 0
196 25 m 2
 156 39 140 56 140 80 c 0
 140 93 148 99 167 99 c 0
 182 99 205 95 236 87 c 2
 304 71 l 1
 362 81 l 2
 394 87 427 100 438 110 c 2
 458 127 l 1
 454 153 l 1
 452 178 l 1
 410 211 l 2
 387 229 322 260 266 282 c 2
 164 321 l 1
 136 349 l 1
 108 377 l 1
 108 407 l 2
 108 448 156 516 202 542 c 2
 240 563 l 1
 294 563 l 1
 350 563 l 1
 374 547 l 1
 396 531 l 1
 394 493 l 1
 390 456 l 1
 366 452 l 1
 342 449 l 1
 336 470 l 1
 332 492 l 1
 308 498 l 1
 282 504 l 1
 246 485 l 2
 226 475 201 454 192 439 c 2
 176 411 l 1
 188 396 l 2
 195 388 229 371 264 358 c 0
 299 345 360 319 398 299 c 2
 468 263 l 1
 498 227 l 1
 528 190 l 1
 528 148 l 1
 528 105 l 1
 506 77 l 2
 494 61 465 40 442 30 c 2
 400 11 l 1
 318 11 l 1
 236 11 l 1
 196 25 l 2
EndSplineSet
Validated: 1
EndChar

StartChar: Ydieresis
Encoding: 190 376 185
Width: 586
Flags: HW
LayerCount: 2
Fore
SplineSet
277 43 m 2
 263 61 l 1
 263 242 l 1
 264 424 l 1
 236 440 l 2
 221 449 183 484 152 518 c 2
 95 580 l 1
 56 657 l 1
 18 735 l 1
 29 752 l 2
 35 761 48 769 58 769 c 2
 77 769 l 1
 116 691 l 1
 156 613 l 1
 213 555 l 2
 245 523 277 498 284 498 c 0
 291 498 337 545 386 601 c 0
 435 657 487 712 501 723 c 2
 526 743 l 1
 545 733 l 2
 556 727 564 717 564 710 c 0
 564 703 518 645 461 580 c 0
 404 515 354 455 349 445 c 0
 338 425 322 231 322 127 c 0
 322 119 322 111 322 104 c 2
 324 32 l 1
 308 29 l 2
 307 29 305 29 304 29 c 0
 295 29 284 34 277 43 c 2
141 832 m 2
 118 848 l 1
 118 873 l 1
 118 898 l 1
 144 915 l 1
 170 932 l 1
 206 915 l 1
 241 898 l 1
 241 878 l 2
 241 852 207 816 182 816 c 0
 172 816 154 823 141 832 c 2
391 832 m 2
 368 848 l 1
 368 873 l 1
 368 898 l 1
 394 915 l 1
 420 932 l 1
 456 915 l 1
 491 898 l 1
 491 878 l 2
 491 852 457 816 432 816 c 0
 422 816 404 823 391 832 c 2
EndSplineSet
Validated: 1
EndChar

StartChar: macron
Encoding: 175 175 186
Width: 926
Flags: HW
LayerCount: 2
Fore
SplineSet
45 699 m 2
 28 703 l 1
 31 729 l 2
 33 743 42 759 50 763 c 0
 58 767 247 776 469 782 c 2
 873 792 l 1
 887 781 l 2
 894 776 898 765 898 754 c 0
 898 752 898 750 898 748 c 2
 894 727 l 1
 526 715 l 2
 323 708 136 701 110 699 c 0
 97 698 84 698 72 698 c 0
 60 698 50 698 45 699 c 2
EndSplineSet
Validated: 1
EndChar

StartChar: logicalnot
Encoding: 172 172 187
Width: 934
Flags: HW
LayerCount: 2
Fore
SplineSet
42 339 m 2
 25 343 l 1
 28 369 l 2
 30 383 39 399 47 403 c 0
 55 407 244 416 466 422 c 2
 870 432 l 1
 882 423 l 2
 885 422 887 420 889 418 c 2
 901 406 l 1
 901 291 l 2
 901 228 903 306 905 158 c 0
 906 118 906 92 906 74 c 0
 906 43 905 39 904 39 c 0
 904 39 903 40 902 40 c 0
 902 40 901 40 901 39 c 0
 897 32 890 29 883 29 c 0
 873 29 862 34 853 45 c 2
 839 62 l 1
 839 287 l 1
 839 365 l 1
 523 355 l 2
 320 348 133 341 107 339 c 0
 94 338 80 338 68 338 c 0
 56 338 47 338 42 339 c 2
EndSplineSet
Validated: 1
EndChar

StartChar: paragraph
Encoding: 182 182 188
Width: 701
Flags: HW
LayerCount: 2
Fore
SplineSet
300 -114 m 2
 289 -103 l 1
 289 21 l 2
 289 89 285 279 282 443 c 2
 276 741 l 1
 234 728 l 2
 174 710 137 686 112 650 c 2
 90 618 l 1
 90 584 l 2
 90 565 97 541 104 531 c 2
 117 512 l 1
 182 508 l 1
 246 503 l 1
 248 489 l 2
 249 481 247 469 242 462 c 2
 234 448 l 1
 187 444 l 1
 140 439 l 1
 98 458 l 1
 56 477 l 1
 39 512 l 1
 22 548 l 1
 26 599 l 1
 30 650 l 1
 58 690 l 1
 86 730 l 1
 155 764 l 1
 225 799 l 1
 295 809 l 2
 334 815 417 819 480 819 c 2
 596 818 l 1
 628 807 l 2
 646 801 664 788 670 779 c 2
 681 762 l 1
 662 748 l 1
 644 734 l 1
 629 740 l 2
 621 743 587 748 553 751 c 2
 492 756 l 1
 493 459 l 2
 494 296 498 109 501 44 c 0
 503 12 503 -20 503 -44 c 0
 503 -68 503 -87 501 -91 c 0
 497 -101 488 -106 478 -106 c 0
 468 -106 457 -101 449 -92 c 2
 438 -78 l 1
 433 338 l 1
 428 754 l 1
 389 751 l 1
 350 749 l 1
 350 323 l 2
 350 89 346 -108 342 -114 c 0
 337 -122 330 -125 323 -125 c 0
 316 -125 308 -122 300 -114 c 2
EndSplineSet
Validated: 1
EndChar

StartChar: exclamdown
Encoding: 161 161 189
Width: 172
Flags: HW
LayerCount: 2
Fore
SplineSet
103 262 m 2
 114 250 l 1
 120 -63 l 1
 127 -376 l 1
 113 -395 l 1
 100 -413 l 1
 80 -409 l 1
 60 -406 l 1
 57 -79 l 1
 55 247 l 1
 66 261 l 2
 73 270 79 274 85 274 c 0
 91 274 97 270 103 262 c 2
124 443 m 2
 147 428 l 1
 147 403 l 1
 147 378 l 1
 121 361 l 1
 95 344 l 1
 59 360 l 1
 24 377 l 1
 24 398 l 2
 24 424 58 459 83 459 c 0
 93 459 111 452 124 443 c 2
EndSplineSet
Validated: 1
EndChar

StartChar: questiondown
Encoding: 191 191 190
Width: 558
Flags: HW
LayerCount: 2
Fore
SplineSet
247 160 m 1
 227 181 l 1
 227 217 l 2
 227 268 254 315 342 418 c 0
 440 533 465 573 465 618 c 0
 465 680 407 736 328 749 c 2
 290 756 l 1
 237 733 l 1
 185 710 l 1
 150 670 l 1
 115 629 l 1
 101 567 l 1
 87 505 l 1
 71 495 l 1
 54 484 l 1
 37 498 l 1
 20 513 l 1
 27 559 l 2
 42 664 100 746 192 791 c 2
 249 819 l 1
 307 819 l 1
 365 819 l 1
 415 794 l 1
 466 770 l 1
 496 731 l 1
 527 693 l 1
 532 637 l 1
 536 580 l 1
 510 526 l 2
 495 496 446 429 401 377 c 0
 315 278 298 254 298 229 c 2
 298 214 l 1
 329 203 l 2
 350 196 359 184 359 173 c 0
 359 156 338 140 301 140 c 2
 267 140 l 1
 247 160 l 1
270 -49 m 2
 247 -33 l 1
 247 -8 l 1
 247 17 l 1
 273 34 l 1
 299 51 l 1
 335 34 l 1
 370 17 l 1
 370 -3 l 2
 370 -29 336 -65 311 -65 c 0
 301 -65 283 -58 270 -49 c 2
EndSplineSet
Validated: 1
EndChar
